<svg id="Layer_1" data-name="Layer 1" xmlns="http://www.w3.org/2000/svg" viewBox="0 0 1306 824.69"><defs><style>.cls-1{fill:#3ba09c;}.cls-2{fill:#7fd8d5;}.cls-3{fill:#ffe9de;}.cls-4{fill:#4f298c;}.cls-5{fill:#2c0b60;}.cls-6{fill:#39b772;}.cls-7{fill:#f0c9b6;}.cls-8{fill:#644899;}.cls-9{fill:#44ea93;}.cls-10{fill:#fd9c55;}.cls-11{fill:#844ccc;}.cls-12{fill:#9958dd;}.cls-13{fill:#e25e44;}.cls-14{fill:#c77438;}</style></defs><path class="cls-1" d="M835.7,538.07c-6.24,11.9-418.49-29.6-426.88-22.52C390,565.12,319.56,752.3,319.75,752.3c62.12,1,461.09-.84,467.72-.82a.36.36,0,0,0,.33-.23c4.12-14.2,64.73-210.06,62.69-210.43C844.48,539.72,836.17,538,835.7,538.07Z"/><path class="cls-2" d="M1277.5,538.33c-5.22,11.86-434-29.6-441.73-22.55-14.54,49.38-69,235.83-68.78,235.83,62.08,1,473.89-.72,480.51-.7a.32.32,0,0,0,.31-.23c2.9-14.15,46.75-209.24,44.68-209.61C1286.41,540,1278,538.28,1277.5,538.33Z"/><path class="cls-3" d="M1250.54,738.42a.32.32,0,0,1-.31.23c-6.39,0-376.58,1.62-458.72.87l-7.93-.09c-.07,0,6.79-23.64,16.3-56.31C817.09,624,843,535.39,852.35,503.6c7.77-7.06,422.66,34.33,427.88,22.47.47-.05,8.91,1.65,15,2.74C1297.28,529.18,1253.44,724.28,1250.54,738.42Z"/><path class="cls-4" d="M1218.28,174.68a25.07,25.07,0,0,0-16.82-12.36c-7.64-1.7-15.69-.7-23.22,1.09a163.2,163.2,0,0,0-22.83,7.45A217,217,0,0,0,1112.9,194a302.82,302.82,0,0,0-37.9,31.4c-7,6.78-13.77,13.84-20.3,21.09.51-4.64,1-9.28,1.56-13.91,0-.3-.43-.33-.47,0q-.84,7.26-1.62,14.54-6.48,7.21-12.69,14.69-3.84,4.62-7.6,9.31c-.19.23.2.49.39.26,6.4-8,13-15.84,19.81-23.47q-3.11,28.86-5.33,57.81-2.79,36.38-4.17,72.84-.78,20.71-1.11,41.45c0,.18.24.35.39.19q20-21.81,39.86-43.68,19.62-21.66,38.9-43.62,19.45-22.25,38.31-45t36.56-46.11c10.36-13.64,22.15-28.42,24.25-46C1222.59,188.63,1221.74,181,1218.28,174.68Z"/><path class="cls-5" d="M817.51,692.31c-2.69-4.33-7.41-8.5-12.68-9.25a.29.29,0,0,0-.22-.42,13.62,13.62,0,0,0-4.73.48c-9.51,32.67-16.37,56.31-16.3,56.31l7.93.09a56.82,56.82,0,0,0,7.39-3.44,50.09,50.09,0,0,0,14.2-11.27C820.6,715.91,823.93,702.72,817.51,692.31Z"/><path class="cls-2" d="M1306,484.52c-3.75,24.42-45,206.9-45.13,206.9-6.61,0-401.16,2-463.23,1-.17,0,36.94-137.79,57.46-207.88Z"/><path class="cls-6" d="M874.57,485.75C867.33,510.11,800.08,692,800,692c-6.61,0-401.44,2-463.37,1-.17,0,56.58-137.39,87.09-207.27Z"/><path class="cls-4" d="M1215.17,55c-.12-.18-.23-.36-.36-.53a18,18,0,0,0-12.38-7.79c-4.36-.66-8.82.11-13,1.24a121.37,121.37,0,0,0-11.75,3.87q-6.56,2.51-12.82,5.62l-.59.3q-4,2-7.92,4.26a190.3,190.3,0,0,0-30.59,22.2l-.52.46q-3.43,3-6.77,6.22a357,357,0,0,0-32.91,36.61c-.21.25-.4.5-.6.76-10.48,13.23-20.34,26.93-30.17,40.64q-14,19.52-27.68,39.24c-4.6-9-6.55-19.47-2-28.92,5.14-10.72,18.2-20.07,30.08-13.88.35.18.66-.35.31-.54-9.3-4.84-19.78-.34-26.24,7a30.05,30.05,0,0,0-6.89,13.47c-1.16,5.55-.32,11.44,1.47,16.76a46.38,46.38,0,0,0,2.87,6.67q-3.6,5.16-7.16,10.33-4.12,6-8.22,12A318.49,318.49,0,0,0,940,191.08q-4.18-1.67-8.41-3.22a15.31,15.31,0,0,0,7.06-5.35c3.66-4.77,6.57-10.22,9.73-15.31l41.23-66.32c.67-1.08,1.34-2.16,2-3.23,5.75-9.19,11.63-18.35,16.9-27.82,5.44-9.82,10.18-20.22,12.24-31.32,1.65-9,1.66-18.63-2.49-27a21.35,21.35,0,0,0-7.83-8.9C1006-.09,1000.77-.26,995.7.19,974.87,2.05,954.55,8.65,936,18.12A228,228,0,0,0,884.49,54.7a316,316,0,0,0-35.12,39.16q-4.73,6.15-9.22,12.48c-13.62,19.12-25.82,39.2-37.72,59.42q-3.66,6.23-7.28,12.47a24.2,24.2,0,0,1-2.78,1.3V168.71a.31.31,0,0,0-.62,0v11a6,6,0,0,0-3,1.71c-.25.32.19.76.43.44a5.39,5.39,0,0,1,2.56-1.54v4.25c-5.92-1.11-11.77-3.07-16.38-6.84a19.21,19.21,0,0,1-6.35-9.47c-.11-.37-.71-.21-.59.17,3.14,10.5,12.9,14.89,23.32,16.78v4.31a.31.31,0,0,0,.62,0v-4.2a119.26,119.26,0,0,0,18,1.36l78.18,1.43,19.39.36c6.31.11,12.74.59,19,.25a17.68,17.68,0,0,0,3.68-.6,317.58,317.58,0,0,1,61.56,30.43q9.74,6.21,19,13.11a.32.32,0,0,0,.43-.11q7.64-11.17,15.36-22.3c4.59,8.53,11.57,15.8,18.82,22.07a204.85,204.85,0,0,0,34,23.72,210.67,210.67,0,0,0,21,10.28c3.08,1.3,6.88,2.29,9.22,4.84l.06.06c-1.27,2.34-2.52,4.67-3.77,7a.31.31,0,0,0,.11.42c1.6,1,3.34.32,4.46-1.07a4.83,4.83,0,0,0,.59-5.47,6.47,6.47,0,0,0-.65-1c.77-1.41,1.53-2.82,2.3-4.22q10.91-19.92,22.54-39.43,15.09-25.31,31.37-49.86,8.06-12.15,16.4-24.12l1.22-1.74.41-.58c4.81-6.84,9.73-13.6,14.41-20.52a167.11,167.11,0,0,0,14-24.16c.1-.21.2-.42.29-.63a77.24,77.24,0,0,0,6.36-22C1221.19,74.34,1220.31,62.78,1215.17,55ZM1111,275.41c-.77,1.47-2.36,2.68-4,1.9,1.17-2.18,2.33-4.35,3.51-6.52A4.24,4.24,0,0,1,1111,275.41Z"/><path class="cls-5" d="M1204.53,105.29c3.09-.11,6.17-.27,9.26-.45-.09.21-.19.42-.29.63-6,.35-12.09.6-18.14.6-5.7,0-11.75.16-17.27-1.49a15.48,15.48,0,0,1-6.1-3.34q-16.07,18.35-31.24,37.45a11.89,11.89,0,0,0,3.52,3.21,42.49,42.49,0,0,0,10.2,4.08,88.38,88.38,0,0,0,11.12,2.49,147.11,147.11,0,0,0,19.48,1.67c-.15.19-.28.39-.42.59a123.3,123.3,0,0,1-27.05-3.25,70.42,70.42,0,0,1-10.41-3.42,16.8,16.8,0,0,1-6.89-4.8l-1.48,1.85q-27.13,34.35-51.25,70.93c-.22.34-.75,0-.53-.31q13.56-20.55,28.09-40.46,12.07-16.5,24.78-32.51c-1.91-2.8-2.49-6.39-3.31-9.61l-3-11.88-8.35-32.76q.26-.24.51-.45,4.76,18.6,9.5,37.2c1,3.9,2,7.81,3,11.7a18.15,18.15,0,0,0,2.17,5.2q14.08-17.7,28.91-34.77c.74-.87,1.5-1.72,2.26-2.58a12.6,12.6,0,0,1-3.19-5.52,54.66,54.66,0,0,1-1.27-9.18c-.36-3.55-.71-7.1-1.07-10.65q-.88-8.92-1.78-17.87l.59-.29L1167,79.41c.34,3.42.67,6.84,1,10.25.32,3.12.73,6.38,2.47,9.06a10.87,10.87,0,0,0,1.37,1.69q20.74-23.67,42.91-46a6,6,0,0,1,.36.52q-10,10.09-19.75,20.48-11.76,12.54-23.08,25.48c3.27,3,8.13,3.93,12.43,4.29A164.88,164.88,0,0,0,1204.53,105.29Z"/><path class="cls-5" d="M1220.8,327.85A16.65,16.65,0,0,0,1207.52,316c-6.71-1.26-14-.24-20.57,1.24-29.86,6.71-53.74,29.93-73.29,52.16a321.91,321.91,0,0,0-50.05,76.64q-3.77-18.92-7.52-37.84c-.12-.6-1-.35-.92.25,2.6,13.09,5.06,26.23,7.62,39.35-.26.57-.53,1.14-.79,1.72-1.52,3.37-3,6.78-4.39,10.2-.23.57.69.81.92.25q2.19-5.33,4.58-10.58c2.14,10.91,4.36,21.79,6.81,32.62a146.46,146.46,0,0,0,11,32.61c5.24,10.62,11.73,20.57,16.92,31.21a94.91,94.91,0,0,1,6.64,17.36c-.23.41-.46.82-.7,1.23a.48.48,0,0,0,.83.49l.21-.38a54.39,54.39,0,0,1,1.26,20.66c-.09.6.83.86.92.25a55.14,55.14,0,0,0-1.5-22.12l54.27-96,27.58-48.77c8.75-15.47,18.26-30.75,25.84-46.83a95.24,95.24,0,0,0,7.79-22.64C1222.32,342.25,1222.93,334.63,1220.8,327.85Z"/><path class="cls-5" d="M1226.51,478.58c-5.22,11.86-7,19.91-13.06,31.36-7.2,13.62,4.81,26.93-3.5,39.88-4.19,6.52-323.53,7.26-351.63,1.37-18.39-3.85-37-6.66-55.58-9.21-21-2.89-42.12-5.77-63.26-7.89a609.92,609.92,0,0,0-126.72.74C582.56,538.09,384.91,577,377.15,584c-14.54,49.38-37,109.27-36.86,109.27,62.07,1,849.6-2.16,856.22-2.14a.31.31,0,0,0,.3-.23c2.91-14.14,8.73-48.95,16.85-85.6,11.88-53.61,26.68-111.45,28-116.57,2.15-8.17,1.87-7.07-.19-7.44C1235.41,480.23,1227,478.53,1226.51,478.58Z"/><path class="cls-3" d="M1240.37,503.62c-2.22,8.35-4.63,16.65-6.84,25-4.42,16.63-8.53,33.33-12.44,50.09-5.88,25.21-11.31,50.51-16.61,75.84,0,.2-.09.4-.13.6q-2.56,12.24-5.11,24.48a.32.32,0,0,1-.3.22c-5,0-43-.75-82.63-1h-2.88c-10.54,0-19.59-.07-25.74,0l-97.91.87-97.91.87s-76.51,1.34-132.3,2.21c-19.87.31-37.12.56-47.35.66l-2.9,0q-91,.78-181.94.46-38.82-.13-77.63-.49-52.61-.47-105.21-1.3c-.18,0-.34.15-.29,0a181.67,181.67,0,0,0,5.25-26.37c0-.21.06-.42.07-.62a202.65,202.65,0,0,0,1.23-25c0-.2,0-.41,0-.61,0-2.22,0-4.45-.07-6.71,0-.2,0-.41,0-.62-.13-7.88-.35-16.14-.23-25.49-1.27.43,12.71-6.07,11.43-5.64-.37.13-.51-.48-.14-.6,1.32-.45,2.65-.88,4-1.32,0-.72,0-1.44,0-2.17,0-.4.61-.38.62,0,0,.64,0,1.29,0,1.94l9.88-3.28C411.51,574,447,563,482.93,553.59q6.7-1.76,13.44-3.44c39.76-9.95,80.11-17.82,120.89-22.15a608.77,608.77,0,0,1,124.43-.67c20.75,2.06,41.45,4.85,62.12,7.65,18.27,2.48,36.52,5.2,54.58,8.94,27.6,5.7,54.94,13.92,79.83,27.08,19.47,1.78,38.85,4.77,58.23,7.17a434.89,434.89,0,0,0,48.1,3.75c16,.2,31.93-1,47.9-1.08,15.79-.11,31.5,1,46.78,5.24,7.49,2.08,15.16,4.21,22.87,1.93,6.31-1.88-8.13-6-3.61-10.71,4.72-4.88,74.45-127.6,83.94-156.28.12-.38.72-.2.59.18h0a.26.26,0,0,1,.19.29q-1.11,14.52-.86,29.08c.17,9.69,1.29,19.33,1.48,29C1244,487.8,1242.48,495.73,1240.37,503.62Z"/><path class="cls-7" d="M604.46,570.3a130.36,130.36,0,0,1-22.1,1.77l.33-.14a80.94,80.94,0,0,1,15.69-4.84c.38-.07.33-.69-.06-.61a81.52,81.52,0,0,0-17.39,5.59c-18.61-.2-37.21-3.76-55.29-8.07-14.22-3.39-28.4-7.29-42.71-10.41C447,563,411.51,574,376.25,585.62l-9.88,3.28c0-.65,0-1.3,0-1.94,0-.4-.63-.42-.62,0,0,.73,0,1.45,0,2.17-1.33.44-2.66.87-4,1.32-.37.12-.23.73.14.6,1.28-.43-12.7,6.07-11.43,5.64-.12,9.35.1,17.61.23,25.49,0,.21,0,.42,0,.62,0,2.26.06,4.49.07,6.71,0,.2,0,.41,0,.61a202.65,202.65,0,0,1-1.23,25c0,.2,0,.41-.07.62a181.67,181.67,0,0,1-5.25,26.37c-.05.2.11,0,.29,0q52.62.83,105.21,1.3c1.32-1.36,2.58-2.77,3.84-4.19a154.34,154.34,0,0,1,11.92-12.74A79.09,79.09,0,0,1,480,656.23c10.59-5.88,23.09-8,33-15.1,9.09-6.49,14.69-16.47,20.66-25.64,11.7-18,27.54-33.91,47.28-42.79,1.65,0,3.3,0,5,0a129.62,129.62,0,0,0,18.65-1.75C604.92,570.85,604.86,570.24,604.46,570.3Z"/><path class="cls-8" d="M1243.38,419.78c-3.76,15.22-45,178-54.24,202.85-.11.31-.06.56-.26.53-3.82-.92-210.15-43.09-217-44.1l-.6-.1q-16.69-2.48-33.39-4.87l-12.67-1.8-.61-.08q-14.57-2-29.15-3.91l-1.67-.21c-28.81-3.61-59.56-5.18-86,8.69-23.5,12.3-40.26,33.77-55.87,54.65l-1.63,2.18L750,634c.1.24-2.72-4.44-3.91-6.52C734.46,607.15,713,594.37,691,588.19c-26.93-7.59-55.62-7.11-83.37-7.63-28.74-.55-57.48-.61-86.21.12-28.56.73-57.11,2.26-85.57,4.9-28.79,2.67-57.47,6.51-85.9,11.78a.31.31,0,0,1-.34-.46c10.22-19.38,103-172.11,105.43-176.47l3.51-6.21a28.47,28.47,0,0,1,2.89-4.68c2.53-3,6.13-2.24,9.58-1.84,4.9.58,130.87-19.15,182.24-17.54,92.85,2.91,191.44-22.09,284.21-17.21,83.26,4.37,290.53,42.79,305.71,46.44A.32.32,0,0,1,1243.38,419.78Z"/><path class="cls-4" d="M1169.16,395.56c-.09-.18-.19-.36-.29-.54a22.25,22.25,0,0,0-4.16-5.24,16.17,16.17,0,0,0-7.37-4,6,6,0,0,0-.61-.13,17.6,17.6,0,0,0-5.57-.22,1.24,1.24,0,0,1,0-.16l.17-.68c.73-2.92,1.43-5.87,2.05-8.83,1.74-8.26,3.36-17.35.17-25.48-2.78-7.09-9.14-12-16.29-14.2-16.69-5.16-34.26,4.66-47,14.78-13.47,10.73-24.14,24.66-32.53,39.61-9.62,17.14-16.41,35.65-22.83,54.16-.62,1.76-1.23,3.54-1.84,5.31h128c1.23-1.85,1.69-4.4,2.29-6.35l1.17-3.8c.07-.25.15-.49.23-.73q1.2-3.93,2.41-7.85a108.1,108.1,0,0,0,4.31-17.56c0-.24.06-.49.1-.74C1172.36,406.85,1172,400.81,1169.16,395.56Z"/><path class="cls-5" d="M1151.37,384.62l-.17.68a41.62,41.62,0,0,0-9.53,3.66c-1.12.59-2.19,1.21-3.23,1.88-.18.1-.35.21-.53.33a58,58,0,0,0-16.67,17.25c-.11.17-.23.34-.33.52a114.23,114.23,0,0,0-9.49,18.84c-.34.84-.67,1.67-1,2.51l-.24.61c-2.47,6.31-4.73,12.7-7,19.07h-.65q2-5.48,4-10.93c5.36-14.66,11.21-30,22.41-41.33a51.69,51.69,0,0,1,8.78-7.12l.27-.18h0A44.47,44.47,0,0,1,1151.37,384.62Z"/><path class="cls-5" d="M1130.94,248.41c-.06.42-3.9,31.08-9.35,74.07-7.69,60.7-18.58,146-26.51,205.42-48.09-9.78-92.88-18.84-96-19.31l-.61-.09q-16.68-2.47-33.38-4.88l-12.67-1.79-.61-.08q-14.56-2-29.15-3.91l-1.68-.21c-28.8-3.62-58.88-3.8-86,8.68-34.76,16-55.36,61.23-55.64,60.77-.82-1.33-5.13-8.56-6-10.11-11.62-20.28-33.08-33.06-55.07-39.25-26.94-7.58-55.63-7.1-83.37-7.62-28.74-.55-57.48-.62-86.21.12q-22.39.57-44.74,1.84c7.85-52.61,18.16-123.38,26.24-178.67,4.9-33.52,9-61.35,11.19-76,0,0,0,0,0,0v0c0-.13,81.58-129.73,119.54-186.1.21-.33.57-.71.83-1l.13-.16s0-.06.06,0a1.17,1.17,0,0,0,0,.11h1.43c12.07.2,428.62,7.54,428.67,7.48s0,0,.06,0,2.1,9.2,5.31,23.28l.15.65,5.46,24,.15.65c1.67,7.37,3.45,15.2,5.27,23.19.06.21.11.43.15.65,1.81,7.93,3.65,16,5.46,24l.15.65c1.69,7.45,3.36,14.78,5,21.76,0,.21.09.43.14.65,2,8.7,3.84,16.85,5.46,24l.15.65C1128.51,237.72,1130.94,248.39,1130.94,248.41Z"/><path class="cls-4" d="M888.88,90.48c0-.24-.37-.32-.54-.12q-10,11.67-19.86,23.46-22,26.35-42.9,53.38-30.12,38.9-58,79c-.62.89-1.24,1.77-1.84,2.66-.18.25-.35.5-.52.76l2.54.07q49.71.28,99.45.38c0-.27.08-.55.12-.82,5-32.65,10-65.31,14.33-98q2.44-18.49,4.59-37Q887.66,102.4,888.88,90.48Z"/><path class="cls-4" d="M1080.2,98.08c0-.25-.37-.32-.54-.12q-10,11.61-19.77,23.35-21.89,26.25-42.71,53.14-28.63,37-55.21,75.05l-.57.83c32.78-.12,65.57.13,98.36-.11,0-.28.07-.95.11-1.22,4.65-30.13,9.18-60.26,13.17-90.39q2.43-18.41,4.57-36.82Q1079,109.94,1080.2,98.08Z"/><path class="cls-9" d="M866.35,325.17h0L850.76,325l-4.66-.06-17.89-.19h-.08l0,0,0,0h0a.34.34,0,0,0,0,.14q-4.87,19.82-10.34,39.59c-1,3.78-2.1,7.55-3.18,11.32a.14.14,0,0,0,.07.17l.05,0h0l18,.2,4.65.05,15.44.17h.08a.2.2,0,0,0,.12-.13q5.64-19.79,10.7-39.64,1.44-5.67,2.84-11.34A.15.15,0,0,0,866.35,325.17Z"/><path class="cls-9" d="M1028.84,325.63h0l-15.89-.17-4.65,0-17.59-.19h-.06l0,0h0l0,0a0,0,0,0,0,0,0,.27.27,0,0,0,0,.14Q985.6,345.25,980.15,365c-1,3.77-2.1,7.54-3.18,11.32a.13.13,0,0,0,.07.16l.05,0h0l17.66.19,4.65.06,15.82.17h.07a.19.19,0,0,0,.13-.13q5.64-19.8,10.7-39.64,1.44-5.67,2.84-11.34A.16.16,0,0,0,1028.84,325.63Z"/><path class="cls-4" d="M1077.24,513.2a105.74,105.74,0,0,0,5.76-15.73,43.78,43.78,0,0,1,.79-5.29c0-.84.06-1.67.08-2.5,0-.22,0-.44,0-.66q.09-4.27-.11-8.54c-.32-7-1-14.53-5.11-20.46a19,19,0,0,0-1.57-2c-.14-.16-.28-.31-.43-.46a22.93,22.93,0,0,0-15.15-6.5h0l-.63,0a32.59,32.59,0,0,0-11.81,2l-.61.22a55.2,55.2,0,0,0-9.26,4.54,79.59,79.59,0,0,0-17.92,15l-.42.47a107.06,107.06,0,0,0-11.71,16.1,141.38,141.38,0,0,0-7.2,13.74l-.27.6c-5,11-8.85,22.5-12.54,34h74.15C1068.19,529.73,1073.3,521.79,1077.24,513.2Z"/><path class="cls-5" d="M1143.56,425.77q-3.81,11.09-7.64,22.17h0a18.41,18.41,0,0,0,4.73-1c5.94-1.61,11.79-3.68,17.62-5.65q3.29-1.09,6.56-2.24c-.08.24-.16.48-.23.73l-5.3,1.81c-4.87,1.65-9.75,3.28-14.65,4.82-2.77.86-6,2.22-8.9,2l-.54,1.54h-.64l.55-1.62a6.68,6.68,0,0,1-2.37-.84,152.76,152.76,0,0,1-22.58-16.61l-.27-.23c-.29-.26.15-.7.44-.44l.07.06a163.09,163.09,0,0,0,14,11q3.69,2.58,7.51,4.95a9.6,9.6,0,0,0,3.38,1.62l7.67-22.25a9.81,9.81,0,0,1-3.26-1.8c-2.08-1.6-4.12-3.25-6.17-4.89l-12.62-10-.33-.26c-.31-.25.13-.68.44-.44l.22.18,13.44,10.65c2,1.62,4,3.35,6.14,4.84a6.82,6.82,0,0,0,2.36,1.08q3.57-10.33,7.13-20.68-6.39-6.39-12.4-13.14l-.2-.22a.29.29,0,0,1,0-.36.34.34,0,0,1,.27-.18h0a.26.26,0,0,1,.2.1l.29.33Q1143,396,1147.89,401l2.46,2.49.18.18q3.1-9,6.2-18a6,6,0,0,1,.61.13L1152,401.33l-.94,2.73a1.09,1.09,0,0,0,.77,0,8.56,8.56,0,0,0,1.61-.85l6.47-3.42,9-4.74c.1.18.2.36.29.54L1151.32,405a.32.32,0,0,1-.37-.05l-.16-.15-7,20.31a9,9,0,0,0,4.53-.75c4.78-1.94,9.38-4.5,14-6.79q4.67-2.29,9.33-4.63c0,.25-.07.5-.1.74q-6.63,3.31-13.3,6.59l-7.42,3.62a15.55,15.55,0,0,1-6,2A6.27,6.27,0,0,1,1143.56,425.77Z"/><path class="cls-5" d="M824.73,459.64q-9.27,22.65-18.7,45.25-16.63,39.87-33.72,79.54-8.59,20-17.31,39.86c-1,2.39-2.09,4.77-3.13,7.15l-1.63,2.17c1.29-2.92,2.58-5.86,3.86-8.79q4.42-10.1,8.81-20.2,15.71-36.17,31-72.52t30.19-72.63C824.29,459.11,824.89,459.27,824.73,459.64Z"/><path class="cls-7" d="M717.48,672.34c-4.84-2.8-9.56-5.79-14.25-8.81-9.24-5.94-18.43-12-28.24-17a101.37,101.37,0,0,0-32.24-10.19,141.21,141.21,0,0,0-35.34.25c-13.65,1.64-27.08,4.59-40.47,7.62a.31.31,0,0,0,.12.6c21.58-4.87,43.63-9.75,65.91-8.72a100,100,0,0,1,31.56,6.43c9.58,3.72,18.5,8.89,27.18,14.34,4.81,3,9.56,6.14,14.36,9.19,2.43,1.54,4.87,3.08,7.34,4.57l3.48,2.06c1.05.61,3.38,1.39,3.55,2.64-.05-.39-.66-.27-.61.12.11.79,1.22.74,1.48.06C721.88,674.07,718.32,672.82,717.48,672.34Z"/><path class="cls-5" d="M846.1,324.94q-6.54,25.68-13.43,51.32l4.65.05q6.9-25.65,13.44-51.31Z"/><path class="cls-5" d="M1008.29,325.41q-6.57,25.66-13.51,51.31l4.65.06q6.93-25.65,13.51-51.32Z"/><path class="cls-4" d="M710.58,249q-5.79,30-11.21,60.14Q689.67,363,681.2,417.26c-2.45,15.7-6.58,44.28-10.86,74.52l-.82,0c1.7-12.2,3.1-22.18,3.89-27.52q7.9-54.24,17.05-108.18t19.46-107.34C710,248.3,710.67,248.56,710.58,249Z"/><path class="cls-4" d="M710.76,249.36l-.68.22c-9-32.37-20.32-73.32-23.8-86.29q-12.48-46.48-24-93.14H663q5.81,23.48,11.83,46.9C681.53,143.05,698.39,204.7,710.76,249.36Z"/><path class="cls-4" d="M1130.82,249.48c0,.21,0,.43-.08.65-12,.1-32.07,0-44,.11q-39.06.27-78.1.41l-49.93.11H933.27q-23.16,0-46.31-.06-39.33-.08-78.62-.29-33.39-.19-66.75-.47l-31.43-.31a1.26,1.26,0,0,0,0-.64q27.86.28,55.7.49,20.45.15,40.89.27,40.15.23,80.32.3,25.62.08,51.26.06h19.24q25.76,0,51.5-.12,38.87-.13,77.76-.4C1098.76,249.51,1118.87,249.58,1130.82,249.48Z"/><path class="cls-4" d="M1097.54,101.61c-12.3,0-28.91-.22-39.41-.23q-40.23,0-80.43-.21-25.69-.12-51.41-.29l-26.17-.19q-23.83-.18-47.68-.43-40.47-.39-80.94-.92-34.35-.45-68.71-1-16.17-.27-32.35-.56a1.39,1.39,0,0,0,0-.64q28.66.51,57.34.93,21,.33,42.09.6,41.32.54,82.68.94,26.38.27,52.79.47l19.8.14q26.52.18,53,.3,40,.17,80.07.21c10.42,0,26.87.19,39.14.23Z"/><path class="cls-4" d="M1103.15,126.24c-12.23,0-28.39-.21-38.69-.23q-40.23,0-80.43-.21-25.71-.14-51.41-.29l-26.17-.2q-23.84-.16-47.68-.42-40.47-.39-80.94-.92-34.35-.45-68.71-1l-32.35-.56a1.54,1.54,0,0,0,0-.64q28.66.51,57.34.94,21,.32,42.09.59,41.32.54,82.68.94,26.39.27,52.79.47l19.8.14q26.52.18,53,.29,40,.18,80.07.22c10.22,0,26.24.18,38.42.23Z"/><path class="cls-4" d="M1108.57,150.08c-12.1-.06-27.73-.22-37.77-.23q-40.23,0-80.43-.21-25.7-.12-51.41-.29l-26.17-.19q-23.84-.18-47.68-.43-40.47-.39-80.93-.92-34.36-.45-68.72-1-16.17-.27-32.35-.56a1.39,1.39,0,0,0,0-.64q28.67.51,57.34.94l42.09.6q41.33.53,82.68.93,26.38.27,52.79.47l19.8.14q26.52.18,53,.3,40,.16,80.07.21c10,0,25.44.17,37.5.23C1108.48,149.64,1108.53,149.86,1108.57,150.08Z"/><path class="cls-4" d="M1114.18,174.7c-12-.06-27.21-.21-37-.22q-40.23,0-80.43-.21-25.71-.14-51.41-.29l-26.17-.19q-23.83-.18-47.68-.43Q831,173,790.5,172.44q-34.35-.45-68.71-1l-32.35-.56a1.39,1.39,0,0,0,0-.64q28.66.51,57.34.94,21,.31,42.09.59,41.32.54,82.68.95,26.38.27,52.79.46l19.8.14q26.52.18,53,.29,40,.18,80.07.22c9.76,0,24.83.17,36.78.22Z"/><path class="cls-4" d="M1119.27,197.11c-11.79-.07-26.31-.2-35.83-.21q-40.21,0-80.42-.22l-51.41-.28-26.17-.2q-23.85-.18-47.68-.42-40.49-.39-80.94-.92-34.37-.47-68.71-1-16.18-.25-32.35-.56a1.34,1.34,0,0,0,0-.63q28.66.5,57.34.93,21,.32,42.09.6,41.32.54,82.69.94,26.39.27,52.78.46,9.9.09,19.81.14,26.5.18,53,.29,40,.18,80.08.23c9.43,0,23.82.15,35.56.21C1119.18,196.67,1119.22,196.89,1119.27,197.11Z"/><path class="cls-4" d="M1124.88,221.73c-11.66-.06-25.79-.2-35.11-.21q-40.23,0-80.42-.22-25.71-.12-51.41-.28l-26.17-.19q-23.85-.2-47.68-.42-40.49-.39-80.94-.93-34.36-.45-68.71-1-16.19-.25-32.35-.56a1.34,1.34,0,0,0,0-.63q28.67.5,57.34.92,21,.33,42.09.6,41.33.56,82.69.95,26.38.27,52.78.46l19.81.14q26.51.18,53,.3,40,.17,80.08.21c9.24,0,23.23.15,34.83.21Z"/><path class="cls-5" d="M1044,500.31q-5.22,15.53-10.14,31.17c2.19.16,4.43-.56,6.51-1.09q13.88-3.6,27.7-7.34l5.14-1.4.31-.09,0,.06a.9.9,0,0,0-.14.2,1.31,1.31,0,0,0-.12.45l-.26.07-10,2.74q-7.07,1.89-14.14,3.75l-7.67,2a29.45,29.45,0,0,1-6.34,1.27,8,8,0,0,1-1.11-.05c-.59,1.9-1.19,3.81-1.78,5.7h-.66c.6-1.92,1.21-3.86,1.81-5.79-3.09-.58-5.38-2.9-7.66-5.1q-5.51-5.37-11-10.72l-12.75-12.38.27-.6,14.69,14.26c3.5,3.4,7,6.82,10.51,10.2,1.61,1.54,3.34,3.11,5.56,3.66l.59.13c.58-1.83,1.15-3.66,1.73-5.48q4.13-13,8.47-25.84l-.35-.15c-3.4-1.57-5.59-5.09-7.81-7.95l-8.8-11.34-5.68-7.33.42-.47c1.83,2.38,3.67,4.74,5.52,7.12q3.73,4.83,7.49,9.65c2.3,3,4.49,6.59,7.56,8.83a8.55,8.55,0,0,0,1.86,1q6.21-18.45,12.87-36.74a7.31,7.31,0,0,1-2.11-1.62c-2.18-2.43-4-5.24-6-7.85l.61-.22c.14.2.3.4.45.59l3.32,4.38c1,1.38,2,3.05,3.57,4,.12.08.25.14.37.21q2-5.58,4.1-11.14l.63,0q-2.12,5.69-4.18,11.37c2.53,1,5.49.21,8-.63,3.84-1.29,7.64-2.74,11.41-4.24.15.15.29.3.43.46q-3.72,1.45-7.47,2.85c-2.76,1-5.58,2.25-8.54,2.56a8.27,8.27,0,0,1-4-.47q-6.64,18.27-12.85,36.71c2.93.93,6.15.22,9.15-.72,3.86-1.2,7.7-2.5,11.55-3.76l18.94-6.19c0,.22,0,.44,0,.66L1067.44,495c-4.45,1.46-8.88,2.94-13.35,4.36C1050.9,500.42,1047.32,501.39,1044,500.31Z"/><path class="cls-7" d="M1204.48,654.55c0,.21-.09.4-.13.6l-170.07-35.24c-35.74-6.64-71.44-13.7-107.36-19.42-32.46-5.16-67.31-10.48-99.29.08-29.93,9.89-51.45,33.9-71.64,56.89-.26.3-.7-.13-.44-.43q3.75-4.28,7.53-8.52c10.11-11.29,20.65-22.33,32.75-31.52a108.13,108.13,0,0,1,41.48-19.74c32.37-7.37,66.48-1.26,98.68,4.1,36.22,6,72.41,12.41,108.38,19.81,36.46,7.5,68.47,14.42,104.71,21.92C1172.8,648,1182,649.83,1204.48,654.55Z"/><path class="cls-7" d="M744,666.37c-19-24-39.24-49.08-68.61-60.49-31.4-12.21-66.47-8.68-99.16-5.2-36.16,3.85-72.18,9.07-108.22,13.86L350.8,630.1c0-.2,0-.41,0-.61l107.08-14.23c36.4-4.84,72.78-10,109.26-14.19,32.43-3.7,66.81-8,98.76,1a108.08,108.08,0,0,1,40.4,21.85c11.62,9.79,21.57,21.36,31.09,33.16,2.37,3,4.72,5.92,7.08,8.9C744.71,666.28,744.25,666.69,744,666.37Z"/><path class="cls-7" d="M945.71,643.58c-34.53-8.21-71.15-16.37-105.65-3.54-9.9,3.68-19.57,8-29.3,12.08-.36.15-.21.75.16.59,16.64-6.94,33.14-15.09,51.16-17.64,17.79-2.52,35.86-.78,53.42,2.48,10.09,1.88,20.07,4.25,30,6.63C945.94,644.27,946.1,643.67,945.71,643.58Z"/><path class="cls-5" d="M762.39,654a10.31,10.31,0,0,0-5.78-5.09c-5.82-2.23-12.45-.59-17.79,2.18-6.13,3.18-11.17,8.19-15.25,13.7-4.35,5.86-7.75,12.31-11.35,18.64,10.23-.1,27.48-.35,47.35-.66a60.38,60.38,0,0,0,3.94-18.26C763.71,661.11,763.91,657.24,762.39,654Z"/><path class="cls-7" d="M1116.31,678.89l-2.88,0q-8.64-1.93-17.3-3.81Q1040.42,663,984.2,653.47c-.4-.06-.26-.67.13-.6q15.67,2.65,31.33,5.51Q1066.18,667.59,1116.31,678.89Z"/><path class="cls-4" d="M605.23,556.24c13-.39,26.06-.18,39.08-.67,11-.41,21.9-.93,32.86-.69l1.09,0q5-11.92,10-23.87l8.31-19.88.29-.73,18-43,.4-1,.3-.7c4.07-9.67,8.44-19.3,12-29.18A54.67,54.67,0,0,0,731,420.41c0-.22,0-.44,0-.66a31,31,0,0,0-1.32-9.93c-2.39-7.68-8.13-13.93-16.26-15.37-.58-.1-1.18-.18-1.77-.24l-.66,0c-8-.58-16.1,2.82-23,6.54-3,1.65-6,3.39-8.94,5.23l-.53.33a184.09,184.09,0,0,0-34.86,29.12c-.19.2-.39.41-.57.62s-.3.3-.43.45a260.9,260.9,0,0,0-30.81,40.88l-.36.58q-1.34,2.18-2.64,4.36a526,526,0,0,0-25.07,48.46l-.29.61q-1.9,4.15-3.8,8.31-4.25,9.38-8.43,18.79C582.59,557.33,593.87,556.58,605.23,556.24Z"/><path class="cls-4" d="M790.59,463.41a15.52,15.52,0,0,0-12.66-7c-6.29-.15-12.28,2.7-17.72,5.56-20.46,10.74-37.78,26.6-52,44.69-14.5,18.45-26,39.14-35.57,60.5l-.07.18L736.5,597.6c.35-.71,15.76-31.69,16.13-32.38q2.58-4.82,5.15-9.66,5.19-9.79,10.29-19.66c6.78-13.07,13.51-26.19,20-39.43C793,486.33,797.55,473.79,790.59,463.41Z"/><path class="cls-5" d="M635.55,508.52q3,3.38,6.05,6.67a39.48,39.48,0,0,0,5.45,5.21,12.34,12.34,0,0,0,2.51,1.44q-8,16.92-15.67,34h.67q2.66-5.91,5.35-11.8,5.05-11,10.22-22a9.53,9.53,0,0,0,3.7.55c2.91-.15,5.81-1.24,8.6-2l18.75-5.19,15.36-4.24.29-.73-8.66,2.4-18.16,5-9.24,2.55c-3,.85-6.38,2.14-9.58,1.36-.28-.07-.54-.16-.81-.25,7.59-16.12,15.33-32.18,23.1-48.22a15,15,0,0,0,5.63,1,37.58,37.58,0,0,0,7.94-1.22l9.2-2.12q9.19-2.15,18.37-4.37l.59-.15.3-.7q-14.7,3.6-29.46,6.93c-4.27,1-8.4,1.38-12.29.05q6.6-13.64,13.2-27.27l7-14.58c2.16.78,4.69-.08,6.76-.73,3.32-1.05,6.64-2.12,10-3.18q10.17-3.25,20.32-6.55c0-.22,0-.44,0-.66q-7.62,2.47-15.25,4.92l-9.95,3.19c-3,1-6.23,2.44-9.4,2.67a5,5,0,0,1-2.15-.31q8.72-18,17.4-36l-.66,0q-8.65,17.89-17.3,35.8c-2-1.1-2.91-3.59-4-5.71q-2.3-4.28-4.72-8.5-2.85-5-5.88-9.82l-.53.33c1.76,2.81,3.47,5.66,5.14,8.52q2.67,4.59,5.18,9.26c1.15,2.16,2.15,5.27,4.43,6.53l.1.05q-10.12,20.94-20.22,41.89a15.32,15.32,0,0,1-3.26-1.77c-4.17-3-7.11-7.37-10.07-11.48L643.15,436c-.15.15-.3.3-.43.45q7.32,10.2,14.66,20.38c4.21,5.86,8.75,13.35,15.55,16.25q-3.91,8.1-7.82,16.21-7.7,16-15.29,32a18.26,18.26,0,0,1-5.57-4.22c-1.93-2-3.79-4-5.64-6.06q-5.76-6.37-11.18-13-8.16-10-15.52-20.67l-.36.58q6,8.7,12.63,17Q629.67,501.88,635.55,508.52Z"/><path class="cls-5" d="M600.71,548.78c2.58,2.49,5.2,4.94,7.83,7.37l.88,0q-3-2.76-6-5.58-10.1-9.63-19.61-19.82l-.29.61Q591.91,540.28,600.71,548.78Z"/><path class="cls-10" d="M520.09,577.59c-.45-1.07-1.83-1.37-2.83-1.6a22.78,22.78,0,0,0-2.33-.44,8,8,0,0,0-5.73-2.86c-2-1.22-5.58-1-7.37-.66-.59.13-1.19.28-1.79.44a10.6,10.6,0,0,0-6.7-1.27c-4,.63-7.68,3.6-10.24,6.59-1.09.9-7,7-7.93,7.81-4.74,3.84-7.15,5.77-13.23,8.53,1.69.83,3.3,1.89,5,2.69,2.48,1.19,5.06,2.15,7.55,3.35l.14.09c1.14-.36,6.13-3.19,7.12-3.5,2-.65,6.17-.46,8.32-.43a27.81,27.81,0,0,0,11.9-2c2.92-1,7.43-2.8,6.67-6.14-.56-2.41-7.4.66-11.06,1.66-.36-.84-.35-1.31.19-1.88a9.39,9.39,0,0,1,1.73-1.27c1-.67,2.08-1.32,3.06-2.07.57-.45,1.55-1.1,2.36-1.86,2.63-1.78,5.43-3.23,8.73-3.17,1.62,0,3.74,1,5.32.36A1.82,1.82,0,0,0,520.09,577.59Z"/><path class="cls-11" d="M479.88,597.09c-.41-.61-1.54-1-2.16-1.39q-2.09-1.2-4.28-2.21a22.66,22.66,0,0,0-6.21-2.2c-2.39-.3-4.37,1-6.57,1.66-5.73,1.8-11.59-.82-17.4-.68a23.13,23.13,0,0,0-6.73,1.34l-.74.25c-.24.07-.48.16-.72.24-3.29,1.15-6.57,2.33-9.85,3.5a.41.41,0,0,0-.1.72,24.63,24.63,0,0,1-2.43,2.14c-1.07.81-2.57,1.37-3.56,2.26-1.15,1-.17,2.52.56,3.57a24.09,24.09,0,0,0,4.7,4.54q3.23,2.63,6.68,4.94a86.6,86.6,0,0,0,13.26,7.34c2.08.9,3.94,1.36,6.08.42a67.13,67.13,0,0,0,7.25-4.27l.14-.08,6.93-4.17c1.85-1.12,4-2.28,5-4.31.79-1.68.34-3.53.68-5.28a5.45,5.45,0,0,1,.14-.58c.56-1.78,2.42-2.54,3.91-3.38l3.73-2.09C479,598.89,480.7,598.3,479.88,597.09Z"/><path class="cls-10" d="M458.29,536.13a76.22,76.22,0,0,1-4.42-6.28,5.11,5.11,0,0,1-1-.64l.48.36c-.27-.18-.53-.39-.78-.59h0a.54.54,0,0,0,.07.13,2.4,2.4,0,0,0-2.14.91,6.63,6.63,0,0,0-1.28,5.12c.28,2.62,1.37,5.18,2.19,7.67.46,1.39.91,2.8,1.38,4.19.15.44.26,1.17.7,1.45,1.28.81,3.22-1.68,4-2.34,1.31-1.13,3.05-2.31,3.41-4.13C461.28,539.76,459.48,537.77,458.29,536.13Z"/><path class="cls-10" d="M431.36,573c-.42-1-1.6-1.64-2.38-2.26l-4.24-3.39L415.55,560l-4.72-3.77-2.12-1.69-.76-.61c.82-1.16,1.63-2.31,2.46-3.46.23-.32-.26-.69-.49-.37-.82,1.14-1.64,2.3-2.45,3.45-.59-.47-1.08-.61-.72-1.5a.3.3,0,0,0,.56.23c.38-1-1.16-1.34-1.55-.5-.29.59.2,1.23.58,1.62a9.73,9.73,0,0,0,.74.69q-15,21.27-28.17,43.81a.31.31,0,0,0,.21.49l21.05,3.88c2.4.44,5.43,1.58,7.6-.07a18.78,18.78,0,0,0,2.7-2.93l3.51-4.14L427.65,579c1-1.23,2.13-2.42,3.12-3.69A2.15,2.15,0,0,0,431.36,573Z"/><path class="cls-12" d="M485.44,677.73q-1.31-2.28-2.64-4.56l-5.4,4a40.66,40.66,0,0,1-5.67,4.05c-3.67,1.8-6.34-2.41-8.87-4.38-7.34-5.7-16.78-8.19-26-8.35-8.73-.15-17.34,1.64-25.7,4l-.73.2-1.73.51a259,259,0,0,0-26.51,9.52c-8.34,3.5-16.31,7.65-24.43,11.61-7.78,3.8-15.72,6.74-24.42,7.37-9.74.7-19.6.51-29.36.7s-19.32.36-29,.54q-29.75.55-59.48,1.11a.39.39,0,0,1-.37-.28c-3.52-15.4-6.91-31.75-.59-46.91,4.79-11.48,13.65-20.72,23-28.67a243.48,243.48,0,0,1,32.08-23A254.41,254.41,0,0,1,329.07,579a72.29,72.29,0,0,1,13.61-3.6l1.15-.27a.33.33,0,0,1,.31.06,52.93,52.93,0,0,1,12.9-.16c7.63.85,15.08,2.86,22.53,4.64,7.9,1.87,33.73,9.76,38.21,10.63,5.11,1,10.3,1.59,15.39,2.7,1.46.32,2.87.71,4.25,1.16h0c.26.07.51.17.76.26a32.73,32.73,0,0,1,14.54,10c5,6,8.16,13.21,10.59,20.56,2.9,8.82,4.89,18,8.66,26.5A203.41,203.41,0,0,0,483,672.05l.27-.2c.39-.28.92.27.53.56l-.41.3c.9,1.55,1.81,3.1,2.7,4.65A.39.39,0,0,1,485.44,677.73Z"/><path class="cls-10" d="M128.25,764.31q-39.81-6.24-80.07-9.06c-2-.14-4-.29-6-.4-1.48-.07-1.69,1-2.53,2.22l-5.33,7.53-.82,0c-.49,0-.44.75,0,.76h.25l-.85,1.2c-.28.4.29.91.58.5l1.17-1.66c6,.4,11.87,2.67,17.61,4.16q9.18,2.4,18.44,4.49c12.33,2.82,24.74,5.32,37.17,7.69q5.65,1.1,11.33,2.14-2.48,5.61-4.94,11.22c-.2.45.49.79.68.34q2.51-5.71,5-11.41l7.42,1.38a.36.36,0,0,0,.36.52l1.44-.2a.38.38,0,0,0,0-.75l-8.95-1.67q4.06-9.22,8.18-18.43A.39.39,0,0,0,128.25,764.31Z"/><path class="cls-10" d="M552.88,602.84a6.13,6.13,0,0,0,.44-2.76c-.13-1.83-1-3.65-2.8-3.57a4,4,0,0,0-.6-2.22,2.34,2.34,0,0,0-1.6-1,4.19,4.19,0,0,0-4.19,1.53c.15-.4.29-.79.42-1.19.6-1.82.74-4.68-1.62-5.29-2.9-.74-5.43,3-6.87,4.81-.46.58-5.86,7.21-7.08,8.28A41.13,41.13,0,0,1,534.15,590c.91-1.43,2.6-4.16,1.63-6-.67-1.26-2.15-.74-3-.07a23.59,23.59,0,0,0-4.72,5.66,53.64,53.64,0,0,0-4.63,7.77c-2.37,5.33-1.17,11.45-1.76,17.14A46.57,46.57,0,0,1,516.14,632h0c-.3,0-.4.31-.29.55-.34.61-.69,1.22-1.06,1.81a.36.36,0,1,0,.59.4c.4-.63.78-1.28,1.14-1.93a39.23,39.23,0,0,1,13.68,4.8.33.33,0,0,0,.48-.12c2.91-5.18,2.63-7.95,6.15-12.65,1.82-1.24,13.07-9.3,15.45-11.69,1.73-1.75,4.08-4.24,4.13-6.8S555,603,552.88,602.84Z"/><path class="cls-5" d="M293.21,669.11c-2.55,8.59-5.65,17.06-8.58,25.53q-4.31,12.43-8.79,24.83-9.16,25.18-19.11,50.09c-5.38,13.49-11.05,27.27-20.4,38.57-7.81,9.45-21.21,20.13-34.34,15.4-1.75-.62-26.77-7.09-37.33-10.42-11.19-3.52-22.24-7.49-33.3-11.39-22.43-7.91-45.14-15.56-68.86-18.47a.4.4,0,0,1-.27-.56q5-10.91,9.9-21.82c2.37-5.22,4.58-10.61,7.59-15.52l.44-.72c.23-.37.48-.74.73-1.1,2.79-4.14,6.48-11.24,11-13.35,4.86-2.24,10.14,1,15.4,1.54,12.24,1.34,23.66,6.38,36.14,6,13.05-.42,25.88-4.05,38.91-1.29a67.47,67.47,0,0,1,12.13,3.88.25.25,0,0,0,0-.08c1.38-8.83,2.9-17.63,4.42-26.43,1.42-8.2,2.84-16.4,5-24.44A96.47,96.47,0,0,1,219.13,657c13.57,1.19,27.13-.46,40.68-1.29,6.13-.37,13-1.16,19,.07,5.05,1.05,9.79,2.78,14.81,3.65C294.72,662.58,294.15,665.93,293.21,669.11Z"/><path class="cls-5" d="M410.57,755.14c-1.14,9.38-7.49,17.4-15.39,22.22-9.07,5.54-19.85,7.45-30.28,8.58-25.35,2.77-50.93.15-76.25-1.78l-23.11-1.77-13.08-1-.38,0-.43,0-40.09-3.06a.39.39,0,0,1-.32-.59l20.18-39.38,35.83-69.94c1.47-2.88,2.9-5.77,4.41-8.62.92-1.73,2-3.61,3.8-4.61s3.85-.66,5.79-.1c3.06.89,6.12,1.79,9.2,2.58a241.35,241.35,0,0,0,34.76,6.32l.1-.2c.22-.4.77-.1.69.29l2.54.26a.38.38,0,0,1,.17.72l-4.3,3a17.59,17.59,0,0,0-.59,3.92c-.41,11.65,6.45,20.93,15.59,26.71,10.23,6.47,23.11,11.33,33.7,17.2,9.14,5.06,19,9.68,27,16.52C406.85,738.07,411.69,746,410.57,755.14Z"/><path class="cls-13" d="M324.78,666.8a15.25,15.25,0,0,1,.87-2l1.81.18Z"/><path class="cls-10" d="M456.52,559c-1.16-13.34-2-26.75-3.51-40.06-.54-4.81-1.43-9.89-4.2-14s-7.15-6.21-12-6.86c-6.3-.85-13.05.22-19.15,1.8A66.34,66.34,0,0,0,404.28,505a.35.35,0,0,0-.43-.12,12.81,12.81,0,0,0-3.49,2.27c-.46.27-.93.54-1.38.82a.36.36,0,0,0,0,.61c-5,5.92-5.61,15.94-5.38,22.91.41,12.29,4.37,24,8.08,35.64,1.83,5.73,3.59,11.48,4.88,17.34l-5.24.57c-.43,0-.46.74,0,.69l5.41-.59c.16.79.33,1.57.47,2.36.09.44.75.27.67-.16-.14-.76-.3-1.52-.46-2.27l14.84-1.62c6.53-.71,13.08-1.35,19.52-2.67,5-1,11.09-2,13.65-7C457.72,569.24,456.94,563.79,456.52,559Z"/><path class="cls-12" d="M533.31,648.25c-1.15-1.68-2.2-3.31-2-5.45.19-2,1.23-3.81,1.77-5.7.26-.92.81-3,.15-3.87-.3-.4-1.18-.53-1.6-.68-1-.37-2.08-.72-3.12-1.06a126.91,126.91,0,0,0-13.81-3.63.42.42,0,0,0-.49.37.31.31,0,0,0-.34.19q-1.07,2.21-2.17,4.41c-.73,1.45-1.43,3.53-3,4.35s-3.35.34-5,.33a10.09,10.09,0,0,0-3.49.56c-5,1.76-8.62,6.64-12.5,10.06-6.17,5.45-10.44,7.14-18.29,9.44-.46-3-1.47-5.94-4.06-7.7-2.1-1.43-4.79-1.8-7.23-2.18a65.35,65.35,0,0,0-10-.74c-12.88,0-25.65,3.3-37.85,7.2-5.66,1.81-11.26,4.12-15.5,8.42a.39.39,0,0,0,.07.61,242.11,242.11,0,0,1,20.87,13.36c6.56,4.87,12.61,10.37,19,15.42a181,181,0,0,0,19.59,13.43c6.39,3.79,13.15,8.17,20.88,7.63,7.05-.49,14.44-3,20.73-6.2a49.81,49.81,0,0,0,16.18-13.42c4.85-5.93,9.35-12.23,13.65-18.57s5.52-10,8.44-17.13A8.92,8.92,0,0,0,533.31,648.25Z"/><path class="cls-5" d="M65.05,753.79a60.89,60.89,0,0,1-11.73-1.37,81.23,81.23,0,0,1-11.89-3.95c-2.45-1-5-1.1-7,.84-1.24,1.2-12.44,17.36-18.28,23C10,778.35,2.05,784.11.27,793.1c-.24,1.22-.61,2.8.37,3.8s3.18.87,4.55.69c4.43-.59,8.28-3.25,11.69-6,4.17-3.34,8.18-6.89,12.28-10.32,3.88-3.25,8-6.49,12.79-8.23a24.38,24.38,0,0,1,9.72-1.4c2.34.15,3.31.49,4.56-1.63,3.07-5.19,6.07-10.42,9.09-15.63A.39.39,0,0,0,65.05,753.79Z"/><path class="cls-4" d="M312.16,719.92a82.93,82.93,0,0,0-22.25,11,109,109,0,0,0-16.6,14.18,76.19,76.19,0,0,0-13.61,19.78c-2.66,5.39-5.09,10.9-7.24,16.51l-.81-.06a191.32,191.32,0,0,1,9.15-20.28A74.15,74.15,0,0,1,275,742.31C285.48,732,297.89,723.6,312,719.18,312.43,719,312.63,719.78,312.16,719.92Z"/><path class="cls-4" d="M229.65,665.38a145.29,145.29,0,0,0-10.72,23.84c-2.68,7.82-4.62,15.85-6.55,23.88-1.74,7.2-3.49,14.41-5.82,21.45-2.06,6.2-4.4,12.66-8.38,17.9-7.91,10.42-21.71,11.76-33.7,9.51-7.42-1.38-14.56-3.89-21.84-5.84-7.46-2-15-3.66-22.64-5-13.35-2.45-26.81-4.15-40.28-5.72l.44-.72c14.36,1.69,28.73,3.51,42.94,6.24,7.47,1.44,14.91,3.13,22.24,5.19,7,2,13.91,4.32,21.09,5.47,6.68,1.07,13.68,1,20.08-1.39,6.62-2.46,11.25-7.39,14.41-13.59,6.58-12.91,9.14-27.64,12.65-41.57A161.09,161.09,0,0,1,229,665,.38.38,0,0,1,229.65,665.38Z"/><path class="cls-12" d="M356.48,678.6c-1.18,5.2-2.68,11.16-6.2,15.33-3,3.55-7.68,5.36-12.12,3.47a26.78,26.78,0,0,1-6.46-4.53c-2.45-2.07-5-4-7.65-5.85a110.86,110.86,0,0,0-32.58-14.94,147.17,147.17,0,0,0-29.23-5l-1.37-.1c-16.37-1.09-32.94.07-49.19,2v0l-.8,0c.05-.15.09-.31.14-.46a.33.33,0,0,1,0-.14c.36-1,.75-2.09,1.2-3.1,4.73-10.55,13.94-18,23.39-24.23,5.29-3.46,10.68-6.86,16.23-9.91a75.93,75.93,0,0,1,17.26-6.81c12.27-3.27,25.28-6.16,38-4,11.69,2,22.44,7.72,31.74,14.91a77.64,77.64,0,0,1,8.13,7.14l.67.71c4.8,5.1,8.52,11,9.69,18.22A45.74,45.74,0,0,1,356.48,678.6Z"/><path class="cls-1" d="M465,509.26c-1.76-2.4-4.46-3.82-6.77-5.62-2.75-2.13-4.05-5.08-6.14-7.76-2.42-3.11-7.32-3.89-9.07-3.66-8.13,1.06-16.25-.87-24.38-.1-5.59.52-11.55,2.37-15.27,6.81-2,2.4-2.73,5.69-4.91,7.93-1.41,1.45-3.39,1.74-5.2,2.4a24.43,24.43,0,0,0-3.84,1.8,26.27,26.27,0,0,0-11.15,13,19.19,19.19,0,0,0-1.58,8.86c.29,2.6,2,4.43,3.79,6.18a16.77,16.77,0,0,1,3,3.45c.94,1.63.75,3.52,1.52,5.2,1.11,2.46,3.51,4,5.6,5.49a22.94,22.94,0,0,1,4,3.59c1.33,1.56,2.84,4.82,4,6.47a3.79,3.79,0,0,0,2.63,1.43c2.19.56,9.69,1.18,11.64,1.68,1.59.39,3.41,1.15,5.07,1a4.77,4.77,0,0,0,2.91-1.69,24,24,0,0,1,4.69-3.64,58.09,58.09,0,0,1,6.35-3.06,11.34,11.34,0,0,0,2.3-3.94c1.05-3.16,1.76-6,4.53-8.13,1.46-1.11,3.17-1.76,4.67-2.79,1.95-1.34,2.43-3.22,2.63-5.47.27-2.92.83-6.41,10-9.68a21.29,21.29,0,0,0,8.44-5.94A11.38,11.38,0,0,0,465,509.26Z"/><path class="cls-14" d="M513.23,574.77a14.19,14.19,0,0,0-12,2.6c-.39.3.11.89.5.58A13.34,13.34,0,0,1,513,575.49C513.45,575.6,513.71,574.88,513.23,574.77Z"/><path class="cls-14" d="M498.82,573a21.61,21.61,0,0,0-4.19,1.58c-.44.22-.05.88.39.66a20.28,20.28,0,0,1,4-1.5A.38.38,0,0,0,498.82,573Z"/><path class="cls-14" d="M543.2,594.88c-.62.88-1.21,1.78-1.76,2.7-.26.42.4.81.66.39.55-.92,1.14-1.83,1.76-2.7C544.14,594.86,543.48,594.48,543.2,594.88Z"/><path class="cls-14" d="M549.33,596.92a29,29,0,0,1-3,3.63.38.38,0,0,0,.54.54A29.17,29.17,0,0,0,550,597.3C550.27,596.9,549.61,596.51,549.33,596.92Z"/><path class="cls-14" d="M551.69,602.72c-.79.91-1.6,1.81-2.44,2.68-.34.35.2.9.55.54.83-.87,1.64-1.77,2.43-2.68C552.55,602.89,552,602.34,551.69,602.72Z"/><path class="cls-5" d="M428.75,540.08c-6.36,0-12.24,2.64-18.31,4.19-6.45,1.64-13.19,2.4-19.62.26-.47-.16-.67.58-.2.74,5.87,2,12.05,1.54,18,.22,6.71-1.49,13.17-4.58,20.13-4.64A.39.39,0,0,0,428.75,540.08Z"/><path class="cls-5" d="M425.38,549.77a23.65,23.65,0,0,1-19.53,5c-.48-.1-.69.64-.21.74a24.46,24.46,0,0,0,20.28-5.23C426.3,550,425.76,549.46,425.38,549.77Z"/><path class="cls-5" d="M478.93,663.51a.38.38,0,0,0-.54.54,51.56,51.56,0,0,1,14.8,31.35c.05.48.82.49.77,0A52.36,52.36,0,0,0,478.93,663.51Z"/><path class="cls-5" d="M437.72,595c-9.26-1.5-18.68,2-25.48,8.35-13.12,12.16-14.3,32-9.73,48.23a105.13,105.13,0,0,0,8.69,20.9l-.73.2c-.16-.26-.29-.52-.43-.79-8.4-16-14.26-34.88-8.45-52.79,4.9-15.1,19.36-27.28,35.83-24.91h0a4.46,4.46,0,0,1,.51.07.29.29,0,0,1,.25.19A.41.41,0,0,1,437.72,595Z"/><path class="cls-5" d="M399.53,636.49c-11.89,2.06-23.89,3.46-35.88,4.8-5.32.59-10.66,1.18-16,1.81-15.4,1.81-30.74,4-45.76,8a163.63,163.63,0,0,0-28.37,10.08c-3.79,1.79-7.63,3.73-11.3,5.93l-1.37-.1a124.76,124.76,0,0,1,15.06-7.76c22.59-10,46.73-13.92,71.07-16.82,17.5-2.08,35.1-3.66,52.33-6.64C399.81,635.67,400,636.41,399.53,636.49Z"/><path class="cls-11" d="M419.62,583.18c-5.93-3.26-14.46-5.21-21-6.9-2.78-.71-5.12-2.13-7.95-.77-1.39.67-2.36,2.12-3.38,3.17-1.42,1.47-2.9,2.88-4.42,4.26l0-.05c-.26-.42-1,0-.7.39l.24.36a.38.38,0,0,0,.14.21c3.36,4.92,8.82,6.53,14.74,7.55,3.66.62,7.36,1.06,11.06,1.41,1.83.17,3.67.31,5.51.45,1.58.12,3.95.7,5.48.37a1.44,1.44,0,0,0,1.13-.91,36.38,36.38,0,0,0,2.06-4.76C423.41,585.42,421.82,584.38,419.62,583.18Z"/><path class="cls-7" d="M1159.69,719.53q-64.61.48-129.23.66t-129.23,0q-36.26-.08-72.52-.25c-.4,0-.37.62,0,.62q64.62.3,129.23.3t129.23-.31q36.25-.18,72.52-.45C1160.12,720.14,1160.09,719.52,1159.69,719.53Z"/></svg>