<svg id="Layer_1" data-name="Layer 1" xmlns="http://www.w3.org/2000/svg" viewBox="0 0 1429.76 925.49"><defs><style>.cls-1{fill:#3ba09c;}.cls-2{fill:#fd9c55;}.cls-3{fill:#3e107a;}.cls-4{fill:#a4eae6;}.cls-5{fill:#9083de;}.cls-6{fill:#48607a;}.cls-7{fill:#44ea93;}.cls-8{fill:#c77438;}.cls-9{fill:#fff;}.cls-10{fill:#f4e9e6;}.cls-11{fill:#49d3cd;}.cls-12{fill:#f0c9b6;}.cls-13{fill:#681bb9;}.cls-14{fill:#8f36dd;}.cls-15{fill:#92a7f7;}</style></defs><path class="cls-1" d="M802.84,22a22.83,22.83,0,0,0-5,.78.32.32,0,0,0-.58.16,26.39,26.39,0,0,0-3.09,1.17c-.36.17,0,.7.32.54a21.34,21.34,0,0,1,2.71-1.05,10.43,10.43,0,0,1-.17,1.12.35.35,0,0,0,0,.18q-3.1,15.89-7,31.61l-1.26.05c-.4,0-.4.64,0,.62a56.1,56.1,0,0,1,8.6.22.31.31,0,0,0,.3-.23l5.45-34.78A.31.31,0,0,0,802.84,22Z"/><path class="cls-1" d="M840.21,27.88a22.83,22.83,0,0,0-5-.95.31.31,0,0,0-.59,0,22.9,22.9,0,0,0-3.31.07c-.39,0-.28.64.12.6a23.61,23.61,0,0,1,2.91-.07c-.17.34-.34.67-.54,1a.3.3,0,0,0,0,.18q-8.26,13.9-17.17,27.43l-1.21-.37c-.38-.12-.59.47-.21.58a57.36,57.36,0,0,1,8,3.09.3.3,0,0,0,.36-.11l16.8-30.94A.31.31,0,0,0,840.21,27.88Z"/><path class="cls-1" d="M861.79,56.24l-4.24,1.61c0-1.29,0-2.58,0-3.87,0-.37-.61-.4-.62,0q0,2.07,0,4.14l-15.86,6-5,1.9c-1.49.57-3.44,1-4.72,1.91a2.37,2.37,0,0,0-.92,2.12c-.08,1.84,0,3.7-.05,5.54a.33.33,0,0,0,.39.29l22.51-7.07a14.86,14.86,0,0,0,3.88-1.35c1-.72.87-1.8.76-2.91-.2-2-.32-4.07-.38-6.1l4.53-1.72C862.45,56.61,862.14,56.1,861.79,56.24Z"/><path class="cls-2" d="M858.58,435.48a91.83,91.83,0,0,0-15.36-15.79c-.68-.54-1.37-1.07-2.08-1.59-1.56-1.15-3.17-2.23-4.81-3.24-1.85-1.14-3.83-2.22-5.17-4-1.52-2-1.78-4.59-2-7-.2-1.85.28-35.24.84-58.23-8.34,3-16.73,5.8-25.23,8.28-11.47,3.35-23.48,6.29-35.48,7.22,9,26.26,26.7,71.36,29,75.51a61.4,61.4,0,0,0,3.62,5.79,108.4,108.4,0,0,0,17.54,18.72c6.89,6,14.14,11.63,21.24,17.39q12.12,9.82,24,19.89,17.93,15.07,35.39,30.69c3.51-4.83,3-4.26,6.5-9.07C896.67,507.68,869.94,450.15,858.58,435.48Z"/><path class="cls-1" d="M858.58,435.48a91.83,91.83,0,0,0-15.36-15.79,56.51,56.51,0,0,0-19-.8c-7,.94-14.47,3.26-19.85,8a20.86,20.86,0,0,0-6.13,9.76,61.4,61.4,0,0,0,3.62,5.79,108.4,108.4,0,0,0,17.54,18.72c6.89,6,14.14,11.63,21.24,17.39q12.12,9.82,24,19.89,17.93,15.07,35.39,30.69c3.51-4.83,3-4.26,6.5-9.07C896.67,507.68,869.94,450.15,858.58,435.48Z"/><rect class="cls-3" x="412.51" y="130.3" width="654.41" height="6.2" transform="translate(2.62 280.57) rotate(-21.51)"/><path class="cls-2" d="M780.79,66.92c1-3.39,2-7.21,4.67-9.5a9.84,9.84,0,0,1,7.79-2.14c-.24.17-.19.66.18.66,6.8.1,12.15,5.28,15.76,11.07,10.82,17.31,11.45,38.75,9,57.8a.61.61,0,0,0,0,.14c-1.29.25-6-.47-6.58-.54l-6.23-.74-12.81-1.51c-3.77-.45-7.62-.68-11.35-1.44-4.25-.85-8.09-3.39-8.1-8.32,0-7.84,1.21-15.84,2.52-23.45A187.94,187.94,0,0,1,780.79,66.92Z"/><path class="cls-2" d="M789.69,94.72q1.92,34.61,3.86,69.21a.41.41,0,0,0,.3.36l27,5.3a.36.36,0,0,0,.42-.39q-1.78-37.62-3.59-75.23l.16,0c.46,0,.4-.73-.07-.78h-.13l-.1-2.09a.36.36,0,1,0-.72,0c0,.67.06,1.34.1,2a100.18,100.18,0,0,0-27,1.2A.36.36,0,0,0,789.69,94.72Z"/><path class="cls-2" d="M853,165.63c-1.3-5.65-4.41-10.41-9.27-13.16a30.12,30.12,0,0,0-5.51-2.37,105.24,105.24,0,0,0-12.64-2.77,293.47,293.47,0,0,0-42.07-4.94,99,99,0,0,0-14.7.09c-7.26.79-14,3.3-18,10.18a16,16,0,0,0-1.13,2.41c-.24-.91-.48-1.81-.73-2.72a.31.31,0,1,0-.58.21c.34,1.19.65,2.38.94,3.58a17.55,17.55,0,0,0-.7,3.74c0,.43.58.58.61.16a17.74,17.74,0,0,1,.4-2.56c3.18,14,3.23,28.2,3.43,42.24a326.94,326.94,0,0,0,3.84,47.36,204.59,204.59,0,0,0,4.51,22.37c.77,2.78,1.92,5.61,4.06,7.55a15.12,15.12,0,0,0,7.15,3.28,138.1,138.1,0,0,0,20.71,2.88q5.42.38,10.81.38c2.55,0,6,.52,8-1.32a3.92,3.92,0,0,0,.55-.6,12.8,12.8,0,0,0,1.47-2.67c.86-1.82,1.7-3.63,2.56-5.46,1.6-3.44,3.22-6.89,4.82-10.33q4.83-10.35,9.67-20.68c5.89-12.6,12.17-25.09,16.77-38.44a111.35,111.35,0,0,0,5-19.57c.07-.49.15-1,.22-1.49C854,177.33,854.35,171.39,853,165.63Z"/><path class="cls-2" d="M710.87,440.06l.11.16c15.69-12,15.26,44.33,19.16,38.81,12-16.9,8.45-29.26,12-37.91,6-13,9.32-15.42,13.6-21.63,28.48-41.42,47.58-122.62,50.27-139.9.44-2.8-22.7,1.86-22.36-.95a11,11,0,0,0-.35-5.31c-1.59-4-6.89-2.92-10.23-2.43-9.63,1.44-18.52,5.84-26.47,11.33A140.49,140.49,0,0,0,733.08,293q-3.18,2.81-6.25,5.72l-.11.1c.13-.62.25-1.25.37-1.87.09-.43-.58-.51-.67-.09-.19,1-.38,1.95-.58,2.92-.73.8-1.63,1.71-2.13,1.69s-1.35-1.47-1.53-1.9a4.4,4.4,0,0,1-.21-2.41.34.34,0,0,0-.67-.09,5,5,0,0,0,2.38,5.16.36.36,0,0,0,.41,0c.52-.49,5.11.15,5.64-.35-3.55,17.83-13.77,69.24-17.22,87.09-1.75,9.06-3.48,18.17-4.1,27.39a93.22,93.22,0,0,0,0,13.37C708.71,433.18,709,437,710.87,440.06Z"/><path class="cls-2" d="M927,109.65c-2-10.25-3.3-20.6-4.66-30.95l-6.12.59c-4,.4-7.87.89-11.8,1.36.51,7,.71,14,.6,21q-.18,11-1.38,21.9c-.7,6.4-2.15,12.86-2,19.32a22.43,22.43,0,0,0,1.77,8.78c1.39,3.1,4.46,5.62,4.9,9.09-28.13-5.88-41.44-6.65-69.93-10.45.93,6.84,1.66,13.74,2.5,20.62.11.94.23,1.88.35,2.82,0,.36.19,1.45.27,2q.54,3.9,1.06,7.81c.11.78.21,1.56.32,2.34,19.6,2.56,67.1,2.1,78.65,2.12,4,0,8.9.58,12.46-1.61,3.76-2.31,3.53-7,3.52-10.92C937.41,153.08,931.16,131.44,927,109.65Z"/><path class="cls-2" d="M927.35,67.82c-.7-4.76-2.61-9.5-4-14.11a8,8,0,0,0-1.7-2.31c-1.71-1.15-3.8,0-5.21,1.17a4.39,4.39,0,0,0-2.25-.37,7.1,7.1,0,0,0-4,2.27,4.66,4.66,0,0,0-1.38.08,8.61,8.61,0,0,0-5,3.46l-.3,0c-2.78-.11-4.54,1.41-5.62,3.86a13.58,13.58,0,0,0-1.34,4.22c0,.51,0,.77.58.91a4.64,4.64,0,0,0,1.79-.32c.46-.1.92-.22,1.38-.34a39.68,39.68,0,0,1-1.55,6.23h0l-3,1.46c-.72.35-1.55.67-1.51,1.61,0,1.14,1.16,2.47,1.78,3.35a22.58,22.58,0,0,0,2.86,3.32.24.24,0,0,0,.08.06c1.07,1.47,2.37,2.86,3.42,4.21l5.39,6.91a.32.32,0,0,0,.27.5h.11l.26.33a.35.35,0,0,0,.64-.17v-.2a37.21,37.21,0,0,0,12.59-2.43c1.64-.69,1.54-1.79,1.74-3.41a54.66,54.66,0,0,1,1.49-7.71C926,76.19,928,72.24,927.35,67.82Z"/><path class="cls-1" d="M850.33,175.37q-5.43-12.93-12.08-25.27a105.24,105.24,0,0,0-12.64-2.77,293.47,293.47,0,0,0-42.07-4.94,99,99,0,0,0-14.7.09L775,156.54c2.38,5.48,5.81,11.37,5.22,17.55-.3,3.2-1.38,6.28-1.88,9.46a52.94,52.94,0,0,0-.61,8.34,178.09,178.09,0,0,0,1.4,18.17,177.53,177.53,0,0,1-.13,37.09,26.73,26.73,0,0,0-.2,7.68c.46,2.49,2,4.31,3.42,6.28,3.18,4.23,4.29,9.47,6.68,14.11,2.12,4.1,6.2,8.34,11.18,8.18,2.61-.09,4.64-1.61,6.9-2.71a6.14,6.14,0,0,1,4.42-.72,4.46,4.46,0,0,1,1.77.91c-.13.25-.27.49-.41.74a12.8,12.8,0,0,0,1.47-2.67c.86-1.82,1.7-3.63,2.56-5.46,1.6-3.44,3.22-6.89,4.82-10.33q4.83-10.35,9.67-20.68c5.89-12.6,12.17-25.09,16.77-38.44a111.35,111.35,0,0,0,5-19.57c.07-.49.15-1,.22-1.49A55.81,55.81,0,0,0,850.33,175.37Z"/><path class="cls-4" d="M872.64,346.45a73.79,73.79,0,0,0-9.36-14.59c-7.44-9.28-16.38-17.18-24.55-25.79a165.34,165.34,0,0,1-13.1-15.6q-3-4.07-5.74-8.3c-1.25-1.92-2.42-5.19-4.91-5.74a21.55,21.55,0,0,0-4.25-.17l-5.82-.11-10.73-.2c-7.27-.13-14.53-.31-21.8-.32a195.36,195.36,0,0,0-23.94,1.2c-6.37.78-13.29,1.71-18.27,6.15-.29.26.15.7.44.43a16.84,16.84,0,0,1,1.34-1.06q-7.68,34.75-13.11,69.95-1.56,10.05-2.92,20.11a.32.32,0,0,0,.3.39c5.57.42,10.87-1.28,16.15-2.81a76.64,76.64,0,0,1,17.26-3.09c11.39-.65,22.65,1.61,33.9,3.07,10.87,1.41,21.7,1.77,32.35-1.22,9.64-2.7,18.6-7.27,27.76-11.2a102.16,102.16,0,0,1,16.61-5.8c1.33-.32,2.67-.59,4-.82,1-.17,5.77-.6,7.08-.77.69-.09,1.69-.16,2.07-.85C873.87,348.46,873,347.19,872.64,346.45Z"/><ellipse class="cls-3" cx="740.66" cy="241.58" rx="92.91" ry="72.04" transform="translate(331.12 904.32) rotate(-76.35)"/><path class="cls-1" d="M668.69,532.94c3.94,1,7.9.26,11.72-.9,4.09-1.25,37.92-35.59,42.93-42.09,5.47-7.08,9-11.58,10.36-20.37.72-4.69,3.34-20.85,2.27-34.33-1.3-16.36-3.64-25-7.76-31.93-3.39-5.7-10.1-9-16.68-6.44a9,9,0,0,0-1,.48c-1.57,5.72-2.91,11.51-4.4,17.23q-7.4,28.31-16.23,56.23-9.84,31.13-21.43,61.66A.33.33,0,0,0,668.69,532.94Z"/><path class="cls-1" d="M837.74,86.55A104.93,104.93,0,0,1,829.15,110a41.46,41.46,0,0,1-3.4,5.36c-.86,1.14-3.71,4.14-3.71,4.14s-4.93-4.36-6.72-5.14a35,35,0,0,0-11.9-2.93,45.74,45.74,0,0,1-16.13,3c-1,0-2,0-3-.07l-.84-.05a55.21,55.21,0,0,1-21.3-6A.27.27,0,0,1,762,108a260.39,260.39,0,0,0,8.23-25c.57-2.07,1.14-4.2,1.77-6.33a33.54,33.54,0,0,0,6.69,1.66c5.66.83,12.51.14,15.6-5.35a.5.5,0,0,0-.18-.67c-4.36-2.18-10-2.34-14.77-2a35.28,35.28,0,0,0-5.58.78,49.93,49.93,0,0,1,5.31-11.18c.15-.24.31-.48.48-.71a27.88,27.88,0,0,1,7.12-7.17c9.64-6.61,21.51-7,35.89-1.92l2.23.65A52.68,52.68,0,0,1,831.69,53c3.48,1.58,5.44,4.86,6.55,8.38C840.8,69.55,839.79,78.42,837.74,86.55Z"/><path class="cls-5" d="M878.86,23.14A60.44,60.44,0,0,0,846.55,2.48C833.24-1,821.62-.86,808.47,3c-45.27,13.42-47.86,38.1-42.59,41.34,4.6,2.83,25.09-11.72,40.27-13.66,13.53-1.72,28,1.42,36.44,12.95,8.6,11.8,9,27.14,6.38,41-.74,3.91-1.7,7.77-2.75,11.61-.89,3.29-2.11,6.56-2.61,9.93-.34,2.25-.44,4.78.61,6.87a5.38,5.38,0,0,0,5.66,2.83c3.13-.44,5.89-2.68,8.38-4.48s5-3.81,7.38-5.9a87,87,0,0,0,12.87-14c7.25-10,12.17-21.82,12.39-34.25S886.51,32.77,878.86,23.14Z"/><path class="cls-5" d="M792.05,218.56c-1.18-7.65-5.86-13.79-8.25-21-1.19-3.61-1.11-7.41-2.13-11-.92-3.32-3.16-5.88-5.71-8.11A30.82,30.82,0,0,0,764.58,172c-6.57-2.69-14.61-2.72-21.15-1.31-11.69,2.53-22.6,10-28.31,20.62a34.1,34.1,0,0,0-3.14,8.16c-1,4-1.23,8.09-2,12.11-1.46,7.47-5.78,13.12-10.29,19a57.31,57.31,0,0,0-5.87,8.93,54.48,54.48,0,0,0-3.89,11.09c-1.63,6.47-2.89,13.15-2.63,19.85.24,6.2,1.94,12.43,6.09,17.18a44.78,44.78,0,0,0,7.92,6.6,63.52,63.52,0,0,1,8.81,7.65,41.91,41.91,0,0,0,7.63,6.7,22.52,22.52,0,0,0,8.5,3.1,29.85,29.85,0,0,0,18.07-3.29c12.15-6.34,18.61-19.69,22.21-32.3,1.15-4.06,2.08-8.22,3.89-12a44.85,44.85,0,0,1,6-9c4.27-5.25,9.19-10.1,12.36-16.14A33,33,0,0,0,792.05,218.56Zm-20.2-15.22c.54,5.56,2.36,11,2.26,16.59a25.24,25.24,0,0,1-5.8,15.54c-3.09,3.71-7.12,6.47-10.36,10a23.85,23.85,0,0,0-5.77,12.68c-.83,5.08-.95,10.28-2.54,15.21-3.06,9.47-11.14,19.09-21.26,21.18-11.44,2.37-18.8-9.27-21.41-18.77A40.13,40.13,0,0,1,710.43,246c2.53-4.54,6.11-8.39,8.61-12.94s3.21-9.45,3.44-14.53c.25-5.48.11-11.11,2-16.34a30.66,30.66,0,0,1,8.85-12.34,55.66,55.66,0,0,1,14-8.52c2.23-1,4.53-1.82,6.78-2.77a31,31,0,0,1,4.79.57,31.8,31.8,0,0,1,7.72,2.61c2.31,1.15,4.81,2.6,6,5,1.47,2.84.27,6.06-.38,9A24.17,24.17,0,0,0,771.85,203.34Z"/><path class="cls-3" d="M462.71,256.55a24.75,24.75,0,0,0-2.6-4.76,47.71,47.71,0,0,0-3.31-4.56.88.88,0,0,0-.19-.49.28.28,0,0,0-.08-.37l-8.31-5.72c-2.21-1.52-4.12-3.27-7-2.5a64.37,64.37,0,0,0-8.63,3.39c-3,1.32-6,2.76-8.91,4.23-12.25,6.12-38.19,19.34-50.39,25.57-5.48,2.8-2.79,5.36-2.74,6.84a.31.31,0,0,0,.35.25c28.62-7.63,58.33-10.14,86.9-17.95C459.77,260,463.71,259.45,462.71,256.55Z"/><path class="cls-3" d="M820.84,72.37c-.23,4.06-2.37,7.65-4.93,10.68-3,3.5-6.35,6.67-9.58,9.91q-5.1,5.12-10.28,10.16-5.82,5.68-11.75,11.25l-.84-.05q6.35-6,12.59-12.06c6.31-6.16,12.86-12.24,18.72-18.84,2.86-3.22,5.41-7.12,5.48-11.58,0-4.25-2.56-7.82-6.07-10-3.72-2.29-8.19-2.92-12.47-3.22a88.48,88.48,0,0,0-22.62,1.3c.15-.24.31-.48.48-.71a89.52,89.52,0,0,1,14.15-1.42c7.67-.14,17.26-.18,23.24,5.39A11.62,11.62,0,0,1,820.84,72.37Z"/><path class="cls-3" d="M827,201.42c-.25-8.76-1-17.72-3.76-26.1a42.5,42.5,0,0,0-6.36-12.38c-.24-.32-.77,0-.53.31,6.56,8.69,8.77,19.63,9.61,30.27a163,163,0,0,1-1.38,37.26c-.06.39.53.55.59.16A164.81,164.81,0,0,0,827,201.42Z"/><path class="cls-3" d="M919.63,524.18c-2.13-1.94-6.24-3.22-8.72-4.67-1.56-.92-4.74-3-7.34-4.33-.46.56-5.43,7.33-8,10.09a17.06,17.06,0,0,1,4.13,9.46c.44,5.58-.9,11.41-1.93,16.86s-2.21,10.79-2.8,16.25a7.88,7.88,0,0,0,.62,4.84,3.08,3.08,0,0,0,3.9,1.24c1.94-.77,3.29-2.76,4.5-4.35a73.74,73.74,0,0,0,4.21-6.17,113.4,113.4,0,0,0,6.81-13.19c2.06-4.65,4-9.38,5.79-14.14C922.39,532,923.25,527.45,919.63,524.18Z"/><path class="cls-3" d="M631.74,547a74.42,74.42,0,0,0,7.14,2.19,113.11,113.11,0,0,0,14.61,2.58c5.06.6,10.14,1,15.22,1.34,4.38.27,8.95-.26,11-4.68,1.22-2.62,2.67-14.53,3.15-17.31-1.09-.54-9-3.17-12.06-4.66-1.86,2.57-3.89,4.83-7.06,6.1-5.2,2.08-11.17,2.53-16.68,3.17s-11,1.08-16.35,2.14a7.83,7.83,0,0,0-4.43,2,3.07,3.07,0,0,0,0,4.09C627.56,545.64,629.85,546.33,631.74,547Z"/><path class="cls-2" d="M545.92,355.6a178.06,178.06,0,0,0-21.1-8c-7.36-2.3-14.82-4.24-22.31-6.09-7.82-1.92-15.65-3.84-23.54-5.44-7.72-1.56-15.72-3.15-23.63-3-4.92.08-10,1-14.08,3.62a6.06,6.06,0,0,0-3.34-1.38.29.29,0,0,0-.27.15,10.7,10.7,0,0,0,1.15,10c2.15,3.44,5.67,5.71,9,7.85a77.49,77.49,0,0,1,19.36,17.28,73.73,73.73,0,0,1,8,12.63.3.3,0,0,0,.26.15A352.19,352.19,0,0,0,523.33,380q12.18-1.69,24.22-4.25c4.49-1,11.89-2.31,11.67-8.37C559,360.79,550.88,357.88,545.92,355.6Z"/><path class="cls-2" d="M499.82,471.67c-.71-8.46-2.08-16.88-3.29-25.26q-3-20.73-6-41.45c-1.17-8.14-2.38-16.31-4.05-24.38-.95-4.61-2-9.18-3.37-13.7a113.18,113.18,0,0,0-6.5-17.29c-2.22-4.61-5-9.19-9.11-12.37a18.18,18.18,0,0,0-8.2-3.51,38.59,38.59,0,0,0-10.08-.13A81.31,81.31,0,0,0,431,337.46l-1.05.36c.2-.76.4-1.52.61-2.27.26-1,.55-2,.83-2.95a.31.31,0,0,0-.59-.16c-.17.59-.35,1.19-.51,1.78-.37,1.28-.72,2.57-1,3.85-.41.16-.83.3-1.25.45s-.21.75.16.6l.92-.33q-.37,1.48-.72,3a45.79,45.79,0,0,1-1.95-14.17.31.31,0,0,0-.62,0,47.16,47.16,0,0,0,2.3,15.37q-1.38,6.12-2.28,12.35c0,.39.54.56.6.16q.83-5.72,2.05-11.35a90.69,90.69,0,0,0,6.41,14.39q1.79,3.32,3.63,6.58c4.66,8.23,9.55,16.32,14,24.64a609.49,609.49,0,0,1,28.16,59.9c1,2.39,1.91,4.77,2.85,7.17,4.15,10.65,7.28,23.08,16.13,31a.32.32,0,0,0,.53-.22A118.39,118.39,0,0,0,499.82,471.67Z"/><path class="cls-2" d="M505.16,323.79c2,6.13,3.27,12.62,6,18.47a22.43,22.43,0,0,0,5.19,7.29c2.53,2.27,6.35,3.32,8.17,6.3,12.36,1.2,23.32,6.83,34.7,11.38,1.09-3.24-.66-6.78-2-9.81-9.16-20.38-50.64-71.77-56.09-80.67-1.8,1-9.31,5.55-12.71,7.57q5,9.26,9.09,18.91Q501.79,313.32,505.16,323.79Z"/><path class="cls-3" d="M1147.92,811.86c-1.19-1.54-10.09-15.58-10.3-15.58-8.22,1.34-15.63,5.63-23.37,8.63l-1.16.45-.09,0c3.24-5.64,6.26-11.8,8.71-16.93,10.64-22.3,7.85-38.53,7.1-43.32q-1-6.55-2.35-13.06c-6.73-.3-67-3.1-67.36-3.14.86,3.65-3.42,8.32-3.28,8.6-16.64,18.83-27.6,26.08-44.72,46.5-7.37,8.78-15.78,19.54-12.22,31.7,3.09,10.52,14.81,14,24.61,11.84,5.48-1.2,10.52-3.78,15.31-6.67l.76-.35c7.84-3.61,9-3.38,15.73-8.8-1.75,7.73-4.37,25.11-4.76,30.42-.34,4.65.45,8.81,3.91,12.14,7.28,7,17.93,5.15,26.36,1.53,9.92-4.26,65.19-35,67.49-36.11,1.18-.55,2.49-1.38,2.39-2.87C1150.56,815.1,1149,813.21,1147.92,811.86Z"/><path class="cls-3" d="M1143.87,798a28.68,28.68,0,0,1-6.43,3.57.26.26,0,0,0-.06.45,20.84,20.84,0,0,1,5.75,7.6l-1.44.28c-.33.07-.27.59.06.52l1.67-.33a.28.28,0,0,0,.3-.05,22.48,22.48,0,0,1,7.17-.42c3.36.47,13.71,9,16.47,10.79,2.25,1.48,4.61.83,6.92-.13a.26.26,0,0,0,.11-.4c-2.68-3.73-16.42-18.42-18.07-20.13-2.13-2.2-4.43-4.94-7.85-4.21A12.82,12.82,0,0,0,1143.87,798Z"/><path class="cls-6" d="M1114.25,804.91a104.48,104.48,0,0,1-30.82,25.39c-.35.19-.66-.35-.31-.53a104,104,0,0,0,30-24.41Z"/><path class="cls-2" d="M1058.29,537.05c-1.43-4.33-7.8,2.35-9.06,3.9-3.1,3.83-2.85,8.82-4,13.37a24.37,24.37,0,0,0-1.34,3.83.31.31,0,0,0,.59.17c.24-.86.49-1.74.8-2.59a.32.32,0,0,0,.27-.22c.11-.38.22-.77.31-1.16a7.63,7.63,0,0,1,2.75-3.24c2-1.23,4.36-1.47,6.48-2.35,1.8-.75,3.34-1.88,3.68-3.9A16.93,16.93,0,0,0,1058.29,537.05Z"/><path class="cls-2" d="M1058.09,530.4a6.88,6.88,0,0,0-.66-.35,10.79,10.79,0,0,0-1.09-.45c-.7-.25-1.41-.47-2.13-.68l-.62-.17c-1.3-.35-2.63-.63-4-.85l-.49-.08-.18,0c-1.88-.29-3.71-.69-5.14.81a29.63,29.63,0,0,0-4.34,6.87,45.64,45.64,0,0,0-3.09,6.84c-.91,2.86-.8,5.84-.8,8.8,0,3.46,0,6.92,0,10.38,0,.4.62.44.62,0v-.63c2-.61,4.1-1.15,6.19-1.57a7.66,7.66,0,0,0,2.5-.49c.44-.37.63-1.53.83-2.05q2.31-6,4.24-12.23c3.85.66,7.28-1.8,8.83-5.27a12.17,12.17,0,0,0,1.09-6.06A3.63,3.63,0,0,0,1058.09,530.4Z"/><path class="cls-3" d="M1139.81,559.67a8.66,8.66,0,0,0,.85-5.13c-.3-2.15-2.79-11.21-13.69-9.91a10.83,10.83,0,0,1-5.54-1.29c-2.24-1-3.58-3-5.28-4.69a15.24,15.24,0,0,0-6.91-3.85,17.2,17.2,0,0,0-15.14,3.2c-1.49,1.25-2.44,3-3.9,4.26-1.75,1.5-4,1.15-6,2.15-2.75,1.42-3.76,4.86-3.86,7.74-.11,3.17.94,6.62,4.16,7.85,2.31.88,4.88.43,7.26-.38a7,7,0,0,0,1.7,2.33,8.13,8.13,0,0,0,3.16,1.77,13.12,13.12,0,0,0,4.51,4.09c1.26.69,2.82,1,3.94,2,1.73,1.46,2,4.94,2.55,7a85.81,85.81,0,0,0,4.11,11.24c1,2.26,2.13,5.79,5.15,5.78a4.71,4.71,0,0,0,2-.48c.26.76.54,1.52.85,2.27a.31.31,0,0,0,.53,0,38.43,38.43,0,0,0,7-10.86c.9-2.14,1.68-4.42,3.71-5.76,1.46-1,3.23-1.43,4.56-2.61,2.89-2.56,1.33-6.64,1.92-10A24.78,24.78,0,0,1,1139.81,559.67Z"/><path class="cls-7" d="M1143.57,606.68c-3.28-.7-6.71-.94-10-1.38l-10.34-1.4c-6.45-.86-12.93-1.94-19.46-1.8-6.37.13-13,1.49-18.16,5.43a19.24,19.24,0,0,0-7.38,11.33c-.3-.22-.72.2-.42.45l.3.24c-.07.48-.13,1-.16,1.44s.59.4.62,0,0-.66.09-1c8.24,6.62,18.39,10,28.67,12,5.43,1.05,10.92,1.74,16.41,2.37,2.84.32,5.86.91,8.61-.19,2.4-1,4.37-2.89,6.26-4.61,3.75-3.43,7.51-7.41,9-12.39C1148.88,613.1,1148.57,607.75,1143.57,606.68Z"/><path class="cls-7" d="M1100.33,622.08a4.68,4.68,0,0,0-3.8-4.6c-3.23-.69-6.82-.48-10.12-.64l-11.11-.57a17.24,17.24,0,0,1-5.54-.79,8.5,8.5,0,0,1-3.9-3.34c-1.68-2.47-2.7-5.36-4.1-8a30.24,30.24,0,0,0-4.94-7.07c-2.46-2.52-13.09-11.06-11.93-15.92,1-4.12,2.88-7.94,2.12-12.3-.43-2.51-1.61-4.51-1-7.16a17.44,17.44,0,0,1,1.27-3.5,3.57,3.57,0,0,0,.45-2.09.32.32,0,0,0-.3-.23c-.23,0-12.48-1.27-12.49-1.22a.31.31,0,0,0-.36.22c-1.15,3.59-2.4,7.07-5.18,9.73a43,43,0,0,0-3.7,3.57,28.46,28.46,0,0,0-2.69,4c-2.56,4.48-5.18,15.6-5.57,18.5a35.16,35.16,0,0,0,1.92,16.32,61.3,61.3,0,0,1,2.33,8.06,52.91,52.91,0,0,1,.74,9.16c.06,5.16-.19,10.36.69,15.47.77,4.45,2.4,8.87,5.55,12.19s7.54,5.18,12,6.14c.2.05.4.08.6.12,3.21,1.43,6.58,2.45,9.88,3.77a34.83,34.83,0,0,1,11.61,7.69,35.37,35.37,0,0,1,6.63,9.25l-2.09,2.82c-.23.32.3.63.54.31l1.85-2.5a35.45,35.45,0,0,1,1.37,3.31c.13.37.72.21.59-.17a35.25,35.25,0,0,0-1.55-3.7l11.08-15a4.68,4.68,0,0,0,3.58,1c2.47-.47,4.57-2.68,5.94-4.66a28.19,28.19,0,0,0,3.43-7.43c1.07-3.25,2-6.55,2.94-9.85a105.26,105.26,0,0,0,2.53-11A41.22,41.22,0,0,0,1100.33,622.08Z"/><path class="cls-2" d="M1119.1,597.39c.61-2,1.4-3.88,2-5.83.58-12.36.73-24.95-5.7-36.07-2.8-4.85-7.07-9.28-12.78-9.66a.29.29,0,0,1-.12-.54,8.41,8.41,0,0,0-6.62,1.4c-2.37,1.73-3.31,4.79-4.3,7.49a147.52,147.52,0,0,0-5.2,17.63c-1.4,6.11-4.61,22.49,1.27,25.27,1.32.62,8.64,2.62,14.32,1.54,6.74-1.28,14.11-5.25,14.11-5.25,1.73.29-2.68,8.45-.94,8.74.26,0,1.47.29,2.72.48C1118.23,600.85,1118.58,599.1,1119.1,597.39Z"/><path class="cls-2" d="M1096.85,580.37q4.35,27.38,8.71,54.75a.32.32,0,0,0,.27.26l21.94,2a.28.28,0,0,0,.31-.34q-4.5-29.77-9-59.56h.13c.37,0,.26-.61-.12-.61h-.1c-.08-.55-.17-1.1-.25-1.66a.29.29,0,1,0-.57.08l.24,1.6a79.48,79.48,0,0,0-21.41,3.15C1096.89,580.08,1096.83,580.25,1096.85,580.37Z"/><path class="cls-7" d="M1145.9,625.54c-4.53-1.44-9-2.92-13.53-4.4a8.21,8.21,0,0,0,1-4.93,7.31,7.31,0,0,0-2.78-4.69,10.69,10.69,0,0,0-2.85-1.61c-1-.38-2.89-.95-3.56-2a25.38,25.38,0,0,0,3.28-2.11c.31-.23,0-.77-.31-.53a25.69,25.69,0,0,1-3.19,2,1.87,1.87,0,0,1,.32-1.25.31.31,0,0,0-.54-.31,2.32,2.32,0,0,0-.26,1.83c-5.45,2.86-11.67,4-17.36,6.4a30.09,30.09,0,0,0-3.77,1.88l-.15-.24c-8.73.18-17.66.93-25.13,4.44-8.72,4.11-12.64,11.68-14.1,20-.77,4.32-3.15,8.89-3.52,13.27q-.29,3.45-.81,6.86a97.66,97.66,0,0,1-.38,15.19c-1,8.31-3,16.49-3.42,24.85a44.36,44.36,0,0,0,.9,12.95c.83,3.43,2.46,6.63,2.73,10.2a51.54,51.54,0,0,1-.14,8.95c22.51,2.27,64.29,6.72,69.35,7.19.16,0,.25-.1.31-.27,3.89-9.76,5.39-14.73,9.58-20.39a31.92,31.92,0,0,0,4.75-8.18c1.15-3.28,1-6.74,1-10.19a22.9,22.9,0,0,1,2.09-10.67c1.51-3,3.55-5.85,5.21-8.82a70,70,0,0,0,6.91-19.08,151,151,0,0,0,2.51-16.4C1161.77,641.66,1158.75,629.63,1145.9,625.54Z"/><path class="cls-2" d="M1149.71,759.76a55.78,55.78,0,0,1-2.34-8c.19-.13.38-.24.56-.37s0-.77-.3-.54c-5.58,4-11.9,6.14-18.43,8a11.93,11.93,0,0,0-6.49,3.94c-.24.3-.46.61-.68.93a14.79,14.79,0,0,0-2.12,3.75c-.44,1.19-1.14,3.33-.12,4.44a1.56,1.56,0,0,0,1,.52c-.52,1.29-.72,2.89,1,3a3.14,3.14,0,0,0,1.3-.26c-.8,1.16-1.29,2.68-.08,3.58a2.08,2.08,0,0,0,2,.3,3,3,0,0,0-.13,2.75c.81,1.38,2.85.46,3.87-.15a14.51,14.51,0,0,0,4.74-4.1,8.57,8.57,0,0,0,.45-.77c2-1.06,4-2.09,5.91-3.28a14.12,14.12,0,0,0,4.37-4.13c1.35-2,2.36-4.17,4.13-5.85C1149.64,762.36,1150.31,761.5,1149.71,759.76Z"/><path class="cls-7" d="M1184.36,718c-.95-5.44-3.07-10.58-4.62-15.87-1.68-5.74-2-11.46-2.18-17.4a97.12,97.12,0,0,0-6.47-32.75,48.25,48.25,0,0,0-18.58-22.71c-.67.3-1.34.58-2,.84-3.3,6.06-10.14,9.43-13.86,15.24-5.19,8.08-1.14,17.57,2.37,25.42,2.19,4.9,4.14,9.81,4.27,15.25.11,4.93-.81,9.81-1.08,14.72-.23,4.36.14,8.76,2.16,12.7s5.12,7,7.23,10.78c2.89,5.21,2.49,11.17.06,16.48s-6.39,9.38-10.29,13.44a.29.29,0,0,0,0,.37l7,11.26a.31.31,0,0,0,.48.06,296.93,296.93,0,0,0,25.34-22.49c3.44-3.44,7.31-6.94,9.23-11.52C1185.2,727.46,1185.16,722.58,1184.36,718Z"/><path class="cls-3" d="M1144.6,640.61c-7.67,17.72-4.13,37.27-.6,55.51.08.39.67.23.6-.16-3.49-18.06-7.07-37.5.53-55C1145.29,640.56,1144.76,640.24,1144.6,640.61Z"/><path class="cls-3" d="M1072.84,627.88a82.8,82.8,0,0,0-8.92,26.58c-.06.39.54.56.6.16a82.26,82.26,0,0,1,8.86-26.43C1073.57,627.84,1073,627.53,1072.84,627.88Z"/><path class="cls-3" d="M1125.46,578.57a79.05,79.05,0,0,0-.43-14.83c-.49-4-1.1-8.27-3.18-11.79s-5.68-5.1-9.52-6.31a22.47,22.47,0,0,0-5.82-1.13,5.45,5.45,0,0,0-1-.75,12.75,12.75,0,0,0-18.13,5.41,9.14,9.14,0,0,0-1.17,4.76,18.67,18.67,0,0,0-1.42,3.68c-.07-.36-.64-.24-.6.14a3,3,0,0,0,.35,1.09c0,.29-.08.59-.11.89a.32.32,0,0,0,.29.33l.63.09a.26.26,0,0,0,.3-.21,3.55,3.55,0,0,0,1.7.47c2.43.06,4.2-2,6.08-3.19,2.47-1.55,5.16-1,7.9-1a6.16,6.16,0,0,0,5-1.84,7.79,7.79,0,0,0,1.43-5.17c1.11.67,3.45,1.35,4.7,3.55a12.42,12.42,0,0,1,1.65,7.5c-.15,2-.36,4.11.53,6s2.66,2.33,4.2,3.5c3.63,2.78,2,7.61,1.72,11.58-.28,3.62-2.44,10.52.31,13.25a27.4,27.4,0,0,0,1.73-3.28C1124.88,587.57,1125.18,582.87,1125.46,578.57Z"/><path class="cls-3" d="M1108.48,572.31c-.38,1.76-1.38,3-2.23,2.84s-1.24-1.75-.87-3.5,1.38-3,2.24-2.84S1108.86,570.56,1108.48,572.31Z"/><path class="cls-3" d="M1094.22,568.81c-.38,1.76-1.38,3-2.23,2.84s-1.25-1.75-.87-3.5,1.38-3,2.24-2.84S1094.6,567.06,1094.22,568.81Z"/><path class="cls-8" d="M1099,570c.27-.29-.13-.76-.4-.47-1.24,1.3-2.45,2.63-3.6,4-1,1.14-2.2,2.39-2.52,3.89-.59,2.75,2.63,3.84,4.66,4.59a.31.31,0,0,0,.21-.58,13,13,0,0,1-3.39-1.64c-1.53-1.19-.84-2.84.12-4.14A59,59,0,0,1,1099,570Z"/><path class="cls-9" d="M1100.88,586.44c-1.62,0-9.61-2.42-11.52-3.46a.32.32,0,0,0-.46.28c-.17,2.63,2.23,4.6,4.52,5.35a7.92,7.92,0,0,0,7.69-1.65C1101.33,586.78,1101.13,586.44,1100.88,586.44Z"/><path class="cls-2" d="M1123.25,574.25a3.3,3.3,0,0,0-2.56-2.71,4.86,4.86,0,0,0-3.91.9c0-.38-.06-.77-.1-1.15s-.65-.29-.61.11.1,1,.13,1.47c-.18.13-.35.28-.51.42s.1.74.39.47l.15-.12a27.42,27.42,0,0,1-.16,4.25c-.19,1.71-.77,3.41-.5,5.13a.3.3,0,0,0,.43.22,10.57,10.57,0,0,0,4.66-3.76C1121.73,578.08,1123.46,576.16,1123.25,574.25Z"/><path class="cls-8" d="M1120.84,573a3,3,0,0,0-2.76,1.31c-1,1.36-1.25,4.35-3.2,4.7a.31.31,0,0,0,.12.6c3.14-.55,2.23-6.36,5.78-6A.31.31,0,0,0,1120.84,573Z"/><path class="cls-3" d="M1114.65,564.92a.29.29,0,0,0,0-.35,8.45,8.45,0,0,0-7.4-2.51c-1.21.17-4.63,1.94-2.58,3.43a3.89,3.89,0,0,0,1.56.41,22.93,22.93,0,0,1,3.29.6c1.45.46,2.9,1.57,4.48,1.53C1116,568,1115.8,565.9,1114.65,564.92Z"/><path class="cls-3" d="M1089,560.94c1.28.93,3.11.85,4.56,1.29a22.6,22.6,0,0,1,3,1.38,3.72,3.72,0,0,0,1.51.55c2.53-.06.74-3.46-.17-4.29a8.43,8.43,0,0,0-7.51-2.14.27.27,0,0,0-.21.26C1088.71,558.15,1087.38,559.77,1089,560.94Z"/><path class="cls-8" d="M1058.09,530.4a6.88,6.88,0,0,0-.66-.35,13.81,13.81,0,0,1-.2,6.42c-1.06,3.6-3.87,7.38-8,5.84a9.32,9.32,0,0,0,3.75-4.11,15.62,15.62,0,0,0,1.24-9.28l-.62-.17a17.59,17.59,0,0,1-.06,5.88,11.86,11.86,0,0,1-1.91,4.63,8.6,8.6,0,0,1-1.86,2c-1.27,1-3.69,1.69-4.46-.23,2.78-1.66,5.13-3.75,5.18-7.23a21.55,21.55,0,0,0-.85-5.85l-.49-.08-.18,0c.15.52.28,1.05.39,1.58a16.39,16.39,0,0,1,.45,5.31,6.69,6.69,0,0,1-2.85,4.46,19.91,19.91,0,0,1-2,1.34.3.3,0,0,0-.31.19,8.33,8.33,0,0,1-.83.44c-.34.15-2.66,1.1-1.67-.76.22-.41,1.17-.74,1.57-1a6,6,0,0,0,1.06-.9,6.12,6.12,0,0,0,1.45-2.74,5,5,0,0,0-.08-3,1.36,1.36,0,0,0-.55-.66c-.35-.19-1,0-1.31-.31s-.71.1-.47.41.53.23,1,.39c1.4.53,1.13,2.29.76,3.44a5.64,5.64,0,0,1-1.81,2.64c-.62.49-1.38.78-2,1.31s-1.1,1.3-.61,2c.74,1,2.75,0,3.69-.56a2.69,2.69,0,0,0,2.34,1.53c-3.27,1.65-5.17,5.21-6.47,8.53-.14.37.45.53.6.16,1.39-3.57,3.53-7.51,7.48-8.66,0,0,0,0,.06,0h0a5.79,5.79,0,0,0,5.07-.23c1.69-.92,2.66-2.77,3.42-4.46A13.53,13.53,0,0,0,1058.09,530.4Z"/><path class="cls-8" d="M1128.61,762.92a9.56,9.56,0,0,0-3.44,2.18,41.45,41.45,0,0,0-3.46,4.43c-.23.32.27.69.5.37.9-1.25,1.8-2.5,2.79-3.68a9.62,9.62,0,0,1,3.86-2.74A.31.31,0,0,0,1128.61,762.92Z"/><path class="cls-8" d="M1130,767.06a9.64,9.64,0,0,0-3.34,2.33,42.24,42.24,0,0,0-3.25,4.59.31.31,0,0,0,.51.34c.84-1.28,1.69-2.57,2.62-3.79a9.55,9.55,0,0,1,3.73-2.91A.31.31,0,0,0,1130,767.06Z"/><path class="cls-8" d="M1132.08,770.77a9.55,9.55,0,0,0-3.34,2.33,43.11,43.11,0,0,0-3.25,4.58.31.31,0,0,0,.51.35c.84-1.29,1.68-2.58,2.62-3.8a9.66,9.66,0,0,1,3.73-2.91A.31.31,0,0,0,1132.08,770.77Z"/><path class="cls-5" d="M1031.41,847.33c-8.16-8.24-11.43-19.6-11.28-31,0-3,.4-5.88.7-8.81L605.4,841.31c-2.72,19.85-4.11,58.88-7.55,83.74l.39.38,1.74,0c70.79,1,434.92-34.55,443.4-34.5h0s1.45-17,3-35.92A28.64,28.64,0,0,1,1031.41,847.33Z"/><path class="cls-10" d="M1051.38,792.51s-5.65,75.26-6.84,85.7c0,0-371.74,35.51-442.53,34.49l-1.37,0h-.37a3.38,3.38,0,0,1-.39-.37c1.67-12.06,2.85-27.45,3.94-42.37,1.16-15.84,2.21-31.15,3.61-41.38Z"/><path class="cls-5" d="M613.57,822.66s-14.75,102.83-14.78,102.83h0c-8.48,0-537.1-66.18-537.62-66.19l-.38-.37c3.43-24.87,8.92-82.82,11.65-102.68Z"/><path class="cls-11" d="M1056.27,732.75s-4.07,73-5.21,85.57c0,0-375.3,35.84-446.09,34.81l-1.74,0-.39-.38c3.44-24.86,4.83-63.89,7.55-83.74,0,0,444.93-36.56,445.53-36.35Z"/><path class="cls-11" d="M500.1,808.78q16.42,0,32.84-.62A80.2,80.2,0,0,1,548.56,802a153,153,0,0,1,28.34-4c15.43-.89,30.88.28,46.28,1.19q5.75.35,11.5.57,6.27-.78,12.55-1.61c30.82-4.22,61.55-9,92.48-12.47,53.3-6,106.83-9.82,160.39-12.56,26.68-1.36,53.39-2.11,80.06-3.62,21.36-1.21,42.67-3.23,63.9-5.81a462.34,462.34,0,0,1,14.86-44l3.53-11.74L567.3,657.19c-37.12,5-471.45,31.18-487.31,34.88.16.17,300,71,417.13,116.89A24.83,24.83,0,0,1,500.1,808.78Z"/><path class="cls-10" d="M1058.8,720.07l-6.87,85.73c-8.48,0-373,35.64-443.78,34.61l-1.21,0h-.53L606,840c3.44-24.86,4.83-63.89,7.55-83.74L617,756Z"/><path class="cls-12" d="M989.51,579.13s-46.53,106-15.32,107.55h0c-8.48,0-372.61,35.53-443.4,34.5l-1.74,0S133.83,566.26,133.58,566c15.86-3.71,323.66-32.77,360.78-37.74Z"/><path class="cls-11" d="M618.19,750.33s-14.75,102.83-14.78,102.83h0c-8.48,0-533.53-63.88-534-63.89l-.38-.38C72.38,764,77.87,706.07,80.6,686.22Z"/><path class="cls-3" d="M499.82,471.67c-6.76-7-13.12-14.4-19.16-22q-3.21-4-6.29-8.15-6.14-8.19-11.88-16.68c-3.93-5.76-7.88-11.59-10.73-18s-4.69-12.9-6.71-19.44q-3.24-10.56-6.27-21.19c-.1-.37-.21-.74-.31-1.1Q435.62,355,433,344.87c-.64-2.46-1.37-4.93-2-7.41a81.31,81.31,0,0,1,18.25-3.88,38.59,38.59,0,0,1,10.08.13,10.15,10.15,0,0,0-1.19,2c-2.34,5.22-2.26,11.79-1.08,17.29a34.8,34.8,0,0,0,7.49,15.24A36.61,36.61,0,0,0,480,378.5c2.14.79,4.31,1.46,6.49,2.08,1.67,8.07,2.88,16.24,4.05,24.38q3,20.73,6,41.45C497.74,454.79,499.11,463.21,499.82,471.67Z"/><path class="cls-2" d="M615.19,522.52a31.54,31.54,0,0,0-8.61-11.38c-6.21-5.33-13.88-8.71-21.49-11.5-9.19-3.39-80.72-22.95-90-27.73.88-2.41.26-2.7-.61-.32l-1.11-.59c-.38-.2-.75.36-.36.57s.83.44,1.25.65q-7.65,21.12-13.72,42.74a.33.33,0,0,0,.3.44l71.73,10.81,2.81.42a32.2,32.2,0,0,0-10.89,5c-2.16,1.49-4.23,3.11-6.26,4.8-2.95,2.46-5.8,5.05-8.7,7.53l-.58.5-15.63,13.38-18.25,15.62a.35.35,0,0,0,0,.48l2.95,3.6a.34.34,0,0,0,.4.08q3-1.86,6-3.66l.24-.06c1.18-.27,2.36-.53,3.53-.81l7.38-1.7q8.9-2.07,17.77-4.25,5.85-1.44,11.68-2.9,14.68-3.72,29.3-7.69c9.29-2.52,18.71-4.92,27.63-8.59,7.49-3.09,14.94-8.08,15-17A21.21,21.21,0,0,0,615.19,522.52Z"/><path class="cls-1" d="M574.37,493q-33.72-13.68-68.11-25.66-5.7-2-11.42-3.92c-.17-2.49-.41-5-.76-7.46-.06-.39-.67-.36-.62,0,.35,2.4.58,4.81.74,7.22l-7.86-2.64c-.38-.12-.51.48-.14.6l8.05,2.7c.75,12.1-.3,24.28.47,36.39.91,14.17,5,27.82,10.19,40.95,3,7.56,6.38,15,9.76,22.36a.31.31,0,0,0,.46.17,166.15,166.15,0,0,0,49.69-51.8,163.71,163.71,0,0,0,9.68-18.52A.3.3,0,0,0,574.37,493Z"/><path class="cls-3" d="M615.19,522.52a150.46,150.46,0,0,0-76.92,13.9q-2.88,1.37-5.7,2.87c-1.16.61-2.3,1.25-3.45,1.89-.17-1.26-.34-2.52-.49-3.78-.32-2.58-.61-5.17-.85-7.75,0-.4-.66-.4-.62,0q.57,5.94,1.4,11.86c-.81.46-1.62.92-2.42,1.4a.31.31,0,0,0,.31.54c.73-.44,1.47-.86,2.2-1.28.11.76.23,1.52.34,2.28q1.37,9,3.32,17.85c.34,1.53.64,3.18,1,4.83q5.85-1.44,11.68-2.9,14.68-3.72,29.3-7.69c9.29-2.52,18.71-4.92,27.63-8.59,7.49-3.09,14.94-8.08,15-17A21.21,21.21,0,0,0,615.19,522.52Z"/><path class="cls-10" d="M23.18,228.69c-4.49,4-21.84,20.61-21.84,20.61S151.92,543.67,152.06,543.69c40.07,5.52,294.93,53.58,385.37,69.46A177.16,177.16,0,0,0,572,616C551.6,573.31,423.21,272.8,423.21,272.8S71.2,233.17,23.18,228.69Z"/><path class="cls-13" d="M1003.05,699.6l-2,12.59L527.39,750.73S118.87,700,118.36,700a3.07,3.07,0,0,1-.39-.38c3.43-24.82,12.86-113.51,15.6-133.56,0,0,0-.07,0-.1l100.83,12.16,104.24,12.57,114.21,13.77,91.85,11.07Z"/><path class="cls-10" d="M989.47,579.28s-2.12,16.31-4.77,36.76c0,.21-.06.42-.08.63-1.75,13.39-3.71,28.5-5.46,42,0,.21-.06.42-.08.63-2.7,20.73-4.87,37.36-4.89,37.36h0c-8.48-.05-372.61,35.53-443.4,34.51l-1.74,0-.29-.26-.1-.11c3.44-24.87,12.24-95.35,15-115.2l4-.33c44.32-3.64,440.95-36.21,441.53-36Z"/><path class="cls-13" d="M0,249c17.73,44.87,133.36,317,133.51,317,48.73,6.72,412.35,49.9,412.27,49.77-21.54-31-141.11-320.66-141.11-320.66S48,253.43,0,249Z"/><path class="cls-1" d="M1366.37,598.37c-2-5.37-7.42-9.56-13.15-8.17a18.3,18.3,0,0,0-5.29-5.58,15.82,15.82,0,0,0-9.47-2.38c-4.49.07-8.6-1.2-13-1.82-3.43-.49-7.13-.36-10.06,1.69a8.39,8.39,0,0,0-2.58,2.82,8.86,8.86,0,0,0-.75,2.19,7.74,7.74,0,0,1-1.76,3.51,6.83,6.83,0,0,0-1.93,3.46,7.58,7.58,0,0,0,.72,4.14c1.56,3.54,4.64,6.36,7.23,9.14,2.76,3,5.52,6.07,7,9.9s.37,8.16,1.71,12.07c1.22,3.56,4.92,5.52,8.41,6.29a6.78,6.78,0,0,0,2,2.58,5.51,5.51,0,0,0,6.42.39A9.82,9.82,0,0,0,1344,636a12.7,12.7,0,0,1,4.18-3.6,13,13,0,0,0,5.43-6c.63-1.49.95-3.1,1.69-4.54a15.59,15.59,0,0,1,2.49-3.43c1.79-1.93,3.86-3.57,5.68-5.47a13.65,13.65,0,0,0,3.54-5.73A15.09,15.09,0,0,0,1366.37,598.37Z"/><path class="cls-3" d="M1209.15,862.69a28.56,28.56,0,0,1-.89-7.3.27.27,0,0,0-.4-.23,20.86,20.86,0,0,1-9.2,2.48c.1-.49.19-1,.28-1.45s-.44-.47-.5-.14c-.11.56-.21,1.12-.33,1.67a.33.33,0,0,0-.06.3,22.24,22.24,0,0,1-2.31,6.8c-1.7,2.94-13.46,9.33-16.19,11.21-2.22,1.52-2.5,4-2.49,6.46a.27.27,0,0,0,.33.25c4.48-1.08,23.25-8.28,25.45-9.17,2.84-1.15,6.24-2.25,6.86-5.69A12.71,12.71,0,0,0,1209.15,862.69Z"/><path class="cls-3" d="M1230.77,875.19a29.05,29.05,0,0,1-1.41-7.21.26.26,0,0,0-.41-.2,20.83,20.83,0,0,1-9,3.11l.18-1.46c0-.33-.48-.43-.51-.1l-.21,1.69a.28.28,0,0,0,0,.3,22.46,22.46,0,0,1-1.83,6.95c-1.48,3.05-12.76,10.25-15.36,12.32-2.11,1.67-2.22,4.12-2,6.62a.27.27,0,0,0,.35.23c4.39-1.4,22.61-9.91,24.74-11,2.76-1.34,6.07-2.68,6.44-6.16A12.81,12.81,0,0,0,1230.77,875.19Z"/><path class="cls-2" d="M1285.64,724.7a88.36,88.36,0,0,1-2,17.46c-1.08,5.08-2.11,12-7.12,14.76a40.59,40.59,0,0,1-8.14,2.94,67.32,67.32,0,0,1-8.07,1.84,49.47,49.47,0,0,1-17.83-.08c-.9-.18-1.53-.19-2.08-1s-.43-.69-.06-1.39c.18-.34.4-.67.59-1l2.22-3.76c1.48-2.5,3-5,4.48-7.49,3-4.9,6-9.74,9.23-14.48,3.56-5.26,7.76-10.13,11.13-15.52,2.94-4.7,4.18-10.26,7.22-14.88a11.79,11.79,0,0,0,3.39.92,12.36,12.36,0,0,1,2.69.62,4.79,4.79,0,0,1,2.79,3.75A74.55,74.55,0,0,1,1285.64,724.7Z"/><path class="cls-2" d="M1379.46,770.76c1.39,3.2,3,6.33,4.62,9.45,3.59,6.95,7.32,13.84,11.11,20.7q3.15,5.69,6.34,11.36l.19.34a28.91,28.91,0,0,1,4.34-.23c1,0,2,0,3,0l1.19-.23a51.24,51.24,0,0,1-2.2-7.86c-.75-3.52-1.47-7-2.2-10.58q-2.25-10.81-4.49-21.63a82,82,0,0,0-2.43-9.71,38,38,0,0,0-4.37-8.68,71.19,71.19,0,0,1-5.5-9.24,61.45,61.45,0,0,1-3.37-9.84,182.63,182.63,0,0,1-4.46-23.8.31.31,0,0,0-.39-.27l-20.55,6.15v-.37c0-.35-.62-.35-.62,0v.56l-1.09.32a.28.28,0,1,0,.16.53l.93-.28V718a.26.26,0,0,0,.25.25c5.64,13.89,11.84,27.71,16,42A88.47,88.47,0,0,0,1379.46,770.76Z"/><path class="cls-2" d="M1338.11,645.73a.2.2,0,0,0,0,.11,31.15,31.15,0,0,1-5.11-1.11l-4.82-1.23-2.22-2.85c-2.91-.74-13.59-1-16.45-2-3.25-1.12-6-3.51-5.49-7.38.25-1.91.59-3.8,1-5.69q.49-2.3,1.11-4.56c.71-2.68,1.51-5.33,2.32-7.91a147.36,147.36,0,0,1,6.34-16.76c1.15-2.56,2.3-5.46,4.67-7a7.76,7.76,0,0,1,6.34-.86.29.29,0,0,0,.07.54c5.33.78,9,5.42,11.23,10.34C1343.78,614.13,1342,631,1338.11,645.73Z"/><path class="cls-2" d="M1318,612.72q.65,27.71,1.3,55.42a.32.32,0,0,0,.23.3l21.48,4.93a.29.29,0,0,0,.35-.3l-.93-60.22h.12c.37,0,.34-.57,0-.62h-.1l0-1.68a.29.29,0,1,0-.58,0l0,1.61a80,80,0,0,0-21.64.26C1318.05,612.44,1318,612.6,1318,612.72Z"/><path class="cls-14" d="M1392.22,718.11l-1.59-4.35c-1-2.81-2.05-5.62-3.07-8.42-2-5.53-4-11.07-6.08-16.57a52.82,52.82,0,0,0-6.68-13.27,36.73,36.73,0,0,0-9.94-9.37l-.87-.54a40.62,40.62,0,0,0-14.46-5.26l-.76-.11c-1-.16-2.25-.31-3.66-.47-.19.22-.38.44-.59.65a17.14,17.14,0,0,1-11.13,4.71,22.3,22.3,0,0,1-5.14-.37,7,7,0,0,0-.79,0,12.24,12.24,0,0,1-10.87-7l-1.87-.06c-2.21-.06-4-.07-5,0-5.25.28-11,.1-15.89,2.31-8.29,3.74-11.06,13.53-12.42,21.75-2.07,12.42-2.76,25-3.67,37.57s-1.85,25.31-2.74,38c-.5,7.09-1,14.19-1.17,21.3,0,.11,0,.22,0,.33-1.45-.18-2.91-.35-4.37-.48a.29.29,0,0,0,0,.57c1.46.13,2.93.3,4.39.49-.09,3.15-.14,6.31-.12,9.46,0,1.77,0,3.55.1,5.33,0,.93.06,1.86.1,2.8,0,.19.15,1.52.2,2.27a.22.22,0,0,0-.26,0l-.14.08a.28.28,0,0,0-.14.31.69.69,0,0,0,.71.59.3.3,0,0,0,.29-.19c.32-1-.06-2.56-.11-3.59-.07-1.59-.12-3.17-.15-4.76,0-3.09,0-6.17,0-9.26,0-1,0-2,.08-3,16.64,2.22,32.66-4.48,46.63,4.83,3.84,3.65,19.52,20.85,21,18.69a13,13,0,0,0,1.42-4.07c.52-1.92,1-3.84,1.57-5.76,4.15-15.36,8.14-30.78,10.89-46.45q1.15-6.56,2-13.15h0l.39-.7.1-.2.38-.71.37-.08c1.43-.3,2.85-.61,4.26-.95q8.37-2,16.54-4.61,4-1.3,8-2.78c1.36-.51,4.29-1,4.86-2.61C1393.08,720,1392.54,719,1392.22,718.11Z"/><path class="cls-3" d="M1290,774.5a7.93,7.93,0,0,0-6.78-2.93c-3.75.16-6.57,2.24-8.7,5-10.66-9.8-37.74-34.31-44.19-38.89-5.3-3.76-11.54-6.76-18.21-5.85-12.4,1.7-16.61,10.6-18.25,22-1.15,8-.2,16.14.85,24.11,1.08,8.3,1.69,66.43,1.23,85.41a.3.3,0,0,0,.35.3l12.56-3a.3.3,0,0,0,.22-.27c.85-6,6.84-30.78,9.39-36.16a71.44,71.44,0,0,0,5.75-16.82,95.76,95.76,0,0,0,1.63-17.32c0-.72,0-1.45,0-2.18,2.1,2.08,13.78,25.89,24,33.36,4.61,3.37,33.83,11,39.62,9.65,4.83-1.11-14.63-9.74-11.91-13.7,3.42-5,5.78-10.74,8-16.33,1.35-3.38,2.6-6.81,3.72-10.27a47.27,47.27,0,0,0,2.23-8.52C1291.81,779.49,1291.61,776.67,1290,774.5Z"/><path class="cls-3" d="M1330.75,794.35s-14.13-14.13-16.75-16.88q-7.83-8.26-15.68-16.51l-17.85-18.77c-1.6-1.69-4.86-5.77-8.15-7.49a.27.27,0,0,0,0-.46c-7.08-4.23-15.67.3-19.82,6.49-2.64,3.93-4.1,8.52-5.34,13-1.45,5.32-2.81,10.68-4.2,16q-8.61,33.21-16.7,66.54-4.54,18.72-8.91,37.5a.29.29,0,0,0,.25.38l13.19.53a.29.29,0,0,0,.29-.2c3.52-13.61,11.6-25.28,18.91-37.09a174,174,0,0,0,10.24-19c7.58,5.9,16,10.83,25.55,12.37a39.6,39.6,0,0,0,30.24-8.12A37.22,37.22,0,0,0,1326.5,810C1329.12,804.72,1330.75,794.35,1330.75,794.35Z"/><path class="cls-2" d="M1429.48,837.32a21.92,21.92,0,0,0-2.92-3.52,2.85,2.85,0,0,0,.71-.94c.29-.52-1.28-1.52-2.23-2.45-1.49-1.46-3.06-3.51-4.48-5-1.64-1.77-8.11-11.39-10.43-13.85a36.08,36.08,0,0,0-5-4.62c-1.5-1.07-3-.76-4.61-.19-.35.12-.24.64.08.61.16,2,.61,4.18-.13,6a10.94,10.94,0,0,0-.9,4.19c0,1.39,0,2.78,0,4.18a56.38,56.38,0,0,1-1.32,6.88c-.45,1.8-.93,3.58-1.36,5.39-.21.88-.75,2.24-.34,3.18.82,1.83,2.16-.26,2.52-1.15q2-4.92,3.91-9.83c.19,0,2.85,2.72,3.28,3.1,1.52,2.17,3.16,4.27,4.76,6.34a36.8,36.8,0,0,0,4.09,4.64c1,.9,2.5,2.33,3.92,2.39,3.13.12-.78-4.19-1.45-4.88a84.33,84.33,0,0,1-7-8.64l1.59-.42c1.8,2.41,3.62,4.8,5.49,7.16,1.13,1.42,2.23,2.93,3.47,4.26a3.48,3.48,0,0,0,3,1.44.32.32,0,0,0,.3-.39,7.15,7.15,0,0,0-1.92-3.61c-1.26-1.51-2.52-3-3.69-4.59s-2.36-3.41-3.42-5.18l1.38-.41c2.1,2.6,4.16,5.25,6.42,7.7a23.58,23.58,0,0,0,3.52,3.18c.62.44,1.75,1.48,2.58.92A1.37,1.37,0,0,0,1429.48,837.32Z"/><path class="cls-14" d="M1309.36,658.33c0-.27,5.6-.52,5.43-.32-5.69-1.08-17.59-.14-22.79,2.42-5.82,2.87-9.8,7.83-13,13.3a214.83,214.83,0,0,0-10.35,19.34,87.83,87.83,0,0,0-3.95,9.89c-.72,2.21-1.5,4.95.73,6.56a15.51,15.51,0,0,0,4.81,1.79q3.15.91,6.33,1.69,5.81,1.43,11.71,2.39a2.5,2.5,0,0,1-.34.39c-.06-.39-.65-.23-.6.16.19,1.26,1.33.37,1.63-.27a1,1,0,0,1,.07-.15l.37.06a.32.32,0,0,0,.39-.3v-1.6c.76-2,1.36-4.14,2.07-6.14q2.9-8.09,5.77-16.18,5.82-16.27,11.62-32.55A.32.32,0,0,0,1309.36,658.33Z"/><path class="cls-2" d="M1314.72,657.67a10.1,10.1,0,0,0,4.46,10.69c2.49,1.58,5.37,1.67,8.24,1.7a31.66,31.66,0,0,0,9.69-1.09c4.33-1.35,9.52-4.45,11.66-8.75C1341.81,659.17,1324.17,657.94,1314.72,657.67Z"/><path class="cls-15" d="M1355.16,724.12a65.1,65.1,0,0,0,3.09,8.8l-.39.7c-.63-1.51-1.25-3-1.81-4.57a120.47,120.47,0,0,1-3.15-11.72c-.92-3.63-2.12-7.18-3.24-10.75-2.21-7.08-3.91-14.34-2.47-21.76,1.22-6.32,4.42-13.31,10.07-16.82a17.3,17.3,0,0,1,6.73-2.41l.87.54a16.45,16.45,0,0,0-11,5.61c-4.77,5.59-7,13.41-6.61,20.67s3.12,14.08,5.17,21C1353.51,716.91,1354.22,720.54,1355.16,724.12Z"/><path class="cls-15" d="M1285.69,675.85a135.51,135.51,0,0,0-8.14,34.56c0,.4.57.39.61,0a135.78,135.78,0,0,1,8.13-34.4C1286.43,675.64,1285.83,675.48,1285.69,675.85Z"/><path class="cls-6" d="M1274,796.42a.49.49,0,0,0-.32-.41.29.29,0,0,0-.31,0c-.7.47-.82,1.59-1.09,2.35-.52,1.42-1.07,2.84-1.65,4.24a92.22,92.22,0,0,1-4.15,8.62,93.9,93.9,0,0,1-10.54,15.38c-.26.3.18.74.43.44a94.56,94.56,0,0,0,10-14.34q2.18-3.86,4-7.89c.52-1.17,1-2.35,1.49-3.53.3-.75.58-1.5.86-2.26.12-.33.25-.67.37-1,0-.13.21-.82.3-1.26a.33.33,0,0,0,.46,0l.1-.08A.28.28,0,0,0,1274,796.42Z"/><path class="cls-6" d="M1246.5,756.11q-4.29,19-9.9,37.68a.31.31,0,0,0,.6.17q5.61-18.66,9.89-37.69C1247.18,755.89,1246.59,755.72,1246.5,756.11Z"/><path class="cls-1" d="M1347.43,600.75a26.17,26.17,0,0,0-4.09-8.51,12.1,12.1,0,0,0-5.7-4.37,47.83,47.83,0,0,0-8.86-2c-2.84-.49-6-1.34-8.88-1.07-3.76.35-4.73,3.19-5.8,6.06-.12-.16-.23-.32-.36-.47s-.65.13-.41.42a6.16,6.16,0,0,1,.52.71,9.75,9.75,0,0,1-2.54,4.11c-.29.25.13.66.41.42a9.08,9.08,0,0,0,2.4-4,3.25,3.25,0,0,1,.18.43c-.26.12-.12.57.2.53.06.19.11.38.16.58.07.37.63.21.56-.16,0-.17-.09-.34-.15-.52a20.55,20.55,0,0,1,13.14,2.61,7.74,7.74,0,0,1,4,4.6c.6,2.43-.61,4.85-1,7.23a6.82,6.82,0,0,0,.53,4.27c.88,1.59,2.69,2.14,3.91,3.39,3.52,3.62,2.13,9.25,1.53,13.64-.52,3.85,0,8.2,3,11a.29.29,0,0,0,.48-.13c2.44-6.42,4.91-12.86,6.24-19.62a62.15,62.15,0,0,0,1.1-9.81A33.77,33.77,0,0,0,1347.43,600.75Z"/><path class="cls-3" d="M1318.33,610.15c-.48,1.72-1.55,2.93-2.39,2.7s-1.14-1.82-.66-3.55,1.55-2.94,2.4-2.7S1318.81,608.42,1318.33,610.15Z"/><path class="cls-2" d="M1312.54,603.05c-1.74,1.44.68.26-1,1.7-1.24,1-7,4.73-7.55,6.31-1.16,3.15,3.1,5.2,5.23,6.88.19.14-.14,1-.07.77a91.58,91.58,0,0,0,3.5-14.49.3.3,0,0,0-.14-.32l.51-.42C1313.28,603.23,1312.84,602.79,1312.54,603.05Z"/><path class="cls-3" d="M1323.21,602a7,7,0,0,0-7-1.59c-1.28.42-3.17,2.36-1.52,3.54.91.65,2.55.38,3.58.54,1.42.21,3.27,1.13,4.73.92a1.3,1.3,0,0,0,1.17-1.3A3.3,3.3,0,0,0,1323.21,602Z"/><path class="cls-9" d="M1313,621.36c-.59-.44-2.24-.05-3-.05a32.64,32.64,0,0,1-3.95-.28q-.62,2.26-1.11,4.56c.56-.05,1.11-.16,1.48-.22a13.6,13.6,0,0,0,3.68-1.11C1310.76,624,1314.33,622.36,1313,621.36Z"/><path class="cls-12" d="M984.7,616c0,.21-.06.42-.08.63Q967,618.34,949.34,620q-99.72,9.28-199.53,17.58-100.3,8.33-200.71,15.68c-.4,0-.4-.6,0-.62q56.05-4.11,112.1-8.51,99.82-7.86,199.6-16.7Q922.76,621.92,984.7,616Z"/><path class="cls-12" d="M979.16,658.62c0,.21-.06.42-.08.63l-33.86,3.18Q845.5,671.7,745.69,680,645.37,688.34,545,695.68c-.4,0-.4-.59,0-.62Q601,691,657.06,686.55q99.86-7.86,199.6-16.7Q917.94,664.42,979.16,658.62Z"/><path class="cls-12" d="M1056.88,743.86c0,.2-.05.41-.08.62q-17.62,1.68-35.27,3.32Q921.81,757.09,822,765.37q-100.32,8.34-200.71,15.68c-.4,0-.4-.59,0-.61q56.06-4.11,112.09-8.51,99.84-7.87,199.6-16.71Q995,749.75,1056.88,743.86Z"/><path class="cls-12" d="M1055.18,765.45c0,.21,0,.42-.08.62q-16.92,1.6-33.86,3.19-99.72,9.27-199.52,17.57Q721.4,795.17,621,802.5c-.39,0-.4-.58,0-.61q56.06-4.11,112.09-8.52,99.84-7.85,199.6-16.69Q994,771.25,1055.18,765.45Z"/><path class="cls-12" d="M1053.23,786.57c0,.21-.06.42-.08.62l-33.86,3.18Q919.56,799.66,819.76,808q-100.32,8.32-200.71,15.67c-.4,0-.41-.59,0-.62q56.06-4.1,112.09-8.51,99.84-7.85,199.6-16.69Q992,792.37,1053.23,786.57Z"/><path class="cls-12" d="M1046.68,850.76c0,.21,0,.42-.08.63q-17.62,1.68-35.27,3.32Q911.61,864,811.8,872.28,711.49,880.61,611.09,888c-.4,0-.4-.59,0-.62q56.05-4.11,112.09-8.51Q823,871,922.78,862.13,984.75,856.64,1046.68,850.76Z"/><path class="cls-3" d="M547.27,615.68l-.21.59q-17.61-1.95-35.22-3.94-29.46-3.32-58.91-6.74-70.11-8.12-140.14-16.72-89.66-11-179.22-22.84s0-.07,0-.1l100.85,12.53q52.11,6.62,104.26,12.94,42.44,5.18,84.87,10.15Q485.4,608.81,547.27,615.68Z"/><path class="cls-3" d="M577.78,628.37c-6.53-9.6-18.62-13.26-30.18-13.19l-4,.33c-2.72,19.85-11.52,90.33-15,115.2l.1.11,1.13-.85A342,342,0,0,0,566,697.62c9-9.43,15.59-20.67,18-33.57C586.2,652.09,584.76,638.62,577.78,628.37Z"/><path class="cls-3" d="M627.25,768.92A44.16,44.16,0,0,0,617,756l-3.43.28c-2.72,19.85-4.11,58.88-7.55,83.74l.39.38h.53c8.52-8.28,16.52-17.24,21.21-28.25C634,798.39,634.27,782.3,627.25,768.92Z"/><path class="cls-3" d="M627.85,864.58c-.82-4.36-3.24-8.71-7.47-10.52a19.51,19.51,0,0,0-7.39-1.15,10.43,10.43,0,0,0-3.48.26,4.67,4.67,0,0,0-2.85,3.11c-1.59,4.3-2.17,9.09-2.84,13.64-1.09,14.92-2.27,30.31-3.94,42.37a3.38,3.38,0,0,0,.39.37h.37a65.54,65.54,0,0,0,9.72-8.44,124.57,124.57,0,0,0,10.25-11.88,36.4,36.4,0,0,0,6.29-12.62A35.92,35.92,0,0,0,627.85,864.58Z"/><path class="cls-4" d="M341.15,524.17,178,506.15,113.13,334l161.74,17.89c10.72,28.14,63.74,167.26,63.78,167.35Z"/><path class="cls-3" d="M453,481l-13.84-1.24-14.37-38.17,13.72,1.38C440.8,449.06,446.62,464.34,453,481Z"/><path class="cls-3" d="M513.62,233.33c-4.39-1.88-9.11-.27-13,2-4.4,2.54-8.66,5.37-12.91,8.19l-20-27.69c-12.75-17.63-25.38-35.34-38.26-52.87-11-14.91-23.83-30-42.2-35.59a.34.34,0,0,0-.43.38c.25,19.17,11.18,35.73,22.45,50.4,13.25,17.25,26.75,34.31,40.13,51.46l21.29,27.29-8.41,6c-2.32,1.66-5.08,3.24-6.74,5.64s-1.46,5.2-.49,7.75a5.28,5.28,0,0,0,4.9,3.78,6.61,6.61,0,0,0,5.41-2.85c1.64-2.3,1.73-4.89,1.95-7.58.18-2.35,1.87-3.23,3.61-4.46q2.25-1.59,4.53-3.13c.73-.5,1.48-1,2.22-1.47q8.65,12.29,18.05,24c.24.31.68-.13.43-.44l-1.39-1.77,4.32-6.12c1.42-2,2.73-4.42,4.63-6a.3.3,0,0,0,0-.37q-6.46-8.72-12.06-18,2.24-1.29,4.49-2.55l.05,0c2.36-1.32,4.73-2.59,7.15-3.75a10.83,10.83,0,0,1,4.51-1.24,31.94,31.94,0,0,1,4.66.69c1.79.24,3.83.1,5-1.48C520.13,239.9,517.16,234.84,513.62,233.33Z"/><path class="cls-2" d="M514.22,257.43c-.72-1.68-3.37-1.93-4.9-2.36a126.65,126.65,0,0,0-17.15-3.54c-.32,0-6,5.83-8.35,8.93-1.73,2.28-4.34,4.94-3.21,7.94a104.92,104.92,0,0,0,9.67,19h.54a94.17,94.17,0,0,1,10.22-.19,12.1,12.1,0,0,0,2.66-3.92c1.16-2.38,2.3-4.77,3.45-7.15,2.2-4.57,4.79-9.13,6.46-13.93C514.09,260.85,514.85,258.9,514.22,257.43Z"/><path class="cls-3" d="M537.93,527A272.21,272.21,0,0,0,513.1,483.8c-.22-.32-.76,0-.53.32a272.54,272.54,0,0,1,24.83,43.15C537.56,527.63,538.1,527.31,537.93,527Z"/></svg>