<svg id="Layer_1" data-name="Layer 1" xmlns="http://www.w3.org/2000/svg" viewBox="0 0 1035.73 1101.29"><defs><style>.cls-1{fill:#49d3cd;}.cls-2{fill:#ffe9de;}.cls-3{fill:#f0c9b6;}.cls-4{fill:#3e107a;}.cls-5{fill:#7fd8d5;}.cls-6{fill:#2d8780;}.cls-7{fill:#39b772;}.cls-8{fill:#9083de;}.cls-9{fill:#8d37db;}.cls-10{fill:#44ea93;}.cls-11{fill:#2a9e5b;}.cls-12{fill:#576e42;}.cls-13{fill:#0f8256;}.cls-14{fill:#3ba09c;}.cls-15{fill:#fd9c55;}.cls-16{fill:#92a7f7;}.cls-17{fill:#334b66;}.cls-18{fill:#fff;}.cls-19{fill:#c77438;}</style></defs><path class="cls-1" d="M926.36,961.68c0,.19,0,.37-.06.56-.47,5-1,10.11-1.46,15.28l-63.61,2.21c-185.53,6.52-710.78,25-710.78,25L0,907.07,12.67,774.21h.08l6.33-.17h.29l68.05-1.79,0,0-9.57,20.92L65.09,821,27.34,903.47c31.89-1.76,92.55-6.22,165.73-11.77,219.33-16.62,551.08-43,557.44-36.11,1.79,1.95,11,8,24.23,16.22,1.69,1.05,3.44,2.14,5.25,3.25,13.87,8.55,31.24,19,49.14,29.61l1.06.63c17.38,10.32,35.21,20.81,50.74,29.91l1.25.73C905.07,949.34,922.76,959.6,926.36,961.68Z"/><path class="cls-2" d="M935.29,865.46c0,.2,0,.39,0,.58-1.12,11.77-2.18,23.32-3.24,34.83,0,.26,0,.52-.07.78-1,10.57-1.95,21.12-2.94,31.82,0,.26,0,.52-.08.79-.82,9-1.67,18.1-2.55,27.42,0,.19,0,.37-.06.56-5.74.2-40.76,1.49-93,3.41-190.84,7-611.75,22.32-678.93,23.6a6.73,6.73,0,0,1-.57-.52c-1.58-1.51-6.34-6.2-13.35-13.18l-.76-.76c-11.43-11.4-82.38-61.63-124.6-70.64,6.74-59.74,12.05-113.9,12.05-113.9h.06c1.23,0,19.88.89,50.67,3,28.4,1.9,67.14,4.86,112,9.2,194.07,18.8,541,33.14,546.44,39,2.06,2.24,20.07,5.24,44.64,8.37C832.4,856.36,912.66,863.49,935.29,865.46Z"/><path class="cls-3" d="M165,872.8c-1,11.11-7.31,79-10.82,116.4-7.49-7.17-66.2-40.69-137.86-83.66-.54-.32-.82-.93-1.23-1.39,6.74-59.74,12.05-113.9,12.05-113.9l.3,0C32.52,790.76,83.26,827.89,165,872.8Z"/><path class="cls-1" d="M935.87,859.44c-.19,2-.39,4-.58,6,0,.2,0,.39,0,.58-19.64.7-78.37,2.83-155.12,5.58l-5.38.19c-194.66,7-499.66,17.8-581.67,19.89-4.59.12-8.48.21-11.62.27-.18,0-62.56-31.69-116.36-71a426.9,426.9,0,0,1-37.93-30.76L25.81,789c-5.67-5.31-8.39-9.47-13.06-14.78l-.08-.09c1.95,0,4.08,0,6.41-.08h.29c15.3-.23,38.75-.85,68-1.75,200.11-6.14,672.71-25.07,680.24-16.87C773.75,762.08,921.74,847,935.87,859.44Z"/><path class="cls-3" d="M869,903.15l63-2.28c0,.26,0,.52-.07.78q-48.37,1.77-96.72,3.47l-5,.18c-22.57.81-38.52,1.46-51.49,2.05-35.29,1.58-48.47,2.62-112.54,4.68-89.72,2.88-326.43,11-416.15,13.62q-47.94,1.4-95.88,2.73c0-.26,0-.52,0-.78q64.8-1.82,129.61-3.72c89.72-2.63,326.42-10.81,416.15-13.72,40.4-1.32,60.56-2.23,78.79-3.12,14.8-.73,28.34-1.45,50.41-2.37C840,904.22,852.86,903.72,869,903.15Z"/><path class="cls-3" d="M880.93,935.21,929,933.47c0,.26,0,.52-.08.79l-46.73,1.68-44.08,1.57c-24.92.88-42.14,1.58-56,2.2-35.7,1.6-48.69,2.64-113.08,4.71-89.72,2.88-326.43,11-416.15,13.62q-55.11,1.61-110.19,3.12l-.75-.75q72.35-2,144.7-4.14c89.72-2.63,326.42-10.81,416.15-13.72,40.38-1.31,60.55-2.22,78.78-3.12,22.08-1.09,41.33-2.15,90.26-3.9Z"/><path class="cls-4" d="M27.4,790.28l-.3,0s-5.31,54.16-12,113.9l1.23,1.39a6,6,0,0,0,.74,0c3.46,0,5.75-2.93,7.5-5.58a35,35,0,0,0,5.55-12C41.93,832.31,31.27,801.11,27.4,790.28Z"/><polygon class="cls-4" points="176.87 825.55 136.24 799.11 124.71 801.15 165.34 827.59 176.87 825.55"/><path class="cls-5" d="M887.37,375.71c-.42-5,.58-7.24-4.08-9.08-1.18-.47-15-4.08-15-4.08s-5.79-1.53-12.92-3.36c-4.14-1.07-8.71-2.24-12.88-3.29-82.68-20.69-303.89-65.24-385.16-76.56-80.11-1.89-88.94-31.51-89.26-32.15-2.8,75.41,119.2,157.06,201.44,236.74,42.49,41.16,74.37,81.79,72.92,120.76-4,108.43-8.06,214.53-12.08,323a15.45,15.45,0,0,0,.09,2.65c59.81,35.11,168.56,97.88,203.93,118.28l11.45,6.61s12.17.58,21.08,1.19h0c.24.13.78-.19.8-.54.37-8,1-23.83,1.69-45.61,4.29-127.54,13.73-457.48,16.95-584.09C887.07,395.7,887.48,377,887.37,375.71Z"/><path class="cls-6" d="M834.32,1048.59l11.45,6.61s12.17.58,21.08,1.19h0c.24.13.78-.19.8-.54.37-8,1-23.83,1.69-45.61A84,84,0,0,0,834.32,1048.59Z"/><path class="cls-6" d="M887.37,375.71c-.42-5,.58-7.24-4.08-9.08-1.18-.47-15-4.08-15-4.08s-5.79-1.53-12.92-3.36c-.92,10.33-.41,20.77,2.59,30.77a58.08,58.08,0,0,0,8.83,17.92c4.25,5.74,9.7,10.42,15.24,14.88q2.14,1.71,4.32,3.38C887.07,395.7,887.48,377,887.37,375.71Z"/><path class="cls-2" d="M868.48,372c-.15-2-.08-5.65-.24-9.46-31.59-10.61-332.66-75.32-387.49-85.78-23.58-4.5-40.88-.42-41,2.14-1.16,30.95,16.91,64.51,42.35,99.07,19.28,26.16,42.77,52.9,65.34,79.51,7.49,8.84,14.89,17.66,22,26.44,34.94,43.19,62.88,85.43,61.47,123.68C627.08,711.2,624,806.44,620.16,910c0,.12.15,27.23.27,27.3,2.17,1.35,4.33,2.69,6.46,4C698,986,745,1022.55,816.8,1064.92h0l2.74,1.61,25.5-11c.2.1.6-.1.71-.37a.3.3,0,0,0,.05-.15c.61-12.85,1.94-48.72,3.67-97.72C856.22,766.8,869,377.77,868.48,372Z"/><path class="cls-3" d="M839.24,387.22c-.39-4.8.55-6.92-3.89-8.68-1.9-.76-37.11-8.63-86.12-19.45l-53.34-11.73c-79.82-17.51-174.37-38.1-227.49-49.69L454,294.51c-.3,7.91,6.5,18.94,16.56,32,27.35,35.62,78.81,86.44,77,130.94-6.09,146.67-14.65,347.07-17.37,420.3,0,.1-3.22,112.18-3.73,130.24,0,1.58-.07,2.44-.07,2.44s198.84,38.6,290.5,54.45h0c.71-16.54,2-51.56,3.61-97.4.78-22.12,1.64-46.75,2.53-73,0-.11,0-.23,0-.35C829.92,691.93,839.66,392.26,839.24,387.22Z"/><path class="cls-7" d="M1007.68,319.05c-31.16-2.05-62.91,1.2-92.17,12.46-26.32,10.13-48.67,25.49-64.64,46.74-6.58,7.69-49.56,64.26-49.38,65.9s-9.84,52.55-2.56,38.55c26-49.91,51-87.8,50.85-85.8,14.73-23.74,36.59-42.32,61.72-54.27,30.26-14.39,64.32-19.25,97.59-17.8Q1008.4,321.93,1007.68,319.05Z"/><path class="cls-8" d="M1034.51,320.46c-1.2-4.08-3.8-8.36-7.4-10.79-2.31-1.55-7-2.65-12.06-2.3s-10.54,2.22-13.93,6.66c-2.89,3.78-5,9.59-4.54,14.26a25.62,25.62,0,0,0,5.56,13.59,16,16,0,0,0,3.23,2.93,18.36,18.36,0,0,0,9.49,3.09c8.79.5,17.66-4.44,20.09-13.23A26.39,26.39,0,0,0,1034.51,320.46Z"/><path class="cls-7" d="M945.39,260.19A243.31,243.31,0,0,0,940,294.65c-.54,6.55-.84,13.12-.83,19.69,0,5.88.39,11.82,2.34,17.4.69-.19,1.38-.34,2.09-.47a299.37,299.37,0,0,0,8.69-32.67c2.22-10.76,4.47-22,3.24-33.06a43.9,43.9,0,0,0-1.54-7.78c-.54-1.81-1.18-4-2.85-5.15C947,249.81,945.9,258,945.39,260.19Z"/><path class="cls-7" d="M976.07,372.91a243,243,0,0,0-28-20.84c-5.53-3.53-11.21-6.85-17-9.91-5.2-2.73-10.63-5.16-16.47-6q-.24,1-.57,2.07a301,301,0,0,0,24.85,22.92c8.49,7,17.41,14.22,27.74,18.28a43.67,43.67,0,0,0,7.6,2.26c1.85.37,4.11.84,5.88-.12C984.52,379.15,977.76,374.38,976.07,372.91Z"/><path class="cls-9" d="M1001.12,314c-2.89,3.78-5,9.59-4.54,14.26a25.62,25.62,0,0,0,5.56,13.59,16,16,0,0,0,3.23,2.93,57.79,57.79,0,0,0,6.2-13.68,84.33,84.33,0,0,0,3.48-23.76C1009.92,307.73,1004.51,309.59,1001.12,314Z"/><path class="cls-10" d="M839.05,444.11l3.21-6.5A9.66,9.66,0,0,1,839.05,444.11Z"/><path class="cls-7" d="M771.32,234.22a204.57,204.57,0,0,0-3.85,29.16c-.33,5.54-.44,11.09-.3,16.62a44.39,44.39,0,0,0,2.32,14.62c.57-.16,1.16-.31,1.76-.43a255.85,255.85,0,0,0,6.67-27.72c1.65-9.13,3.32-18.67,2.06-28a36.67,36.67,0,0,0-1.46-6.53c-.49-1.51-1.07-3.37-2.5-4.28C772.44,225.42,771.71,232.36,771.32,234.22Z"/><path class="cls-7" d="M824,254.15a170.65,170.65,0,0,0-23.34,7.43c-4.28,1.71-8.5,3.59-12.62,5.65a37,37,0,0,0-10.2,6.93c.33.37.65.76.95,1.17A214,214,0,0,0,802,270.54c7.46-2,15.24-4.11,21.79-8.34a31.55,31.55,0,0,0,4.4-3.41c1-.91,2.16-2,2.34-3.4C831,251.89,825.52,253.79,824,254.15Z"/><path class="cls-7" d="M574.1,621.33l32.95,1.72.94.05q14.16-30.65,28.38-61.27,21.43-46.05,43.23-91.93,21.75-45.63,44.12-90.95,22.35-45.13,45.61-89.82c13.92-26.62,28.89-53.6,53.72-73.23,1.55-1.22,3.14-2.4,4.76-3.56q1.5,1.65,3.06,3.27l2,2c-24,17.89-39.26,42.7-52.63,67.73-15.61,29.2-30.43,58.81-45.17,88.44-29.86,60-58.6,120.63-86.93,181.41q-15.92,34.14-31.7,68.35c7.64.46,15.28.92,22.83,1,.63,0,.8.84.18.83-7.73-.12-15.56-.6-23.38-1.07q-7.63,16.53-15.28,33.08c-.21.45-1.13,0-.92-.45q7.54-16.35,15.1-32.7l-6.24-.35q-6.94,15-13.88,30c-.21.46-1.14,0-.93-.44l13.71-29.68-.4,0-33-1.72C573.65,622.12,573.47,621.29,574.1,621.33Z"/><path class="cls-8" d="M859.4,210.85c.14-.44.27-.89.4-1.35a19.52,19.52,0,0,0-.31-11.72c-2-5.24-13.28-14.67-23.8-11.31-4.52,1.45-9.59,5-11.88,9.1a25.64,25.64,0,0,0-3.21,14.34,15.39,15.39,0,0,0,.81,3.8,18.25,18.25,0,0,0,6.17,8.41c6.93,5.43,17,6.46,24,.64A26.32,26.32,0,0,0,859.4,210.85Z"/><path class="cls-9" d="M859.4,210.85c.14-.44.27-.89.4-1.35a86.33,86.33,0,0,0-38.39,4.21,18.25,18.25,0,0,0,6.17,8.41c6.93,5.43,17,6.46,24,.64A26.32,26.32,0,0,0,859.4,210.85Z"/><path class="cls-10" d="M832.11,448.59a16.34,16.34,0,0,0,4.71-1.83l-8,16.24q-3.28,6.63-6.55,13.26c-.69,1.4-.84,2.56-2.53,2.43a33.8,33.8,0,0,1-3.45-.65l-6.8-1.28a172.27,172.27,0,0,1,13.3-29A16.73,16.73,0,0,0,832.11,448.59Z"/><path class="cls-7" d="M651.09,21.32q-1.79-1.35-3.53-2.75-2.13,2.1-4.14,4.27c-21.46,23.28-32,52.26-41.6,80.74q-16.05,47.74-31,95.85c-6.93,22.23-13.88,43-21.23,77.91,2.55.68,5.75.71,8.15,1.73,6-27.69,15.52-61.12,23.48-86.47C591.17,161,601.17,129.46,612,98.17c9.29-26.81,20.45-53.7,41.38-75.14Z"/><path class="cls-8" d="M666.25,20c-.81-5.34-3.34-11.19-7.46-14.87-5.34-4.77-23.56-8.93-33.53,1a30.32,30.32,0,0,0-7.56,13.12,18.49,18.49,0,0,0-.64,4.08,32.63,32.63,0,0,0,4.66,18.1c3.35,5.38,8.83,8.6,15,9.8C646,53,656,49.92,661.64,42.53A20.58,20.58,0,0,0,664.33,38,33.51,33.51,0,0,0,666.25,20Z"/><path class="cls-7" d="M502.14,785.79c-6.33-36.28-7.7-73.31-6.25-110.23q.39-9.67,1-19.36c2.76-47,8.72-93.88,15.56-140.39,7.92-53.79,17.78-107.26,28.87-160.47q8.57-41.1,18-82a1.5,1.5,0,0,1-.47-.08v-.31c-.2-3.31-5.14-3.26-7.45-3.19a.4.4,0,0,0-.24.71c-.17.77-.34,1.54-.52,2.31q-7,30.36-13.5,60.81c-9.44,44.16-18.09,88.48-25.53,133q-2.24,13.35-4.32,26.73c-5.8,37.27-11,74.74-14.63,112.33q-2.42,24.58-3.92,49.21c-2.62,43.84-2.07,88.24,5.95,131.47.69,3.69,12.4,57.79,14.79,68.8a47.89,47.89,0,0,0,7.41,0C514.11,842.07,502.85,789.83,502.14,785.79Z"/><path class="cls-7" d="M542,563.66a316.41,316.41,0,0,0-27.59,36.47c-4.69,7.22-9.1,14.64-13.17,22.23-3.63,6.8-6.87,13.89-8.08,21.54.91.22,1.81.47,2.71.76a392.39,392.39,0,0,0,30.29-32.35c9.24-11.06,18.82-22.68,24.24-36.19a57.58,57.58,0,0,0,3-9.94c.5-2.43,1.14-5.38-.09-7.71C550.23,552.64,543.91,561.45,542,563.66Z"/><path class="cls-7" d="M517.73,480.38c.35-1.47.49-3,.76-4.46a83.8,83.8,0,0,0-6.65-15.21c-4.08-7.59-8.5-15-13.2-22.21A317.59,317.59,0,0,0,471,402.08c-1.94-2.21-8.28-11-11.35-5.17-1.23,2.33-.58,5.29-.08,7.72a57.54,57.54,0,0,0,3.05,9.93c5.45,13.49,15,25.1,24.31,36.14a392.4,392.4,0,0,0,30.14,32.1C517.28,482,517.52,481.21,517.73,480.38Z"/><path class="cls-9" d="M645.7,29.85a77.14,77.14,0,0,0-28-10.68,18.49,18.49,0,0,0-.64,4.08,32.63,32.63,0,0,0,4.66,18.1c3.35,5.38,8.83,8.6,15,9.8C646,53,656,49.92,661.64,42.53A74.35,74.35,0,0,0,645.7,29.85Z"/><path class="cls-11" d="M748,257c-.39-9.63-5.07-18.43-14.87-21.1-10.36-2.84-22.17.67-31.82,4.52-20.72,8.26-37.68,23.6-52.51,39.88C641,288.9,633.58,298,626.2,307.05q-12.72,15.66-25.38,31.39c-16.69,20.82-33.14,41.85-48.85,63.42-10.66,14.64-21,29.54-30.8,44.76a52.87,52.87,0,0,0-14.59-15.22c-.44-.3-.86.42-.42.72a51.75,51.75,0,0,1,14.54,15.22q-6.86,10.67-13.39,21.54-5,8.4-9.8,16.95a.41.41,0,0,0,.72.41c7.25-12.95,14.94-25.64,23-38.12,7,11.28,10.75,24.9,13.74,37.6,6,25.34-9.91,59.46-8,85.41,1.1,14.74,21.36,21.21,21.17,36a.42.42,0,0,0,.77.21q24.18-35.69,48.08-71.57t47.47-72c15.2-23.25,30.46-46.46,45.21-70,13.87-22.11,27.1-44.7,37.92-68.48A324.21,324.21,0,0,0,741.34,290C744.71,279.46,748.49,268.16,748,257Z"/><path class="cls-10" d="M866.73,455.88a27.43,27.43,0,0,0-13.15-15.64c-6.87-3.45-14.28-2.31-20.82,1.37a66.26,66.26,0,0,0-11.54,8.44l-.47.42c.7-1.57,1.4-3.15,2.09-4.72q2.74-6.19,5.42-12.41c.14-.31.27-.62.4-.94,4.67-10.89,9.14-21.87,13.27-33a241.78,241.78,0,0,0,8.69-27.82q.12-.45.21-.9c3.12-13.18,4.68-26.68,3.46-40.24-.76-8.4-3.36-16.62-11.13-20.38l-.72-.33c-.43-.18-.86-.35-1.32-.51-8.87-3.07-19.31-1.05-28,1.83a88.8,88.8,0,0,0-21.22,10.69l-.71.47c-10.14,6.9-19.28,15.46-27.92,23.95q-13.59,13.38-26.47,27.44c-.21.23-.42.48-.64.71q-9.48,10.4-18.56,21.14c-8.16,9.67-20.75,26.62-35,46.65l-.61.86c-14.42,20.31-30.47,43.72-45.32,65.88l-.61.92c-11.9,17.78-23,34.72-31.77,48.58-.4,9.61-.38,19.24-.18,28.84.38,18.66,1.21,37.32,2.16,56,.41,7.91-.3,19.6-1.65,33.48-.06.68-.13,1.35-.2,2.05-5.27,52.55-19.06,134.52-16.3,164,1.78,19,30.19-48.1,32.29-29.13,1,8.62,1.77,17.3,3.22,25.86a96.68,96.68,0,0,0,3,12.77c1.13,3.5,2.43,7.4,4.54,10.45,4.57,6.61,12-1.53,15.83-4.83q9.51-8.19,18.42-17a472.63,472.63,0,0,0,34-37.93c11-13.54,21.39-27.51,31.53-41.69l7.84,5.26q-6.42,11.26-13.28,22.29c-2.41,3.85-4.73,7.83-7.4,11.51-.29.4.38.79.67.39,5.65-7.76,10.45-16.31,15.33-24.56q2.7-4.57,5.33-9.19l8.38,5.63c.41.28.81-.4.39-.68L740,766.14q4.2-7.36,8.25-14.82c9.12-16.87,17.66-34.06,25.87-51.39,16.84-35.59,32.53-71.73,48.54-107.7q12.54-28.15,25.07-56.31c5.41-12.16,10.88-24.46,15-37.17.1-.3.21-.6.3-.91a153.88,153.88,0,0,0,4.12-15.58C868.87,473.63,869.61,464.37,866.73,455.88Zm-276.21,125c3.37-5.78,8.12-13.5,13.83-22.51.31-7.69.89-15.37,1.86-23C607.27,527,589.78,580,590.52,580.88Z"/><path class="cls-12" d="M821.22,450.05c-6.92,11.34-14.14,22.51-21.2,33.7q-21.4,33.9-43.58,67.32t-45.07,66.34q-23,33.08-46.76,65.62c-.29.41-1,0-.67-.39,1.92-2.63,3.84-5.28,5.75-7.91q23.55-32.46,46.38-65.44T761,542.83q22.06-33.48,43.4-67.45c6.17-9.83,12.44-19.66,18.47-29.63A33.08,33.08,0,0,0,821.22,450.05Z"/><path class="cls-12" d="M778.76,516.87c.11-.27.24-.54.36-.8-17.39,2.63-35,4.72-52.56,4.84-5,0-10.35.22-15.31-.64a9.82,9.82,0,0,1-4.56-1.94c13.28-18.86,26.66-37.66,39.92-56.54q4.29-6.1,8.55-12.24c.16.53.31,1.07.47,1.61a.4.4,0,0,0,.48.27q36.46-7.37,72.15-18.09c.14-.31.27-.62.4-.94q-19.62,5.93-39.53,10.84-16.35,4-32.85,7.36l-.54-1.87c14.14-20.31,28.08-40.76,41.51-61.55q2-3.17,4.06-6.34a5.64,5.64,0,0,0,1,1c4,2.94,10.65.59,14.91-.31,6.27-1.33,12.46-3,18.58-4.86,5-1.54,9.91-3.25,14.78-5.09q.12-.45.21-.9-4,1.53-8.09,2.92c-5.72,2-11.51,3.72-17.37,5.23-3,.76-6,1.46-9,2.09a49,49,0,0,1-9,1.46,6.44,6.44,0,0,1-5.54-2.37c14.56-22.82,28.48-46.05,41.31-69.89l0-.06-.72-.33c-12.43,23.08-25.85,45.61-39.91,67.73l-1.18,1.85a8,8,0,0,1-.78-1.92,88.87,88.87,0,0,1-1.48-9.05q-1.5-9.78-3-19.56l-4.14-27-.71.47L794.86,346,798,366.67c.5,3.27.91,6.59,1.53,9.84a11,11,0,0,0,1.26,3.64C786.22,403,771,425.49,755.46,447.76q-10.29-35.53-18.1-71.71c-.17-.81-.35-1.62-.52-2.42-.21.23-.42.48-.64.71q6,28,13.46,55.66,2.54,9.33,5.23,18.59l-2.61,3.74C737,474.23,721.49,496,706.11,517.81a8.4,8.4,0,0,1-1.11-1.37,30.3,30.3,0,0,1-2.66-6.29q-5.05-14-9.34-28.24-5.93-19.68-10.34-39.78l-.61.86q3.72,16.83,8.51,33.42,4.35,15,9.53,29.74c1.33,3.78,2.35,8.43,4.9,11.62a7.49,7.49,0,0,0,.66.71c-1.73,2.45-3.47,4.91-5.19,7.36-16.13,23-32.05,46.13-47.34,69.68l-15.18-80.31q-.6-3.18-1.21-6.34l-.61.92q7.26,38.43,14.53,76.85.93,4.9,1.85,9.83c-.86,1.34-1.74,2.68-2.61,4-16,24.81-31.24,50.12-45.21,76.15l-.51,1q-2.61,4.86-5.15,9.77c-.24.44.44.84.67.4q2.35-4.56,4.79-9.08c12.47-23.36,26-46.14,40.14-68.51,2.67-4.22,5.38-8.42,8.09-12.62L656,615c.09.49.85.28.75-.21-1.14-6-2.29-12.1-3.43-18.14,13.43-20.7,27.34-41.09,41.46-61.32q5.7-8.17,11.43-16.31c2.45,2,5.74,2.23,8.85,2.41,20.7,1.21,41.6-1.38,62.06-4.3Z"/><path class="cls-11" d="M723,571.91c-3.19-5.5-11.13-10-17.25-10.73-13.45-1.64-25.44,4.78-37.14,11.11C656,579.1,645,588.58,635.05,598.76c-21.91,22.36-41,47.9-58.68,73.64-18.43,26.79-35.23,54.66-51.24,82.94-16.15,28.52-31.57,57.46-47,86.38q-4.48,8.41-8.9,16.86,10.88,8.61,21.82,17.11,21.49,16.54,43.51,32.4Q538.78,902,543,896q29.25-42.57,57.38-85.9,28-43.11,54.86-86.94,27-44,52.83-88.78c7.73-13.38,16.12-27.33,17.86-43C726.61,584.87,726.39,577.67,723,571.91Z"/><path class="cls-13" d="M720.16,371.46c-4.73-3.1-11.43-1.81-16.38,0-6.32,2.31-11.88,6.3-17.24,10.29a248.73,248.73,0,0,0-29.79,26.39c-18.55,19.11-34.52,40.53-50.07,62.11-.22-3.37-.45-6.72-.71-10.08,0-.5-.82-.48-.78,0,.29,3.68.54,7.36.78,11.05l-5.71,7.95c-.29.4.4.77.69.37q2.53-3.56,5.1-7.11,2.4,38.31,1.41,76.72c-3.33,4.82-6.61,9.66-9.81,14.57-1.82,2.79-3.62,5.61-5.4,8.43-.27.43.42.8.68.38q7-11.13,14.49-21.93-.21,7.49-.54,15-.69,15-1.89,30c0,.49.74.47.78,0q1.85-23,2.46-46.08c10.71-15.5,22-30.62,33.39-45.63,16.74-22.06,33.73-43.94,49.49-66.72C699,425.65,706.62,414,713.69,402c3.27-5.54,7.11-11.2,9.24-17.31C724.54,380.1,724.72,374.45,720.16,371.46Z"/><path class="cls-7" d="M859.92,658.13c-.13-9.83-3.74-18.32-10.56-21.54s-14.88-1.34-22.05,1.82c-8,3.51-15.67,9.14-23,14.94-30.95,24.49-56.41,60.21-80.34,96.1a44.37,44.37,0,0,0,2.18-14.09,22.89,22.89,0,0,0-2.78-10.62c-.24-.41-.8.11-.56.53,4.23,7.53,2.76,17.44-.25,26.29l0,.05q-4.47,6.71-8.9,13.45c-.29.44.17,1,.46.54q3.74-5.67,7.5-11.36c-4,10.5-9.83,19.58-14.74,29.39-10.42,20.84-50.17,100.75-44.58,123.77,2.5,10.31,38.91-35.94,44-27.94,2.41,3.75,4.84,8,7.73,11s5.8,1.42,8.43-2.23c7.8-10.81,15.16-22.28,22.71-33.4l22.5-33.09q23-33.78,45.91-67.55c7.2-10.6,14.5-21.1,21.56-31.86,6.5-9.91,12.74-20.29,17.47-31.78C856.72,680.58,860.07,669.15,859.92,658.13Z"/><path class="cls-10" d="M764.44,734.26c-10.49,24.47-25,67.07-99.83,163.78,2-1.86,14.75-15.09,32.08-30.62l.77-.68c12.54-11.2,27.39-23.53,42.29-33.63l.72-.48c13.16-8.87,26.34-16,37.93-18.93l.78-.19c7.83-1.9,14.92-1.88,20.77.78l.74.35.4.21c8.13,4.31,8.37,14.82,4.38,27.82-.08.25-.17.52-.25.78-3.92,12.33-11.53,26.79-19.8,40.29-.15.25-.3.51-.46.76a387.52,387.52,0,0,1-27.46,39.11c-4,4.87-8.09,9.67-12.3,14.35-.18.22-.38.44-.58.66a376,376,0,0,1-32.17,31.83c-.22.21-.45.4-.67.59q-5.6,4.88-11.41,9.51a309.06,309.06,0,0,1-35.2,24.34l-.78.45a276.84,276.84,0,0,1-31.84,16.09,148,148,0,0,1-18,6.79c-5.35,1.49-11.95,2.22-16.29-2-3.42-3.34-4.1-8.31-4.32-13.06,0-.31,0-.6,0-.9-.06-1.22-.08-2.41-.12-3.54-.28-7.64-.37-15.29-.36-22.93,0-12.81.33-25.64.57-38.45.33-17.79.53-35.58-.39-53.36a293.57,293.57,0,0,0-5.13-43q-7.41,14.28-14.7,28.62c-.24.47-1,0-.72-.42q4.07-8,8.15-16l7-13.54a187.55,187.55,0,0,0-14.63-44c-.23-.48.49-.9.72-.43a175,175,0,0,1,8,19.28c2.71,7.84,2.37,8.72,4.08,16.8,20.29-39.08,37.12-72.41,61.34-109.18,30.16-45.76,35.87-59.8,66-101.39,11.35-15.65,43.67-46.66,73-48.49,7.4-.46,30,6.2,24.09,33C798.27,671.93,783.15,690.59,764.44,734.26Z"/><path class="cls-13" d="M666.51,694.58c-5.44-4.37-13-3.79-19.09-1.25-7.28,3-13.92,8.2-19.91,13.26a122.15,122.15,0,0,0-24.44,28.1q.25-6.45.53-12.9c0-.5-.76-.5-.78,0q-.3,7.1-.56,14.2a122.12,122.12,0,0,0-6.56,12.13c-.21.45.46.85.67.4,1.76-3.74,3.71-7.39,5.82-10.92q-1.26,33.54-1.71,67.11-.15,11.88-.2,23.75a.39.39,0,0,0,.73.2l35-47.52c10.36-14.07,21.88-27.93,29.47-43.77A65.09,65.09,0,0,0,672,714.86C672.6,708,672.35,699.26,666.51,694.58Z"/><path class="cls-10" d="M690.36,227.71c0,.28,0,.54,0,.81a64.25,64.25,0,0,1-1.25,15.12c-1.93,10.17-5.43,20-9.26,29.57l-.63,1.56-.34.84q-9.28,23-19.89,45.49l-.36.78q-15.09,31.94-32.51,62.66-23.1,40.82-50.15,79.23c.36.79.69,1.59,1,2.4s.65,1.88.92,2.85c.15.52.57,3.33,1.73,2.5-.43.32-.91-.36-.48-.68,1.49-1.06,2,2.91-.29,1.94-1.62-.69-1.79-3.78-2.27-5.2-.34-1-.74-2-1.17-3q-8,11.34-16.33,22.45c-.32.43-1-.11-.64-.53q4.5-6,8.88-12,3.89-5.37,7.7-10.78a38.61,38.61,0,0,0-1.83-3.49c-4.91-8.34-12.45-14.78-20.07-20.57-8.11-6.16-16.57-11.82-24.35-18.42a328.26,328.26,0,0,1-25.18-24.31c-.39-.42-.79-.84-1.19-1.25q-6.54,10.05-13.11,20.09c-.28.45-1,.09-.75-.35l9-13.83,4.25-6.53c-3.22-3.38-6.44-6.78-9.57-10.26-3.62-4-6.93-8.42-8.35-13.75-.14-.51.65-.79.78-.28,1.53,5.7,5.22,10.26,9.14,14.53,2.79,3.05,5.62,6.05,8.47,9,22.72-34.92,45.17-70.06,68.46-104.6q4.37-6.48,8.86-12.88c.18-.24.34-.49.52-.73a372.53,372.53,0,0,1,29.27-36.87c2.13-2.33,4.32-4.64,6.58-6.9l.64-.63c10-9.89,21-18.79,33.56-25.06l.73-.37c1.1-.53,2.2-1.05,3.32-1.55,7.79-3.46,17.08-5.57,24.72-.61.4.25.78.53,1.16.82.2.15.41.31.61.48,4.51,3.74,7.16,9.39,8.5,15A43.52,43.52,0,0,1,690.36,227.71Z"/><path class="cls-12" d="M781.19,842.1a5.45,5.45,0,0,0,2.77.71c7.09.36,14.18.44,21.26.64.08-.26.17-.53.25-.78l-17.22-.52c-1.51,0-3,0-4.54-.14a3.12,3.12,0,0,1-2-.56,326.9,326.9,0,0,0,19-26.81l-.74-.35c-5.8,9.15-12.1,18-18.78,26.51a6,6,0,0,1-.62-3.16c-.19-3.22-.37-6.43-.56-9.64l-.81-14.49-.78.19q.44,7.72.88,15.45c.2,3.52.1,7.22.63,10.7a3.49,3.49,0,0,0,.68,1.69,453.61,453.61,0,0,1-35.93,40.12,3.23,3.23,0,0,1-.13-.57c-.16-1.25-.08-2.58-.14-3.83q-.5-12.82-1.72-25.6-.9-9.54-2.2-19l-.72.48a475.06,475.06,0,0,1,4,49.41q-4.26,4.23-8.58,8.37c-11.1,10.63-22.55,20.88-34.16,31A7.59,7.59,0,0,1,700,918.6c-.3-2.47-.38-5-.54-7.46q-.49-7.29-.87-14.6-.76-14.89-1.08-29.8l-.77.68q.3,13.41.95,26.81.4,8.09.93,16.14c.16,2.3.3,4.61.49,6.91a11.06,11.06,0,0,0,1.29,5.17q-7,6-14,12Q676,943.23,665.61,952a2.14,2.14,0,0,1-.45-.27c-.76-.63-.64-1.38-.73-2.26q-.48-5-.87-10-1.5-19.74-1.29-39.55c-.25.22-.51.45-.78.67a464.06,464.06,0,0,0,2.39,51.12.42.42,0,0,0,.2.35l.93.4-35.58,30-.5.43a17.53,17.53,0,0,1-1-2.2c-2-5.49-1.64-11.59-1.69-17.33L626,927.74l-.78.53q.1,13.66.22,27.34c0,6.2-.24,12.52.39,18.71a25.27,25.27,0,0,0,2.52,9.11c-11.4,9.64-22.72,19.5-34.42,28.82,0,.3,0,.59,0,.9,9.86-7.86,19.44-16.11,29.08-24.23l5.69-4.8a16.71,16.71,0,0,0,2.67,3.54c3.91,4,9.21,6.29,14.13,8.72q8.84,4.38,17.8,8.48l1.08.48.78-.45c-8.6-3.86-17.17-7.87-25.45-12.32-4.17-2.24-8-5-10.41-9l36.5-30.77q22.71,9.76,46,18.2c.22-.19.45-.38.67-.59Q700.14,966,688,961.19q-8.68-3.47-17.29-7.11l-3.46-1.47c-.23-.1-.51-.19-.81-.29l14.91-12.59q9.78-8.28,19.49-16.66c2.4,2.76,7.09,3.65,10.36,4.79q7.23,2.55,14.52,4.93,9.42,3.06,18.92,5.83c.2-.22.4-.44.58-.66q-6.81-2-13.6-4.11t-13.5-4.41c-4.52-1.54-9.19-2.93-13.58-4.83a7.8,7.8,0,0,1-3-2.14c9.76-8.46,19.41-17.05,28.83-25.88q7.13-6.68,14.06-13.57,20.26,1.28,40.56,1.48c.16-.25.31-.51.46-.76q-9.85-.09-19.71-.45-6.54-.22-13.07-.57l-6.15-.36a5.9,5.9,0,0,1-1.32-.12c10.58-10.56,20.77-21.51,30.29-33Q778.37,845.7,781.19,842.1Z"/><path class="cls-7" d="M745.66,747.83c-.94-1.17-1.84-2.35-2.74-3.54q-2.58,1.49-5.07,3.09c-26.61,17.15-44.1,42.57-60.51,67.73q-27.52,42.2-54,85c-12.29,19.78-24.21,38.1-40.09,70.09,2.3,1.3-6.13,23.59-4.06,25.18C592,970.11,621,918.67,635.1,896.13c17.52-28.08,35.11-56.13,53.45-83.7,15.71-23.63,33.25-46.86,58.89-62.36Z"/><path class="cls-8" d="M760.67,750.31c.55-5.37-.43-11.67-3.49-16.27-4-5.95-20.56-14.55-32.7-7.46a30.27,30.27,0,0,0-10.61,10.8,18.82,18.82,0,0,0-1.64,3.78,32.62,32.62,0,0,0,0,18.7c1.89,6,6.39,10.54,12,13.24,8.52,4.08,19,3.65,26.3-2.09a20.8,20.8,0,0,0,3.75-3.75A33.41,33.41,0,0,0,760.67,750.31Z"/><path class="cls-7" d="M634,820.39a264.8,264.8,0,0,0-7.08,37.77c-.82,7.19-1.36,14.42-1.57,21.65-.19,6.48.18,13.84,2.14,20.05.76-.18,2.45-4,3.7-6.07a246.93,246.93,0,0,0,9.13-30.88c2.8-11.78,5.65-24.11,4.67-36.3a48.25,48.25,0,0,0-1.45-8.61c-.53-2-1.16-4.48-3-5.77C636,809,634.57,818,634,820.39Z"/><path class="cls-9" d="M738.29,754.74a76.94,76.94,0,0,0-24.42-17.36,18.82,18.82,0,0,0-1.64,3.78,32.62,32.62,0,0,0,0,18.7c1.89,6,6.39,10.54,12,13.24,8.52,4.08,19,3.65,26.3-2.09A74.45,74.45,0,0,0,738.29,754.74Z"/><path class="cls-2" d="M620.86,393.27c-.32-3.88.28-5.23-3.15-7-6-3.1-175.72-95.39-175.72-95.39s36.82,67.24,13.87,57.37q-7.92-3.4-15.77-6.9c-.15-.19-.66,0-.67.35l-9.84,264.82c-3.11,83.68,12.89,235.7,9.78,319.38,0,.1,130.76,165.6,130.76,165.6l27.47-4c.18.1.59-.15.61-.42C600.59,1036.36,621.34,399.11,620.86,393.27Z"/><path class="cls-5" d="M591.58,397.86c-.35-5.16.5-7.05-3.46-10.42-1.85-1.59-13.14-7.83-29.46-16.55C504.53,341.94,395,285.71,390.6,281.68c-.15-.3-6.16,168.36-9.75,281.35-.34,10.46-.73,23-1.16,37.08-4,130.2-11.64,393.91-11.53,394,16.66,9.58,38.68,21.67,64.63,35.48,30.24,16.1,65.81,34.54,104.48,54.07q16.41,8.28,33.53,16.8h0a.41.41,0,0,0,.67-.28c.35-8.72,1-27.7,1.82-54,4.3-136.8,13.92-472.14,17.19-598.8C591.26,417.42,591.67,399.14,591.58,397.86Z"/><polygon class="cls-14" points="542.08 497.92 402.91 441.97 403.59 395.12 542.76 451.07 542.08 497.92"/><path class="cls-14" d="M551.88,510.15q-.84,7.29-1.93,14.57c-3.16,20.91-7.83,41.56-12.66,62.15q-7.47,31.77-15,63.5-15,63.75-30.1,127.51Q477.08,841.95,462,906q-14.58,61.79-29.16,123.54c-26-13.81-48-25.9-64.63-35.48-.11-.06,7.52-263.77,11.53-394,4.41-1.56,8.91-2.89,13.4-4.2A211.79,211.79,0,0,0,422,585.51a222.19,222.19,0,0,0,26.46-14.44c17.12-10.8,32.94-23.5,48.24-36.72,8.13-7,27.5-19,36.77-24.7.94.46,3.5,2.75,9.22,1.46a8.66,8.66,0,0,0,3,.1,27.55,27.55,0,0,0,5.16-1.17c.24-.09.45-.2.67-.3l.09,0A.41.41,0,0,1,551.88,510.15Z"/><path class="cls-4" d="M551.67,510.34l-.27.48a.54.54,0,0,1,0,.22q-2.39,7.15-4.79,14.29-9.66,28.81-19.51,57.57Q525.38,588,523.62,593q-8.32,24.32-16.79,48.58-4.08,11.71-8.2,23.44c-1.19,3.38-2.37,6.76-3.57,10.14q-13,36.82-26.22,73.57c-1,2.89-2.08,5.78-3.12,8.67-.18.48-.35,1-.53,1.46q-13.38,37-27,73.89c-1.25,3.37-2.49,6.75-3.75,10.13q-5.55,14.94-11.14,29.86-7.87,21.08-15.86,42.11-1.94,5.05-3.85,10.12-11.93,31.34-24.05,62.61-2.11,5.46-4.24,10.91-2,5.07-3.94,10.13-18.1,46.39-36.64,92.63l-.82,0h0l-17.35-.16a.35.35,0,0,1-.3-.16.28.28,0,0,1-.09-.37c1.86-4.66,3.74-9.33,5.6-14q15.64-39.16,31-78.48L356.65,998q5-12.9,10-25.79,9.21-23.85,18.3-47.74,1.94-5.07,3.84-10.13,10.83-28.49,21.47-57l5.56-14.94,3.75-10.12q13.64-36.87,27-73.85,1.85-5.07,3.67-10.14c.76-2.11,1.52-4.24,2.29-6.35q12.07-33.57,23.93-67.23L480,664.52q6.75-19.24,13.44-38.52,5.82-16.74,11.57-33.51l3.47-10.14q12.42-36.3,24.57-72.69a.43.43,0,0,1,.16-.19.33.33,0,0,1,.29-.15c3.13,0,6.24.2,9.36.31,2.8.1,5.79-.32,8.54.13A.4.4,0,0,1,551.67,510.34Z"/><path class="cls-4" d="M415.19,497.08c-.1.15-.18.32-.28.48a.36.36,0,0,1,0,.23q-2.39,7.14-4.79,14.28Q399,545.2,387.66,578.25q-1.71,5.06-3.47,10.11-6.87,20-13.84,40-5.61,16.07-11.26,32.11c-1.17,3.37-2.37,6.74-3.55,10.1q-13,36.85-26.31,73.61s0,.06,0,.08h0c-1.22,3.37-2.43,6.74-3.66,10.11q-13.35,36.86-27,73.63-1.86,5-3.75,10.09-4,10.71-8,21.43-9.5,25.35-19.1,50.63c-1.28,3.36-2.57,6.72-3.84,10.08Q253.5,947.32,243,974.36q-3.78,9.76-7.58,19.5-2,5-3.94,10.09-16.47,42.1-33.3,84.08l-.82,0h0l-17.34-.15a.35.35,0,0,1-.31-.17.29.29,0,0,1-.08-.37q2.79-7,5.6-14,14-35,27.71-70.1l3.93-10.07q6.66-17.1,13.28-34.23,7.61-19.7,15.12-39.41,1.94-5,3.84-10.09h0q12.42-32.67,24.63-65.4c.83-2.23,1.66-4.44,2.48-6.66q1.89-5.05,3.75-10.1,13.63-36.74,27-73.59l3.66-10.11q2.7-7.47,5.39-15,10.56-29.34,20.94-58.74,1.8-5.05,3.57-10.11,8.28-23.49,16.44-47,4.35-12.54,8.67-25.09,1.74-5,3.47-10.1Q383,537,396.61,496.41a.39.39,0,0,1,.15-.2.38.38,0,0,1,.3-.15c3.13,0,6.24.2,9.36.31,2.79.1,5.79-.31,8.53.13A.4.4,0,0,1,415.19,497.08Z"/><path class="cls-4" d="M375.27,998.53q-2,5.07-3.94,10.13l-18.61-.56q-16.74-.51-33.45-1.06-43.92-1.42-87.76-3.09-9.27-.35-18.55-.72l3.93-10.07,18.56.7q48.85,1.85,97.85,3.39,11.67.38,23.35.73Z"/><path class="cls-4" d="M407.41,914.89q-1.94,5.05-3.85,10.12L385,924.45q-12.45-.39-24.88-.8-48.18-1.56-96.22-3.42l-18.56-.71q1.94-5,3.84-10.09h0c2.53.11,5.07.2,7.6.3l10.95.42q53.13,2,106.4,3.72l14.7.45Q398.09,914.61,407.41,914.89Z"/><path class="cls-4" d="M438.16,832.79c-1.25,3.37-2.49,6.75-3.75,10.13l-18.59-.58q-9.39-.29-18.76-.6-51.21-1.66-102.27-3.65l-15-.58-3.5-.14q1.89-5.05,3.75-10.1l13.72.55,4.82.18q56.19,2.18,112.54,4l8.49.27Q428.86,832.5,438.16,832.79Z"/><path class="cls-4" d="M468.84,748.77c-1,2.89-2.08,5.78-3.12,8.67-.18.48-.35,1-.53,1.46q-9.3-.25-18.61-.53-26.82-.78-53.61-1.66-33.75-1.11-67.43-2.34L307,753.68l3.66-10.11,18.54.69h0q38.85,1.43,77.79,2.66,21.6.68,43.25,1.31Q459.54,748.51,468.84,748.77Z"/><path class="cls-4" d="M498.63,665.06c-1.19,3.38-2.37,6.76-3.57,10.14q-9.3-.26-18.59-.55-21.36-.64-42.7-1.33-39.15-1.27-78.23-2.75-9.29-.32-18.55-.69,1.8-5.05,3.57-10.11,9.26.36,18.53.7,44.3,1.65,88.7,3.06,16.13.53,32.25,1Q489.34,664.81,498.63,665.06Z"/><path class="cls-4" d="M527.1,582.9Q525.38,588,523.62,593l-18.57-.55q-17.16-.53-34.3-1.08-43.32-1.42-86.56-3l-18.52-.71q1.74-5,3.47-10.1l18.52.7q48.51,1.83,97.12,3.37,11.87.38,23.74.73Q517.81,582.64,527.1,582.9Z"/><path class="cls-15" d="M383.28,744.56q.62,32.55.43,65.09a.39.39,0,0,0,.42.36l5.82-1a27.69,27.69,0,0,0,4.72-.89c2.29-.87,2.37-4.11,2.83-6.15,1.61-7.14,2.8-14.36,3.9-21.6,2.08-13.52,3.91-27.13,7.67-40.3C400.48,741.73,391.92,743.42,383.28,744.56Z"/><path class="cls-15" d="M572.3,232.1c-11.83,18.73-22.3,32.75-40.88,53.82a90.09,90.09,0,0,0-13.87,20.82,309.94,309.94,0,0,1-57.83-42.48c-1,8.61-4.21,17.39-6.93,24.87-2.46,6.8-5.12,13.49-7.31,20.38,13.64,7.37,52,27.52,74,33.53,8.51,2.33,18.82-9.15,23.71-16.28,5.52-8.06,22.16-48.26,26.85-59.19l13.5-31.4C577.85,234.87,577.76,233.86,572.3,232.1Z"/><path class="cls-15" d="M427,216.16a90.65,90.65,0,0,1-13.05-1.81,7.53,7.53,0,0,1-2,.17c-5.09-.24-6.31-23.21-11.4-23.36-4.76,20.86-12.38,64.69-15.08,85.92,0,.22.2.38.39.39l31.79,2a.4.4,0,0,0,.38-.29q5.81-24,10.23-48.29c.7-3.88,1.59-7.81,2-11.74C430.58,216.77,429,216.3,427,216.16Z"/><path class="cls-15" d="M454.51,222.87c-1.76,2-4.27,3.39-6.62,4.62a74.6,74.6,0,0,1-8.39,3.72,153.36,153.36,0,0,1-18.43,5.33c-3,.73-6.17,1.6-9.35,2.1-.19-.84-.39-1.67-.62-2.5-.24-2.87-.6-5.75-1.11-8.65-1.73-9.88-4.76-14.38-8.76-23.5-3.44-7.83-7-15.69-11.45-23a76.12,76.12,0,0,0-4.43-6.46,98.63,98.63,0,0,1,3.13-11.09c1.14-3.15,2.72-6.31,5.35-8.47a10.6,10.6,0,0,1,8.24-2.5,6.48,6.48,0,0,1,1.67.5c11.7-3,26.48-5.79,35.64,4.22a25.21,25.21,0,0,1,4.91,8.67c.71,2,1.28,4,1.8,6.05.13.5.26,1,.38,1.48,1.6,6.18,3.16,12.38,4.74,18.58.72,2.83,1.26,4.87,1.79,6.79.66,2.44,1.27,4.67,2.14,8,.09.33.17.66.26,1C456.65,212.74,458.17,218.6,454.51,222.87Z"/><path class="cls-15" d="M457.43,188.71a6.46,6.46,0,0,0-2.08-3.19,39.66,39.66,0,0,0-3.87-3.46c-2.58-2.05-5.1-4-6.83-6.86a18.12,18.12,0,0,1-1-1.91l-.51,1a1.57,1.57,0,0,1-.59.65c-.91,6-1.66,12.35,1,18,1,2.16,2.7,4.71,5.23,5.21,2.13.42,3.65-1,4.86-2.58a51.17,51.17,0,0,0,3.08-4.26A3.64,3.64,0,0,0,457.43,188.71Z"/><path class="cls-4" d="M429.51,824.11c-1.92-1.48-24.34-12.61-26.4-14.25-2.62-2.09-2.61-5.27-2.72-8.34l-.24-7.43a41.1,41.1,0,0,0-3.92,2,7,7,0,0,1-5.6.67c-2.54-.77-4.53-3-7.14-3.52l0,0h0l-2.7,13.14c-.51,2.46-1.05,4.93-1.53,7.4a10.58,10.58,0,0,0-.11,5.33c1.23,3.77,6.73,3.93,9.94,4.71l16.19,3.9,16.19,3.9c2.82.67,7.42,2.5,9.8-.12C433.45,829.17,431.66,825.76,429.51,824.11Z"/><path class="cls-15" d="M322.81,737.37q-2.85,32.42-6.51,64.76a.39.39,0,0,0,.38.4l5.91-.4a27.2,27.2,0,0,0,4.78-.38c2.37-.62,2.8-3.84,3.47-5.81,2.36-6.93,4.31-14,6.18-21.06,3.5-13.23,6.78-26.56,11.92-39.26C340.22,736.38,331.53,737.16,322.81,737.37Z"/><path class="cls-4" d="M360.31,821.39c-1.75-1.67-22.86-15.13-24.73-17-2.39-2.36-2-5.52-1.82-8.58.19-2.47.37-5,.55-7.42A42.21,42.21,0,0,0,330.2,790a7,7,0,0,1-5.64.07c-2.44-1-4.18-3.5-6.73-4.27l0,0h0q-2,6.38-4.09,12.77c-.77,2.4-1.56,4.79-2.3,7.2a10.62,10.62,0,0,0-.68,5.28c.82,3.88,6.27,4.63,9.38,5.74l15.69,5.6,15.68,5.61c2.73,1,7.11,3.28,9.76.92C363.68,826.83,362.27,823.26,360.31,821.39Z"/><path class="cls-15" d="M593.27,207.91l.06-.41a14.88,14.88,0,0,0-.91-7.95c-1.23-2.79-3.36-5.07-4.89-7.69l-.83-2c-.51-1.23-1-3-1.81-4-.69-.81-2-1.23-2.64-.17-1.15,1.8.8,5.4,1.47,7a14.76,14.76,0,0,1,.5,10.45,66.36,66.36,0,0,1-2.86,8c-.45-.53-.89-1.07-1.35-1.59l.78-2.64c.84-2.89,1.91-5.83,1.68-8.89S581,191.87,580,189c-.89-2.61-1.79-6.14-3.53-8.34-.71-.9-1.92-1.59-2.82-.49-1.07,1.33.08,3.77.47,5.08.88,3,3.16,9.67,2.66,15.36-.59,6.68-5.84,16.86-5.84,16.76.14-5.19,0-14.89-.17-16.92-.08-1.09.16-3.66-.51-4.58-1-1.38-2.82.22-3.4,1.18-1.57,2.59-1.44,6.38-1.5,9.3-.08,4.13-.6,5.47-1.6,9.49a39.57,39.57,0,0,0-1.54,10.65,37.5,37.5,0,0,0,2,10.15c1.15,3.78,2.29,7.64.73,11.47-.22.54.65.77.86.24a11,11,0,0,0,.37-1.05.45.45,0,0,0,.22.15l6.79,1.7c1.21.3,2.84,1,4.11.56s2.35-2.39,3.11-3.51a45.86,45.86,0,0,0,3.49-6c1.09-2.24,4.41-10.37,7-17h0a30.75,30.75,0,0,0,2.92-8.66A15,15,0,0,0,593.27,207.91Z"/><path class="cls-2" d="M576.13,272.89a17.33,17.33,0,0,1,.29,6.05c-.92,7.79-6,14-10.61,20a109.34,109.34,0,0,0-12.06,20.75c-3.34,7.28-6.36,14.72-10.18,21.77-1.59,2.94-3.35,5.94-5.94,8.1a14.64,14.64,0,0,1-9.13,3.2c-2.53.08-9.93-.92-11.12-1q-9.87-.19-19.71.6c-6.44.51-12.86,1.27-19.32,1.24a55.57,55.57,0,0,1-13.59-1.6l-.21,1.39c0,.17-.06.35-.08.52s0,.28-.06.42c-1,6.13-1.92,12.13-2.89,17.59-1.9,10.84-3.76,19.5-5.23,22.71-1.57,3.4-9.59,10-10.73,11.9-.82,1.39-.43,6.6-1.47,8.24a5.57,5.57,0,0,0-1.51,1.14,8.42,8.42,0,0,0-.94.95c-4.27-.18-8.56-.52-12.81-.75l-33.29-1.74c-5.48-.29-11-.55-16.45-.86a13.85,13.85,0,0,1-6.42-1.45,11.8,11.8,0,0,1-3.57-3.57c-1.26-1.79-2.31-3.66-3.72-5.37a45.1,45.1,0,0,0-4.75-4.83c-3.3-3-6.85-5.68-9.91-8.88a33.78,33.78,0,0,1-6.87-10.56l-.39.12c-.12,0-.24.09-.37.12l-.37.13a55,55,0,0,1-15.33,2.83c-.86,0-1.72,0-2.6,0-7.69-.27-16.07-2.92-22.19-8.35C289.41,362,294.22,345,298.93,333c6.14-15.8,12.5-26.14,20.52-41,7.49-13.89,16.31-27.6,30-36.5,3.77-2.46,12-5.82,22.45-7.91l2.17-.41a99.39,99.39,0,0,1,11-1.32c17.5-1.12,37.55,2,39.25,2.58,9.31,3,19.19,5.64,27.94,10.49.79.43,1.56.88,2.32,1.35l.28.17h0c3.63,2.23,24.17,14.91,33,18.57,8.4,3.5,19.21,16.07,24,11.88,3.58-3.13,14-15.1,16.75-18.88s6.19-8.63,10.09-11.46,11.43-4.23,15.6-6.38c3.84-2,6.35-5.31,8.32-9.22,4.5,1,14.91,6.05,16.63,6.62.68.94-5.29,10-5.12,14.17C574.19,268.21,575.57,270.48,576.13,272.89Z"/><path class="cls-4" d="M446,422c-.1-.76-.17-2-.22-3.51h0c0-.21,0-.42,0-.64s0-.38,0-.57v-.2c-.07-4,0-9,.25-10.67a.37.37,0,0,0-.29-.37,58.43,58.43,0,0,0-17-2h-.78c-4.71.11-9.53.53-15.75.51-14.37-.06-28.78-1.4-43.1.34a.4.4,0,0,0-.39.39,38,38,0,0,1-1.92,9.44c0,.16-.1.31-.16.47l-.2.3c-10.23,15.58-18.92,32.09-22.45,50.63-2.74,14.41-2.67,29.14-2.45,43.75s.37,29.45-1.19,44.15c-1.16,10.94-3,21.77-5.23,32.52-4.67,13.91-10.79,27.43-16.59,40.81a608.14,608.14,0,0,0-28.88,81.42c-4.34,15.82-10.42,39.9-13.43,56a.38.38,0,0,0,.18.43c5.47,3,33.13,7.58,51.53,11.25l1.25.25c2.69.55,30,4.13,53.75,7.22l.78.1,34.93,4.51a.41.41,0,0,0,.5-.37c1.28-29.34,6-68.69,11.27-97.51,5.28-28.67,10.09-57.28,11.85-86.42,1.84-30.34,6.56-61,8.07-91.38S450.76,456.46,446,422Z"/><path class="cls-16" d="M464.55,353.47l-.14.94c-2.92-1.73-5.81-3.49-8.65-5.34-10.07-6.54-19.1-14.37-26-24.24A70,70,0,0,1,417,292.88c-1.19-10.21-.24-22.84,7.71-30.35,7.61-7.2,18-6.21,27.49-3.65.79.43,1.56.88,2.32,1.35l.28.17c-5.63-1.76-11.43-3.14-17.36-2.54a20.19,20.19,0,0,0-16.18,10.49c-5.36,9.83-4.62,22.58-1.84,33.06a74.86,74.86,0,0,0,16.21,29.76C443.87,340.53,454.07,347.18,464.55,353.47Z"/><path class="cls-16" d="M374.07,247.13c-8.83,5.11-14.43,14.35-18,23.78-3.79,10.11-6.28,20.8-8.85,31.27-2.71,11.07-5.35,22.24-7.13,33.5A94.72,94.72,0,0,0,341.28,370c.63,3,1.37,6.06,2.18,9.06l-.74.25a144.65,144.65,0,0,1-3.26-14.89,97.19,97.19,0,0,1,.69-33.42c2.19-11.73,4.89-23.38,7.84-34.93,4.28-16.74,8.53-38.37,23.91-48.52Z"/><path class="cls-16" d="M537.6,322.29c-5.54-10.6-11.85-21.34-22.11-28-.43-.27-.82.41-.4.68,10.15,6.57,16.37,17.23,21.83,27.7C537.16,323.13,537.83,322.73,537.6,322.29Z"/><path class="cls-2" d="M430.89,249.1a16.39,16.39,0,0,0-.91-4.43c-.84-1.75-3.6-1.39-5.1-1.57q-9.78-1.22-19.57-2.34l-9.6-1.07a88.71,88.71,0,0,0-9.31-.95c-2.12,0-3.32,1-4.54,2.86s-2.59,4-3.87,6a.47.47,0,0,0-.3.47L376,250.61a.4.4,0,1,0,.67.44l1.72-2.66c4.13-.47,8.52.58,12.61,1.08l13.42,1.63,26.47,3.22c.2,0,.4-.22.39-.43A47.87,47.87,0,0,0,430.89,249.1Z"/><path class="cls-17" d="M379.24,556.33c-8.67,46.56-19.66,92.77-32.12,138.46q-4.68,17.21-9.7,34.31c-3.3,11.26-7.08,22.43-10.2,33.75-.78,2.83-1.41,5.86-.82,8.78a10.74,10.74,0,0,0,2.69,5.09l-1.25-.25c-.14-.17-.28-.35-.41-.54-3.24-4.58-1.91-10.25-.4-15.2,14-45.94,26.87-92.15,37.63-139,5.36-23.35,10.64-46.83,14.7-70.45,2-11.88,3.08-23.79,1.81-35.81-1.28-12.2-4.37-24.11-7.44-36a.39.39,0,0,1,.75-.2c3.28,12.63,6.56,25.36,7.68,38.41S381.62,543.57,379.24,556.33Z"/><path class="cls-17" d="M445.72,417.85c0-.18,0-.38,0-.57v-.2q-8.34-.54-16.69-.83-.12-5.47-.32-10.95c0-.43,0-.85,0-1.28h-.78c.15,4.07.26,8.13.36,12.19l-.68,0c-18.17-.62-36.34-.92-54.5-1.34l-6.34-.15c0,.16-.1.31-.16.47l-.2.3,29.86.7c10.68.25,21.36.43,32,.81q.76,31.69-.06,63.42-1.11,42.7-5.14,85.27Q419,608.78,412,651.52q-6.92,42.16-16.69,83.79-5.73,24.44-12.44,48.63l.78.1q5.25-19,9.92-38.09Q403.76,704,411.08,661.5q7.23-41.94,11.62-84.32,4.44-42.91,5.95-86,.92-26.16.71-52.36a22.79,22.79,0,0,0,11.48-6.69c3.36-3.68,4.2-8.76,4.89-13.58h0C445.73,418.28,445.73,418.07,445.72,417.85Zm-5.44,13.68A22,22,0,0,1,429.36,438q-.08-10.49-.33-21,8,.3,16,.8C444.37,422.6,443.63,427.87,440.28,431.53Z"/><path class="cls-4" d="M446.77,182.21c.6,2.51.11,4.78-1.07,5.06s-2.64-1.53-3.23-4-.11-4.79,1.07-5.07S446.18,179.69,446.77,182.21Z"/><path class="cls-4" d="M446.09,171.93c-.52-2-1.09-4.06-1.8-6.05a16,16,0,0,0-8.22,5.49c-1.24,1.61-2.17,5.58,1.1,5.5,1.83-.05,4.06-1.7,5.72-2.32,1.11-.42,2.23-.78,3.37-1.1l.21,0C446.35,172.92,446.22,172.43,446.09,171.93Z"/><path class="cls-18" d="M453,198.78a37.89,37.89,0,0,1-7.34,5.8.39.39,0,0,0,0,.67c2.78,1.43,6.33,1.51,9.48,1.57C454.27,203.45,453.66,201.22,453,198.78Z"/><path class="cls-19" d="M589.71,195.71c-.08-.49-.84-.28-.75.21,1.13,6.68-1.3,13-3.73,19.15-.18.46.57.67.76.21C588.47,209,590.87,202.56,589.71,195.71Z"/><path class="cls-19" d="M592.2,209.19q-1.5,4.56-3.37,9c-.2.46.48.85.67.39q1.92-4.5,3.45-9.16C593.11,208.92,592.35,208.72,592.2,209.19Z"/><path class="cls-4" d="M439.63,157.42c-.44-2.71-2.11-7.55-7.13-9.83-7-3.17-18.07-3.21-22-3.23a36.71,36.71,0,0,0-19.71,5.29,23,23,0,0,0-9.93-3.64c-5.95-.7-13.44.93-15.12,7.56-.33,1.32,0,2.6-.16,3.88s-2.08,2.24-2.88,3.23a9.77,9.77,0,0,0-2.09,8c1.35,6.75,8.55,7.51,14.12,5.93.56-.16,1.12-.34,1.68-.53-.6,1.53-1.22,3.07-1.89,4.6-3.27,7.52-6.34,16.16-2.94,24.22,2,4.78,6.05,6.74,10.12,9.5a32.11,32.11,0,0,1,10.82,12.69.39.39,0,0,0,.34.19,58.66,58.66,0,0,1,17.85,3.18.39.39,0,0,0,.49-.37,25,25,0,0,1,4-10.65c1.77-2.62,4-4.81,4.43-8.08s-.41-6.31-.18-9.48a11.13,11.13,0,0,1,1.55-5.24,13.51,13.51,0,0,1,4-3.5c5.29-3.77,3.21-9.37,4.09-14.88.56-3.49,2.42-6.61,4.36-9.51,2.19-3.29,4-5.71,6.21-9C439.71,157.7,439.65,157.55,439.63,157.42Z"/><path class="cls-12" d="M810.54,595c-5.77-11.24-19.53-14.65-31.15-12.33-7.09,1.41-13.69,4.62-19.86,8.3a163.07,163.07,0,0,0-17.23,11.93,242.33,242.33,0,0,0-30.95,29.74c-3.56,4-7,8.1-10.43,12.24-.27.76-.56,1.51-.86,2.25,11-13.46,22.56-26.4,35.69-37.8,10.44-9.06,22.17-18,35.08-23.24,11.7-4.73,27-5.37,36.11,5,5.06,5.77,6.11,13.67,6,21.07,0,2-.12,4.05-.24,6.08l.52-1.17c.11-.23.23-.45.35-.68.05-1,.09-2,.12-2.95C813.88,607.11,813.43,600.58,810.54,595Z"/><path class="cls-12" d="M651.45,278.76c-4.81.65-9.8,1.73-14.67,1.58a10.74,10.74,0,0,1-6.61-2.07c-.13-.11-.24-.23-.36-.34,8.5-13.26,17.23-26.36,26.3-39.24a4.12,4.12,0,0,0,2.15,0c2-.39,4-1.05,5.9-1.6,3.77-1.06,7.54-2.19,11.28-3.4q7.54-2.41,15-5.2c0-.27,0-.53,0-.81-2.83,1.07-5.68,2.09-8.54,3.08-6.73,2.31-13.55,4.41-20.41,6.29-.95.26-1.89.54-2.85.76a3.16,3.16,0,0,1-1.77-.11c1.14-1.61,2.27-3.24,3.43-4.85q10-13.95,20.55-27.47c-.2-.17-.41-.33-.61-.48q-12.46,15.91-24.09,32.45a2.25,2.25,0,0,1-.84-1c-.72-1.82-.67-4.35-1-6.29q-.79-5.57-1.57-11.13c-.6-4.22-1.17-8.45-1.75-12.68l-.73.37c.51,3.75,1,7.48,1.54,11.22.58,4.09,1.15,8.19,1.74,12.28.28,2,.46,4,.86,5.89a3.88,3.88,0,0,0,1.06,2.27Q647,250.24,639,262.43q-4.9,7.43-9.7,14.92a15.33,15.33,0,0,1-2.54-5.76c-1.51-5.4-2.94-10.82-4.33-16.24q-3-11.79-5.73-23.65l-.64.63q2.24,9.82,4.69,19.58,2.14,8.52,4.47,17c.85,3.1,1.52,6.66,3.65,9.1q-13.37,20.91-26.09,42.22a17.86,17.86,0,0,1-2.5-3.57c-1.76-3.23-3.45-6.5-5.13-9.77q-7.85-15.21-14.94-30.79c-.18.24-.34.49-.52.73q6.23,13.64,13,27,2.4,4.71,4.87,9.4c1.39,2.64,2.64,5.62,4.73,7.8q-3.45,5.75-6.86,11.52-9.34,15.74-18.52,31.57c.24.12.46.24.68.37q12.54-21.51,25.28-42.92c4,3.51,10,2.82,14.88,2.55,13.64-.74,27.29-1.42,40.94-2.24l.36-.78c-10.45.63-20.91,1.13-31.38,1.7l-11.13.6a31.8,31.8,0,0,1-8.88-.28,9.44,9.44,0,0,1-4.33-2.31q5.58-9.33,11.27-18.61,7.3-11.88,14.8-23.61a8,8,0,0,0,1.63,1.19c3.41,1.86,7.62,1.44,11.32,1,5.87-.74,11.72-1.55,17.57-2.37q9.51-1.33,19-2.78l.34-.84q-5.5.84-11,1.64C662.65,277.22,657,278,651.45,278.76Z"/><path class="cls-6" d="M591.58,397.86c-.35-5.16.5-7.05-3.46-10.42-1.85-1.59-13.14-7.83-29.46-16.55-2,12.9-2.19,26.22,1.6,38.82a58.28,58.28,0,0,0,8.82,17.92c4.26,5.74,9.71,10.43,15.25,14.88q3.06,2.44,6.16,4.81C591.26,417.42,591.67,399.14,591.58,397.86Z"/><path class="cls-6" d="M537.27,1083.63q16.41,8.28,33.53,16.8h0a.41.41,0,0,0,.67-.28c.35-8.72,1-27.7,1.82-54A65,65,0,0,0,537.27,1083.63Z"/><polygon class="cls-4" points="476.06 1021.07 432.78 1001.96 432.2 987.92 475.48 1007.03 476.06 1021.07"/></svg>