<svg id="Layer_1" data-name="Layer 1" xmlns="http://www.w3.org/2000/svg" viewBox="0 0 314.74 61.82"><defs><style>.cls-1{fill:#4156a1;}</style></defs><path class="cls-1" d="M35.72,16.43a11.5,11.5,0,0,1-9.81,8.9c5.12.49,9.69,3,9.69,8.72a16.14,16.14,0,0,1-.24,2.44c-1.65,7.86-9,12.62-17.8,12.62H.61A.58.58,0,0,1,0,48.5c0-.43.37-.61.85-.67,2.2-.13,3.48-.31,4.76-1.83,1.16-1.28,1.52-3,2.13-5.8L12.31,17a19.17,19.17,0,0,0,.49-3.66c0-2.44-.73-3.47-3.23-3.47a16,16,0,0,0-2.8.24c-.12,0-.19.06-.31.06a.49.49,0,0,1-.55-.55.85.85,0,0,1,.67-.79A62.46,62.46,0,0,1,23.47,6.31c5.43,0,12.44,1.16,12.44,8.11A10.52,10.52,0,0,1,35.72,16.43ZM15.24,26.37,12.13,42.28a8,8,0,0,0-.24,1.83c0,3,2,3.17,4.51,3.17,7.62,0,11.83-3.84,13.29-10.55a14.3,14.3,0,0,0,.24-2.8c0-6.47-5.91-7.56-11.09-7.56ZM18.78,8.69,15.61,24.54H17c6,0,12-.06,13.59-7.68a10.76,10.76,0,0,0,.25-2.38c0-4.76-3.54-6.34-7.75-6.34A15.83,15.83,0,0,0,18.78,8.69Z"/><path class="cls-1" d="M48.59,49.71c-6.53,0-10-5.06-10-11.09,0-8.17,6.52-17.13,16.09-17.13,6.46,0,10,5.06,10,11.09C64.68,40.69,58.16,49.71,48.59,49.71Zm-5.12-10.6c0,3.65,1.34,9,6,9,7.5,0,10.36-10.12,10.36-16,0-3.78-1.34-9.09-6.09-9.09C46.27,23,43.47,33.25,43.47,39.11Z"/><path class="cls-1" d="M77.36,49.71c-6.52,0-10-5.06-10-11.09,0-8.17,6.53-17.13,16.1-17.13,6.46,0,10,5.06,10,11.09C93.45,40.69,86.93,49.71,77.36,49.71Zm-5.12-10.6c0,3.65,1.34,9,6,9,7.5,0,10.37-10.12,10.37-16,0-3.78-1.34-9.09-6.1-9.09C75,23,72.24,33.25,72.24,39.11Z"/><path class="cls-1" d="M115.15,49.71c-2.13,0-3.65-2-4.87-4.32a57,57,0,0,1-4-11.16l-3.6,3s-1.28,6.22-2.2,10.73a1.28,1.28,0,0,1-1.34,1.16h-1.7a.86.86,0,0,1-1-.92.54.54,0,0,1,.06-.3L104,10a13.21,13.21,0,0,0,.37-2.68c-.07-1.22-.68-1.59-1.71-1.59a6.39,6.39,0,0,0-1.4.18,3.82,3.82,0,0,1-.86.07c-.3,0-.55-.13-.55-.49s.25-.49.55-.67a64.16,64.16,0,0,1,8.11-2.93,1.22,1.22,0,0,1,.43-.06.61.61,0,0,1,.67.67c0,.06-.06.18-.06.24-3.6,18.17-6.34,31.46-6.34,31.46a48.27,48.27,0,0,0,8.11-6c.73-.67,2.31-2.2,2.31-3.3s-1.22-1.15-2.13-1.21a.61.61,0,0,1,.06-1.22h11.22c.42,0,.67.24.67.54s-.25.55-.67.68a16.72,16.72,0,0,0-4.09,1.15c-2.92,1.34-6.4,4.33-8.72,6.47a40.07,40.07,0,0,0,4.09,12.13c1.09,2,2.19,3,3.9,3s3.66-1.47,4.63-2.75a.85.85,0,0,1,.61-.36.38.38,0,0,1,.43.42,1.58,1.58,0,0,1-.12.43C122.17,46.85,118.33,49.71,115.15,49.71Z"/><path class="cls-1" d="M152.52,9.48c-.85-1-2.68-1.16-4.57-1.28a.66.66,0,0,1-.55-.61V7.53a.68.68,0,0,1,.73-.61h16.16a.59.59,0,0,1,.67.61c-.06.43-.37.61-.85.67-2.2.12-3.54.55-4.7,1.83s-1.52,2.93-2.07,5.79L153,37.34c-1,5.49-2.5,11.16-6,15.67-2.75,3.53-6.53,7-11.71,7-2.8,0-4.39-1.53-4.39-3.36v-.12a2.44,2.44,0,0,1,2.5-2.5,2.92,2.92,0,0,1,2.44,1.59,3.44,3.44,0,0,0,2.87,1.52c3.17,0,5.18-2.62,6.21-5.36a61.8,61.8,0,0,0,2.2-8.42l5.42-27.43a20.24,20.24,0,0,0,.61-4.14A3.53,3.53,0,0,0,152.52,9.48Z"/><path class="cls-1" d="M169.1,49.71c-6.52,0-10-5.06-10-11.09,0-8.17,6.52-17.13,16.09-17.13,6.46,0,10,5.06,10,11.09C185.2,40.69,178.68,49.71,169.1,49.71ZM164,39.11c0,3.65,1.35,9,6,9,7.5,0,10.36-10.12,10.36-16,0-3.78-1.34-9.09-6.1-9.09C166.79,23,164,33.25,164,39.11Z"/><path class="cls-1" d="M217,44.05c-1.46,2.43-4.75,5.48-7.93,5.48-2,0-3.1-1.28-3.1-3.84a9.63,9.63,0,0,1,.24-2.13l.73-3.84c-2,3.72-6.89,9.87-12.07,9.87-3.35,0-5.18-2-5.18-5.24a19.2,19.2,0,0,1,.55-4.27l1.77-9a20.87,20.87,0,0,0,.54-3.72c0-1.22-.36-1.83-1.64-1.83a9.55,9.55,0,0,0-1.28.13,6.46,6.46,0,0,1-.92.12c-.3,0-.55-.12-.55-.49s.19-.49.55-.67a62.71,62.71,0,0,1,8.05-2.93c.12,0,.24-.06.37-.06a.61.61,0,0,1,.67.67v.31l-3.54,17.68a13.84,13.84,0,0,0-.42,3.17c0,1.89.73,3.29,2.86,3.29a7.52,7.52,0,0,0,3.9-1.34c4.21-2.81,6.65-8.23,8-14.39a18.85,18.85,0,0,0,.61-3.72V27c-.06-1.1-.61-1.53-1.71-1.53a9.71,9.71,0,0,0-1.28.13,7,7,0,0,1-.85.12c-.37,0-.61-.12-.61-.49s.18-.49.55-.67a62.52,62.52,0,0,1,8-2.93c.13,0,.25-.06.37-.06a.61.61,0,0,1,.67.67v.31l-4.08,20.24a8.94,8.94,0,0,0-.19,1.64c0,1.22.43,2,1.71,2,1.77,0,3.6-1.95,4.33-3.11.18-.24.36-.42.61-.42a.4.4,0,0,1,.36.42A3.85,3.85,0,0,1,217,44.05Z"/><path class="cls-1" d="M239.82,27.34c-1.22,0-1.52-2-3.84-2-1.71,0-2.8,1.22-3.66,2.38-3.41,4.75-5.91,13-7.38,20.18a1.42,1.42,0,0,1-1.52,1.22h-1.77a.85.85,0,0,1-1-.92.65.65,0,0,1,.06-.3l3.6-18.17a8.52,8.52,0,0,0,.24-2.74c-.06-1.1-.73-1.41-1.59-1.41a11.4,11.4,0,0,0-1.34.13,5,5,0,0,1-.85.06c-.37,0-.61-.06-.61-.49a.75.75,0,0,1,.55-.67,63.29,63.29,0,0,1,8-2.93c.12,0,.24-.06.36-.06a.59.59,0,0,1,.61.67.57.57,0,0,1-.06.31c-2.68,12.19-3,13.59-3,13.59h.31a49.63,49.63,0,0,1,5.36-11c1.34-1.95,3.29-3.6,5.73-3.6,1.77,0,3.9.79,3.9,2.87C241.89,25.76,241.16,27.34,239.82,27.34Z"/><path class="cls-1" d="M245.31,25.64c-1,.18-1.41.18-1.47-.25s.12-.61.55-.79a62.16,62.16,0,0,1,8.05-2.93c.67-.18,1.16.12,1,.92L251.58,32c2.44-4.45,7.44-10.3,12.87-10.3,3.05,0,4.57,1.65,4.69,4.33a19,19,0,0,1-.61,4.88l-2.38,12.19c-.48,2.44.13,3.35,1.35,3.41,1.82.13,3.71-1.95,4.51-3.11.24-.3.54-.54.85-.3s.12.61-.06,1c-1.46,2.43-4.76,5.48-7.93,5.48-2.43,0-3.65-2-2.86-6l2.74-14.15a8.24,8.24,0,0,0,.19-2.49,2.47,2.47,0,0,0-2.75-2.69,6.74,6.74,0,0,0-4.14,1.71c-4.09,3-7.26,9.75-8.42,15.42l-1.34,6.71a1.14,1.14,0,0,1-1.28,1h-1.7c-.61,0-1.16-.25-1-1.1l3.35-16.95a17.35,17.35,0,0,0,.49-3.9C248.11,25.64,247.32,25.27,245.31,25.64Z"/><path class="cls-1" d="M299.38,43.92c-1.47,2.5-4.7,5.55-7.93,5.55-1.95,0-3.05-1.4-3.05-4v-1.1a12.81,12.81,0,0,1-2,2.44,9.15,9.15,0,0,1-6.7,2.86,4.45,4.45,0,0,1-4.64-4.75,7.91,7.91,0,0,1,.13-1.34c1.15-5.49,7.07-8.35,15.24-9.82l.73-3.72c.55-3,.91-6.76-3.35-6.76-2.26,0-5,1.89-5,4.08a1.91,1.91,0,0,0,.79,1.53,4.48,4.48,0,0,1-3.6,2.31c-.91,0-1.52-.42-1.52-1.4,0-3.72,7.92-8.29,11.46-8.29,3.17,0,5.73,1.83,5.73,5.18a17.37,17.37,0,0,1-.37,3.11l-2.56,13a9.84,9.84,0,0,0-.18,1.65c0,1.16.43,2,1.71,2,1.76,0,3.59-2,4.33-3.11.18-.24.36-.42.61-.42a.35.35,0,0,1,.36.36A1.22,1.22,0,0,1,299.38,43.92Zm-9.27-8.47c-5.85.43-10.79,2.8-10.73,7.92a2.89,2.89,0,0,0,3.17,3.18c3.6,0,5.92-3.11,6.59-6.35Z"/><path class="cls-1" d="M306.69,42.83a6.38,6.38,0,0,0-.24,1.64c0,1.16.43,2,1.71,2,1.76,0,3.59-1.95,4.32-3.11.19-.24.37-.42.61-.42a.41.41,0,0,1,.43.42,1.86,1.86,0,0,1-.24.68c-1.47,2.43-4.7,5.48-7.93,5.48-2,0-3.11-1.28-3.11-3.78a9.26,9.26,0,0,1,.25-2.19L309.13,10a12.07,12.07,0,0,0,.37-2.56c0-1.22-.49-1.71-1.71-1.71a12.25,12.25,0,0,0-1.34.12,2.41,2.41,0,0,1-.85.13c-.37,0-.61-.13-.61-.49s.24-.49.54-.67a72.5,72.5,0,0,1,8.11-2.93,1.25,1.25,0,0,1,.43-.06.61.61,0,0,1,.67.67.36.36,0,0,1-.06.24Z"/></svg>